<svg width="438" height="454" viewBox="0 0 438 454" fill="none" xmlns="http://www.w3.org/2000/svg">
<path d="M436.784 335.601L305.429 259.77C305.429 259.77 305.314 259.737 305.264 259.704V259.671L291.743 245.307L234.155 75.7318C233.908 74.9889 233.28 74.378 232.768 74.378L230.028 74.345C229.912 74.345 229.813 74.378 229.731 74.4275L36.6943 185.937L98.0129 358.17L109.438 372.138L137.043 388.83L222.103 437.237L244.491 453.103L437.527 341.594C437.708 341.479 437.824 341.247 437.824 340.917V337.384C437.824 336.724 437.362 335.915 436.784 335.584V335.601Z" fill="url(#paint0_linear_22_1758)"/>
<path d="M112.377 371.296L305.265 259.704L291.743 245.324L98.7065 356.833L112.377 371.296Z" fill="#212589"/>
<path opacity="0.3" d="M241.222 450.792L437.824 337.285C437.791 336.773 437.51 336.228 437.114 335.865L239.802 449.785L241.222 450.792Z" fill="white"/>
<path opacity="0.3" d="M232.884 74.411L37.3052 187.324L38.725 188.331L234.089 75.5337C233.825 74.9394 233.33 74.4771 232.901 74.3945L232.884 74.411Z" fill="white"/>
<path opacity="0.48" d="M100.935 357.015L91.1777 202.166L284.23 90.657L293.988 245.505L100.935 357.015Z" fill="url(#paint1_linear_22_1758)"/>
<path opacity="0.5" d="M229.219 17.4182L251.062 4.80445V0L229.219 12.6137V17.4182Z" fill="#42E8E0"/>
<path opacity="0.5" d="M218.008 23.8901L225.867 19.3499V14.5454L218.008 19.0857V23.8901Z" fill="#42E8E0"/>
<path opacity="0.5" d="M209.308 28.9092L214.657 25.8218V21.0173L209.308 24.1047V28.9092Z" fill="#42E8E0"/>
<path opacity="0.5" d="M239.158 22.6353L251.062 15.7671V10.9626L239.158 17.8474V22.6353Z" fill="#42E8E0"/>
<path opacity="0.5" d="M221.228 33.0038L235.823 24.5671V19.7627L221.228 28.1994V33.0038Z" fill="#42E8E0"/>
<path opacity="0.5" d="M212.543 38.0062L217.893 34.9188V30.1309L212.543 33.2183V38.0062Z" fill="#42E8E0"/>
<path opacity="0.5" d="M204.272 42.7777L209.621 39.6903V34.9023L204.272 37.9897V42.7777Z" fill="#42E8E0"/>
<path d="M242.46 31.6995L251.062 26.73V21.9255L242.46 26.9116V31.6995Z" fill="#42E8E0"/>
<path d="M236.169 35.3316L239.108 33.6311V28.8267L236.169 30.5272V35.3316Z" fill="#42E8E0"/>
<path opacity="0.5" d="M227.485 40.3508L232.834 37.2634V32.459L227.485 35.5464V40.3508Z" fill="#42E8E0"/>
<path opacity="0.5" d="M219.263 56.0517L251.062 37.6925V32.9045L219.263 51.2638V56.0517Z" fill="#42E8E0"/>
<path opacity="0.5" d="M208.053 62.5238L215.928 57.9835V53.1956L208.053 57.7358V62.5238Z" fill="#42E8E0"/>
<path opacity="0.5" d="M242.46 53.6414L251.062 48.6554V43.8674L242.46 48.837V53.6414Z" fill="#42E8E0"/>
<path opacity="0.5" d="M222.235 65.314L239.108 55.5565V50.7686L222.235 60.5095V65.314Z" fill="#42E8E0"/>
<path opacity="0.5" d="M213.534 70.333L218.883 67.2456V62.4412L213.534 65.5286V70.333Z" fill="#42E8E0"/>
<path opacity="0.5" d="M233.445 69.8048L251.062 59.6345V54.8301L233.445 65.0003V69.8048Z" fill="#42E8E0"/>
<path d="M217.348 79.1001L230.094 71.7366V66.9321L217.348 74.2956V79.1001Z" fill="#42E8E0"/>
<path opacity="0.5" d="M205.395 86.0013L214.013 81.0152V76.2273L205.395 81.1968V86.0013Z" fill="#42E8E0"/>
<path opacity="0.5" d="M245.118 74.0313L251.062 70.5972V65.7927L245.118 69.2268V74.0313Z" fill="#42E8E0"/>
<path opacity="0.5" d="M233.908 80.5034L241.783 75.9631V71.1587L233.908 75.699V80.5034Z" fill="#42E8E0"/>
<path opacity="0.5" d="M217.893 89.749L230.572 82.4351V77.6306L217.893 84.9446V89.749Z" fill="#42E8E0"/>
<path opacity="0.5" d="M232.834 92.0935L251.062 81.5601V76.7556L232.834 87.2891V92.0935Z" fill="#42E8E0"/>
<path opacity="0.5" d="M212.395 103.882L229.483 94.0086V89.2207L212.395 99.0772V103.882Z" fill="#42E8E0"/>
<path d="M203.71 108.901L209.06 105.813V101.009L203.71 104.096V108.901Z" fill="#42E8E0"/>
<path opacity="0.5" d="M195.373 113.705L200.722 110.618V105.83L195.373 108.917V113.705Z" fill="#42E8E0"/>
<path opacity="0.5" d="M240.148 98.8296L251.062 92.5227V87.7183L240.148 94.0251V98.8296Z" fill="#42E8E0"/>
<path d="M194.432 37.4945L179.276 46.2448V41.4569L194.432 32.7065V37.4945Z" fill="#42E8E0"/>
<path opacity="0.5" d="M191.196 50.3393L179.276 57.2076V52.4196L191.196 45.5349V50.3393Z" fill="#42E8E0"/>
<path opacity="0.5" d="M187.894 63.2008L179.276 68.1868V63.3824L187.894 58.4128V63.2008Z" fill="#42E8E0"/>
<path opacity="0.5" d="M191.807 71.9015L179.276 79.1494V74.345L191.807 67.1135V71.9015Z" fill="#42E8E0"/>
<path opacity="0.5" d="M187.894 85.1426L179.276 90.1121V85.3077L187.894 80.3381V85.1426Z" fill="#42E8E0"/>
<path opacity="0.5" d="M190.206 94.7681L179.276 101.075V96.2705L190.206 89.9636V94.7681Z" fill="#42E8E0"/>
<path opacity="0.5" d="M185.236 108.604L179.276 112.038V107.233L185.236 103.799V108.604Z" fill="#42E8E0"/>
<path opacity="0.5" d="M190.816 116.347L179.276 123V118.212L190.816 111.542V116.347Z" fill="#42E8E0"/>
<path opacity="0.5" d="M190.206 127.656L179.276 133.963V129.175L190.206 122.868V127.656Z" fill="#42E8E0"/>
<path opacity="0.5" d="M232.157 103.436L236.797 100.761V95.9568L232.157 98.6479V103.436Z" fill="#42E8E0"/>
<path opacity="0.5" d="M218.355 111.41L228.822 105.368V100.563L218.355 106.606V111.41Z" fill="#42E8E0"/>
<path opacity="0.5" d="M144.456 66.1726L166.315 53.5423V48.7544L144.456 61.3681V66.1726Z" fill="#42E8E0"/>
<path opacity="0.5" d="M133.246 72.6445L141.121 68.1042V63.2998L133.246 67.8401V72.6445Z" fill="#42E8E0"/>
<path d="M124.561 77.6636L129.91 74.5762V69.7717L124.561 72.8591V77.6636Z" fill="#42E8E0"/>
<path opacity="0.5" d="M154.395 71.3897L166.315 64.5215V59.717L154.395 66.5853V71.3897Z" fill="#42E8E0"/>
<path opacity="0.5" d="M136.465 81.7417L151.06 73.3215V68.5171L136.465 76.9372V81.7417Z" fill="#42E8E0"/>
<path d="M127.781 86.7607L133.13 83.6733V78.8689L127.781 81.9563V86.7607Z" fill="#42E8E0"/>
<path opacity="0.5" d="M119.509 91.532L124.858 88.4446V83.6401L119.509 86.7275V91.532Z" fill="#42E8E0"/>
<path opacity="0.5" d="M157.697 80.4537L166.315 75.4841V70.6797L157.697 75.6492V80.4537Z" fill="#42E8E0"/>
<path opacity="0.5" d="M151.407 84.086L154.346 82.3855V77.5811L151.407 79.2816V84.086Z" fill="#42E8E0"/>
<path opacity="0.5" d="M142.722 89.1052L148.071 86.0178V81.2134L142.722 84.3008V89.1052Z" fill="#42E8E0"/>
<path opacity="0.5" d="M134.5 104.806L166.315 86.447V81.6426L134.5 100.002V104.806Z" fill="#42E8E0"/>
<path opacity="0.5" d="M123.29 111.278L131.165 106.738V101.933L123.29 106.474V111.278Z" fill="#42E8E0"/>
<path opacity="0.5" d="M157.697 102.379L166.315 97.4097V92.6052L157.697 97.5913V102.379Z" fill="#42E8E0"/>
<path opacity="0.5" d="M137.472 114.052L154.346 104.311V99.5063L137.472 109.264V114.052Z" fill="#42E8E0"/>
<path opacity="0.5" d="M128.788 119.071L134.137 115.984V111.196L128.788 114.283V119.071Z" fill="#42E8E0"/>
<path d="M148.682 118.559L166.315 108.372V103.568L148.682 113.755V118.559Z" fill="#42E8E0"/>
<path opacity="0.5" d="M132.585 127.838L145.347 120.474V115.686L132.585 123.05V127.838Z" fill="#42E8E0"/>
<path opacity="0.5" d="M120.632 134.739L129.25 129.77V124.965L120.632 129.951V134.739Z" fill="#42E8E0"/>
<path opacity="0.5" d="M160.355 122.786L166.315 119.335V114.547L160.355 117.981V122.786Z" fill="#42E8E0"/>
<path opacity="0.5" d="M149.145 129.241L157.02 124.701V119.913L149.145 124.453V129.241Z" fill="#42E8E0"/>
<path d="M133.13 138.503L145.81 131.173V126.385L133.13 133.699V138.503Z" fill="#42E8E0"/>
<path opacity="0.5" d="M148.071 140.831L166.315 130.298V125.51L148.071 136.043V140.831Z" fill="#42E8E0"/>
<path opacity="0.5" d="M127.632 152.636L144.736 142.763V137.958L127.632 147.832V152.636Z" fill="#42E8E0"/>
<path opacity="0.5" d="M118.948 157.639L124.297 154.551V149.763L118.948 152.851V157.639Z" fill="#42E8E0"/>
<path opacity="0.5" d="M110.61 162.459L115.959 159.372V154.568L110.61 157.655V162.459Z" fill="#42E8E0"/>
<path opacity="0.5" d="M155.385 147.584L166.315 141.277V136.473L155.385 142.78V147.584Z" fill="#42E8E0"/>
<path d="M109.669 86.2488L94.5127 94.9992V90.1947L109.669 81.4443V86.2488Z" fill="#42E8E0"/>
<path opacity="0.5" d="M106.433 99.0938L94.5127 105.962V101.158L106.433 94.2893V99.0938Z" fill="#42E8E0"/>
<path opacity="0.5" d="M103.131 111.955L94.5127 116.925V112.12L103.131 107.151V111.955Z" fill="#42E8E0"/>
<path opacity="0.5" d="M107.06 120.656L94.5127 127.887V123.1L107.06 115.852V120.656Z" fill="#42E8E0"/>
<path opacity="0.5" d="M103.131 133.881L94.5127 138.85V134.062L103.131 129.076V133.881Z" fill="#42E8E0"/>
<path opacity="0.5" d="M105.442 143.506L94.5127 149.829V145.025L105.442 138.718V143.506Z" fill="#42E8E0"/>
<path opacity="0.5" d="M100.473 157.358L94.5127 160.792V155.988L100.473 152.553V157.358Z" fill="#42E8E0"/>
<path opacity="0.5" d="M106.053 165.085L94.5127 171.755V166.95L106.053 160.297V165.085Z" fill="#42E8E0"/>
<path opacity="0.5" d="M105.442 176.411L94.5127 182.718V177.913L105.442 171.606V176.411Z" fill="#42E8E0"/>
<path d="M147.395 152.19L152.034 149.499V144.711L147.395 147.386V152.19Z" fill="#42E8E0"/>
<path opacity="0.5" d="M133.592 160.165L144.06 154.122V149.317L133.592 155.36V160.165Z" fill="#42E8E0"/>
<path opacity="0.5" d="M229.219 116.165L251.062 103.551V98.7471L229.219 111.377V116.165Z" fill="#42E8E0"/>
<path opacity="0.5" d="M218.008 122.637L225.867 118.097V113.292L218.008 117.849V122.637Z" fill="#42E8E0"/>
<path opacity="0.5" d="M209.308 127.656L214.657 124.569V119.764L209.308 122.852V127.656Z" fill="#42E8E0"/>
<path opacity="0.5" d="M239.158 121.399L251.062 114.514V109.71L239.158 116.594V121.399Z" fill="#42E8E0"/>
<path opacity="0.5" d="M221.228 131.751L235.823 123.314V118.526L221.228 126.946V131.751Z" fill="#42E8E0"/>
<path opacity="0.5" d="M212.543 136.753L217.893 133.666V128.878L212.543 131.965V136.753Z" fill="#42E8E0"/>
<path opacity="0.5" d="M204.272 141.541L209.621 138.454V133.649L204.272 136.737V141.541Z" fill="#42E8E0"/>
<path opacity="0.5" d="M242.46 130.463L251.062 125.477V120.672L242.46 125.658V130.463Z" fill="#42E8E0"/>
<path opacity="0.5" d="M236.169 134.079L239.108 132.378V127.59L236.169 129.291V134.079Z" fill="#42E8E0"/>
<path opacity="0.5" d="M227.485 139.098L232.834 136.01V131.206L227.485 134.293V139.098Z" fill="#42E8E0"/>
<path opacity="0.5" d="M219.263 154.815L251.062 136.44V131.652L219.263 150.011V154.815Z" fill="#42E8E0"/>
<path opacity="0.5" d="M208.053 161.287L215.928 156.731V151.943L208.053 156.483V161.287Z" fill="#42E8E0"/>
<path opacity="0.5" d="M242.46 152.388L251.062 147.419V142.614L242.46 147.584V152.388Z" fill="#42E8E0"/>
<path opacity="0.5" d="M222.235 164.061L239.108 154.32V149.516L222.235 159.257V164.061Z" fill="#42E8E0"/>
<path opacity="0.5" d="M213.534 169.08L218.883 165.993V161.188L213.534 164.276V169.08Z" fill="#42E8E0"/>
<path opacity="0.5" d="M233.445 168.552L251.062 158.382V153.577L233.445 163.747V168.552Z" fill="#42E8E0"/>
<path opacity="0.5" d="M217.348 177.847L230.094 170.483V165.679L217.348 173.042V177.847Z" fill="#42E8E0"/>
<path opacity="0.5" d="M205.395 184.748L214.013 179.779V174.974L205.395 179.944V184.748Z" fill="#42E8E0"/>
<path opacity="0.5" d="M245.118 172.778L251.062 169.344V164.54L245.118 167.974V172.778Z" fill="#42E8E0"/>
<path opacity="0.5" d="M233.908 179.25L241.783 174.71V169.906L233.908 174.446V179.25Z" fill="#42E8E0"/>
<path opacity="0.5" d="M217.893 188.496L230.572 181.182V176.377L217.893 183.691V188.496Z" fill="#42E8E0"/>
<path opacity="0.5" d="M232.834 190.84L251.062 180.307V175.502L232.834 186.036V190.84Z" fill="#42E8E0"/>
<path opacity="0.5" d="M212.395 202.629L229.483 192.772V187.968L212.395 197.841V202.629Z" fill="#42E8E0"/>
<path opacity="0.5" d="M203.71 207.648L209.06 204.56V199.756L203.71 202.843V207.648Z" fill="#42E8E0"/>
<path opacity="0.5" d="M195.373 212.469L200.722 209.381V204.577L195.373 207.664V212.469Z" fill="#42E8E0"/>
<path opacity="0.5" d="M240.148 197.577L251.062 191.27V186.465L240.148 192.789V197.577Z" fill="#42E8E0"/>
<path opacity="0.5" d="M194.432 136.242L179.276 144.992V140.204L194.432 131.454V136.242Z" fill="#42E8E0"/>
<path opacity="0.5" d="M191.196 149.086L179.276 155.971V151.167L191.196 144.282V149.086Z" fill="#42E8E0"/>
<path opacity="0.5" d="M187.894 161.948L179.276 166.934V162.129L187.894 157.16V161.948Z" fill="#42E8E0"/>
<path opacity="0.5" d="M191.807 170.665L179.276 177.896V173.092L191.807 165.861V170.665Z" fill="#42E8E0"/>
<path opacity="0.5" d="M187.894 183.89L179.276 188.859V184.055L187.894 179.085V183.89Z" fill="#42E8E0"/>
<path opacity="0.5" d="M190.206 193.515L179.276 199.822V195.017L190.206 188.71V193.515Z" fill="#42E8E0"/>
<path opacity="0.5" d="M185.236 207.351L179.276 210.785V205.997L185.236 202.546V207.351Z" fill="#42E8E0"/>
<path opacity="0.5" d="M190.816 215.094L179.276 221.747V216.959L190.816 210.289V215.094Z" fill="#42E8E0"/>
<path opacity="0.5" d="M190.206 226.403L179.276 232.727V227.922L190.206 221.615V226.403Z" fill="#42E8E0"/>
<path opacity="0.5" d="M232.157 202.199L236.797 199.508V194.704L232.157 197.395V202.199Z" fill="#42E8E0"/>
<path opacity="0.5" d="M218.355 210.157L228.822 204.115V199.327L218.355 205.353V210.157Z" fill="#42E8E0"/>
<path opacity="0.5" d="M209.704 247.041L227.353 236.854V232.05L209.704 242.236V247.041Z" fill="#42E8E0"/>
<path opacity="0.5" d="M197.602 254.025L204.569 250.013V245.208L197.602 249.22V254.025Z" fill="#42E8E0"/>
<path opacity="0.5" d="M144.456 164.92L166.315 152.306V147.501L144.456 160.115V164.92Z" fill="#42E8E0"/>
<path opacity="0.5" d="M133.246 171.392L141.121 166.851V162.047L133.246 166.587V171.392Z" fill="#42E8E0"/>
<path opacity="0.5" d="M124.561 176.411L129.91 173.323V168.519L124.561 171.606V176.411Z" fill="#42E8E0"/>
<path opacity="0.5" d="M154.395 170.137L166.315 163.269V158.464L154.395 165.332V170.137Z" fill="#42E8E0"/>
<path opacity="0.5" d="M136.465 180.489L151.06 172.068V167.264L136.465 175.701V180.489Z" fill="#42E8E0"/>
<path opacity="0.5" d="M127.781 185.508L133.13 182.42V177.616L127.781 180.703V185.508Z" fill="#42E8E0"/>
<path opacity="0.5" d="M119.509 190.279L124.858 187.192V182.387L119.509 185.475V190.279Z" fill="#42E8E0"/>
<path opacity="0.5" d="M157.697 179.201L166.315 174.231V169.427L157.697 174.396V179.201Z" fill="#42E8E0"/>
<path opacity="0.5" d="M151.407 182.833L154.346 181.133V176.328L151.407 178.029V182.833Z" fill="#42E8E0"/>
<path opacity="0.5" d="M142.722 187.852L148.071 184.765V179.96L142.722 183.048V187.852Z" fill="#42E8E0"/>
<path opacity="0.5" d="M134.5 203.553L166.315 185.194V180.39L134.5 198.749V203.553Z" fill="#42E8E0"/>
<path opacity="0.5" d="M123.29 210.025L131.165 205.485V200.68L123.29 205.221V210.025Z" fill="#42E8E0"/>
<path opacity="0.5" d="M157.697 201.126L166.315 196.157V191.352L157.697 196.338V201.126Z" fill="#42E8E0"/>
<path opacity="0.5" d="M137.472 212.815L154.346 203.058V198.253L137.472 208.011V212.815Z" fill="#42E8E0"/>
<path opacity="0.5" d="M128.788 217.818L134.137 214.731V209.943L128.788 213.03V217.818Z" fill="#42E8E0"/>
<path opacity="0.5" d="M148.682 217.306L166.315 207.119V202.332L148.682 212.502V217.306Z" fill="#42E8E0"/>
<path opacity="0.5" d="M132.585 226.585L145.347 219.238V214.433L132.585 221.797V226.585Z" fill="#42E8E0"/>
<path opacity="0.5" d="M120.632 233.503L129.25 228.517V223.712L120.632 228.698V233.503Z" fill="#42E8E0"/>
<path opacity="0.5" d="M160.355 221.533L166.315 218.082V213.294L160.355 216.728V221.533Z" fill="#42E8E0"/>
<path opacity="0.5" d="M149.145 228.005L157.02 223.448V218.66L149.145 223.2V228.005Z" fill="#42E8E0"/>
<path opacity="0.5" d="M133.13 237.25L145.81 229.92V225.132L133.13 232.446V237.25Z" fill="#42E8E0"/>
<path opacity="0.5" d="M148.071 239.578L166.315 229.061V224.257L148.071 234.79V239.578Z" fill="#42E8E0"/>
<path opacity="0.5" d="M127.632 251.383L144.736 241.51V236.706L127.632 246.579V251.383Z" fill="#42E8E0"/>
<path opacity="0.5" d="M118.948 256.402L124.297 253.315V248.51L118.948 251.598V256.402Z" fill="#42E8E0"/>
<path opacity="0.5" d="M110.61 261.207L115.959 258.119V253.315L110.61 256.402V261.207Z" fill="#42E8E0"/>
<path opacity="0.5" d="M155.385 246.331L166.315 240.024V235.22L155.385 241.527V246.331Z" fill="#42E8E0"/>
<path opacity="0.5" d="M109.669 184.996L94.5127 193.746V188.942L109.669 180.191V184.996Z" fill="#42E8E0"/>
<path opacity="0.5" d="M106.433 197.841L94.5127 204.709V199.905L106.433 193.036V197.841Z" fill="#42E8E0"/>
<path opacity="0.5" d="M103.131 210.702L94.5127 215.672V210.884L103.131 205.898V210.702Z" fill="#42E8E0"/>
<path opacity="0.5" d="M107.06 219.403L94.5127 226.634V221.846L107.06 214.598V219.403Z" fill="#42E8E0"/>
<path opacity="0.5" d="M103.131 232.628L94.5127 237.614V232.809L103.131 227.84V232.628Z" fill="#42E8E0"/>
<path opacity="0.5" d="M105.442 242.269L94.5127 248.576V243.772L105.442 237.465V242.269Z" fill="#42E8E0"/>
<path opacity="0.5" d="M100.473 256.105L94.5127 259.539V254.735L100.473 251.301V256.105Z" fill="#42E8E0"/>
<path opacity="0.5" d="M106.053 263.848L94.5127 270.502V265.697L106.053 259.044V263.848Z" fill="#42E8E0"/>
<path opacity="0.5" d="M105.442 275.157L94.5127 281.464V276.66L105.442 270.353V275.157Z" fill="#42E8E0"/>
<path opacity="0.5" d="M147.395 250.937L152.034 248.262V243.458L147.395 246.133V250.937Z" fill="#42E8E0"/>
<path opacity="0.5" d="M133.592 258.912L144.06 252.869V248.064L133.592 254.107V258.912Z" fill="#42E8E0"/>
<path opacity="0.5" d="M124.941 295.795L142.59 285.592V280.804L124.941 290.991V295.795Z" fill="#42E8E0"/>
<path opacity="0.5" d="M112.855 302.779L119.806 298.751V293.963L112.855 297.975V302.779Z" fill="#42E8E0"/>
<path opacity="0.48" d="M102.636 357.378L119.278 218.577L312.331 107.068L295.689 245.852L102.636 357.378Z" fill="url(#paint2_linear_22_1758)"/>
<path opacity="0.48" d="M104.418 358.171L146.767 241.213L339.82 129.687L297.455 246.661L104.418 358.171Z" fill="url(#paint3_linear_22_1758)"/>
<path opacity="0.48" d="M106.185 359.409L172.49 269.131L365.542 157.605L299.238 247.883L106.185 359.409Z" fill="url(#paint4_linear_22_1758)"/>
<path opacity="0.48" d="M107.886 360.994L195.389 301.161L388.442 189.635L300.938 249.484L107.886 360.994Z" fill="url(#paint5_linear_22_1758)"/>
<path opacity="0.48" d="M302.49 251.383L407.577 224.471L214.524 335.981L109.438 362.892L302.49 251.383Z" fill="url(#paint6_linear_22_1758)"/>
<path opacity="0.48" d="M303.844 253.496L422.123 260.629L229.07 372.155L110.792 365.022L303.844 253.496Z" fill="url(#paint7_linear_22_1758)"/>
<path opacity="0.48" d="M304.934 255.758L431.484 296.637L238.431 408.163L111.881 367.284L304.934 255.758Z" fill="url(#paint8_linear_22_1758)"/>
<path opacity="0.48" d="M305.71 258.07L435.298 330.978L242.245 442.504L112.657 369.579L305.71 258.07Z" fill="url(#paint9_linear_22_1758)"/>
<path opacity="0.48" d="M292.436 245.621L99.383 357.13L63.6221 192.657L256.675 81.1472L292.436 245.621Z" fill="url(#paint10_linear_22_1758)"/>
<path d="M243.731 447.127L112.376 371.296C112.376 371.296 112.261 371.263 112.211 371.23V371.197L98.6896 356.833L41.1023 187.258C40.8547 186.515 40.2273 185.904 39.7155 185.904L36.9748 185.871C36.463 185.871 36.2483 186.465 36.496 187.208L94.0833 356.784C94.3309 357.527 94.9583 358.137 95.4701 358.137L96.1305 358.864C96.0975 359.409 96.3782 360.102 96.8405 360.614L109.273 374.169C109.751 374.681 110.28 374.846 110.61 374.647L111.32 375.423C111.32 376.084 111.782 376.893 112.36 377.223L243.714 453.054C244.292 453.384 244.755 453.12 244.755 452.46V448.927C244.755 448.266 244.292 447.457 243.714 447.127H243.731Z" fill="url(#paint11_linear_22_1758)"/>
<path d="M79.571 305.85C83.9132 303.34 83.9132 299.295 79.571 296.786C75.2289 294.276 68.2121 294.276 63.8699 296.786C59.5277 299.295 59.5277 303.34 63.8699 305.85C68.2121 308.359 75.2289 308.359 79.571 305.85Z" fill="url(#paint12_linear_22_1758)"/>
<path d="M79.571 305.305C75.2288 307.815 68.212 307.815 63.8699 305.305C61.8226 304.116 60.7495 302.597 60.6339 301.045C60.5018 302.779 61.575 304.529 63.8699 305.85C68.212 308.359 75.2288 308.359 79.571 305.85C81.8659 304.529 82.9226 302.779 82.807 301.045C82.6914 302.597 81.6183 304.116 79.571 305.305Z" fill="white"/>
<path d="M79.571 327.412C83.9132 324.902 83.9132 320.858 79.571 318.348C75.2289 315.838 68.2121 315.838 63.8699 318.348C59.5277 320.858 59.5277 324.902 63.8699 327.412C68.2121 329.922 75.2289 329.922 79.571 327.412Z" fill="url(#paint13_linear_22_1758)"/>
<path d="M79.571 349.338C83.9132 346.828 83.9132 342.783 79.571 340.274C75.2289 337.764 68.2121 337.764 63.8699 340.274C59.5277 342.783 59.5277 346.828 63.8699 349.338C68.2121 351.847 75.2289 351.847 79.571 349.338Z" fill="url(#paint14_linear_22_1758)"/>
<path d="M60.6338 301.326V290.116C60.6338 291.75 61.7235 293.401 63.8863 294.639C68.2284 297.149 75.2452 297.149 79.5874 294.639C81.6842 293.434 82.7573 291.849 82.8234 290.264V242.814H60.6338V382.556C60.6338 388.681 65.6033 393.651 71.7286 393.651C77.8538 393.651 82.8234 388.681 82.8234 382.556V344.665C82.8894 346.349 81.8163 348.05 79.5874 349.337C75.2452 351.847 68.2284 351.847 63.8863 349.337C61.7235 348.083 60.6338 346.448 60.6338 344.814V333.587C60.6338 335.221 61.7235 336.872 63.8863 338.111C68.2284 340.62 75.2452 340.62 79.5874 338.111C81.6842 336.905 82.7573 335.32 82.8234 333.735V322.723C82.8894 324.407 81.8163 326.108 79.5874 327.396C75.2452 329.905 68.2284 329.905 63.8863 327.396C61.7235 326.141 60.6338 324.506 60.6338 322.872V311.645C60.6338 313.279 61.7235 314.93 63.8863 316.169C68.2284 318.678 75.2452 318.678 79.5874 316.169C81.6842 314.963 82.7573 313.378 82.8234 311.793V301.161C82.8894 302.845 81.8163 304.546 79.5874 305.833C75.2452 308.343 68.2284 308.343 63.8863 305.833C61.7235 304.579 60.6338 302.944 60.6338 301.31V301.326Z" fill="url(#paint15_linear_22_1758)"/>
<path d="M79.571 326.867C75.2288 329.377 68.212 329.377 63.8699 326.867C61.8226 325.679 60.7495 324.16 60.6339 322.608C60.5018 324.341 61.575 326.091 63.8699 327.412C68.212 329.922 75.2288 329.922 79.571 327.412C81.8659 326.091 82.9226 324.341 82.807 322.608C82.6914 324.16 81.6183 325.679 79.571 326.867Z" fill="white"/>
<path d="M79.571 348.809C75.2288 351.319 68.212 351.319 63.8699 348.809C61.8226 347.62 60.7495 346.102 60.6339 344.55C60.5018 346.283 61.575 348.033 63.8699 349.354C68.212 351.864 75.2288 351.864 79.571 349.354C81.8659 348.033 82.9226 346.283 82.807 344.55C82.6914 346.102 81.6183 347.62 79.571 348.809Z" fill="white"/>
<path opacity="0.48" d="M79.5874 294.639C75.2452 297.149 68.2284 297.149 63.8863 294.639C61.7235 293.385 60.6338 291.75 60.6338 290.116V301.326C60.6338 302.961 61.7235 304.595 63.8863 305.85C68.2284 308.359 75.2452 308.359 79.5874 305.85C81.8163 304.562 82.8894 302.862 82.8234 301.177V290.264C82.7573 291.849 81.6842 293.434 79.5874 294.639Z" fill="url(#paint16_linear_22_1758)"/>
<path opacity="0.48" d="M79.5874 316.202C75.2452 318.711 68.2284 318.711 63.8863 316.202C61.7235 314.947 60.6338 313.312 60.6338 311.678V322.888C60.6338 324.523 61.7235 326.157 63.8863 327.412C68.2284 329.922 75.2452 329.922 79.5874 327.412C81.8163 326.124 82.8894 324.424 82.8234 322.74V311.827C82.7573 313.412 81.6842 314.996 79.5874 316.202Z" fill="url(#paint17_linear_22_1758)"/>
<path opacity="0.48" d="M79.5874 338.127C75.2452 340.637 68.2284 340.637 63.8863 338.127C61.7235 336.872 60.6338 335.238 60.6338 333.603V344.814C60.6338 346.448 61.7235 348.083 63.8863 349.337C68.2284 351.847 75.2452 351.847 79.5874 349.337C81.8163 348.05 82.8894 346.349 82.8234 344.665V333.752C82.7573 335.337 81.6842 336.922 79.5874 338.127Z" fill="url(#paint18_linear_22_1758)"/>
<path d="M31.6257 225.561C31.1139 225.28 30.6021 224.983 30.1233 224.67L24.6914 193.944L31.4936 153.164L50.3977 132.56L69.8796 113.656L100.886 100.794L101.695 100.48C103.164 101.223 104.551 102.115 105.839 103.139C113.598 102.164 121.342 101.207 129.101 100.233C127.797 97.0464 126.245 94.1241 124.429 91.565L128.144 90.1121L114.259 82.1047C114.094 82.0057 113.929 81.9066 113.763 81.824L113.235 81.5268H113.202C101.265 75.1044 85.0029 76.2601 67.0729 86.612C30.437 107.761 0.71875 159.24 0.71875 201.572C0.71875 222.573 8.03273 237.366 19.887 244.366L19.9861 244.432C20.1181 244.515 20.2667 244.597 20.3988 244.663L35.1423 253.1L34.3829 248.824C36.2155 248.972 38.1142 248.972 40.0624 248.857C35.9678 241.658 30.4535 233.668 31.6257 225.561Z" fill="url(#paint19_linear_22_1758)"/>
<path d="M133.443 126.632C133.443 126.055 133.476 125.493 133.476 124.915C133.476 115.323 131.908 107.068 129.118 100.216C121.358 101.19 113.615 102.148 105.855 103.122C113.317 109.016 117.825 119.566 117.825 133.946C117.825 166.29 95.1068 205.633 67.1056 221.813C53.2867 229.788 40.772 230.613 31.6254 225.561C30.4532 233.651 35.9676 241.642 40.0621 248.857C46.2203 248.477 52.8739 246.777 59.8412 243.623L57.6453 246.083C57.6453 246.083 85.2503 236.507 85.8281 235.896C86.406 235.286 118.535 202.827 118.535 202.827L139.519 157.556L133.427 126.649L133.443 126.632Z" fill="url(#paint20_linear_22_1758)"/>
<path opacity="0.5" d="M112.026 190.683C131.836 156.372 131.833 119.285 112.02 107.846C92.2075 96.4069 60.0874 114.948 40.2779 149.259C20.4684 183.57 20.4711 220.658 40.2838 232.097C60.0966 243.536 92.2167 224.994 112.026 190.683Z" fill="url(#paint21_linear_22_1758)"/>
<path opacity="0.48" d="M107.616 188.285C127.426 153.974 127.423 116.886 107.611 105.447C87.7979 94.0085 55.6777 112.55 35.8682 146.861C16.0587 181.172 16.0614 218.26 35.8741 229.699C55.6869 241.137 87.807 222.596 107.616 188.285Z" fill="url(#paint22_linear_22_1758)"/>
<path d="M81.6841 95.0156C45.0317 116.182 15.3135 167.66 15.3135 209.992C15.3135 252.324 45.0317 269.478 81.6841 248.312C118.337 227.146 148.055 175.667 148.055 133.336C148.055 91.0036 118.337 73.8496 81.6841 95.0156ZM81.6841 230.233C53.6665 246.413 30.9651 233.304 30.9651 200.944C30.9651 168.585 53.683 129.258 81.6841 113.078C109.702 96.8977 132.403 110.007 132.403 142.367C132.403 174.726 109.685 214.053 81.6841 230.233Z" fill="#BCBEFF"/>
<path d="M81.6841 95.0156C45.0317 116.182 15.3135 167.66 15.3135 209.992C15.3135 252.324 45.0317 269.478 81.6841 248.312C118.337 227.146 148.055 175.667 148.055 133.336C148.055 91.0036 118.337 73.8496 81.6841 95.0156ZM81.6841 230.233C53.6665 246.413 30.9651 233.304 30.9651 200.944C30.9651 168.585 53.683 129.258 81.6841 113.078C109.702 96.8977 132.403 110.007 132.403 142.367C132.403 174.726 109.685 214.053 81.6841 230.233Z" fill="#BCBEFF"/>
<path d="M16.3206 211.115C16.3206 168.783 46.0388 117.304 82.6913 96.1384C105.261 83.1119 125.172 84.6143 137.175 97.5582C125.304 83.5742 104.897 81.5929 81.6841 94.9991C45.0317 116.165 15.3135 167.644 15.3135 209.976C15.3135 226.255 19.7217 238.786 27.2173 246.876C20.3325 238.769 16.3206 226.651 16.3206 211.115Z" fill="white"/>
<path d="M82.6914 231.373C110.709 215.193 133.427 175.866 133.427 143.506C133.427 130.975 130.009 121.349 124.198 115.175C129.382 121.366 132.42 130.578 132.42 142.367C132.42 174.71 109.702 214.054 81.7008 230.234C64.5302 240.14 49.374 239.05 40.1943 229.276C49.2419 240.074 64.8935 241.642 82.7079 231.356L82.6914 231.373Z" fill="white"/>
<defs>
<linearGradient id="paint0_linear_22_1758" x1="103.841" y1="127.425" x2="330.244" y2="431.062" gradientUnits="userSpaceOnUse">
<stop stop-color="#BCDBFF"/>
<stop offset="0.48" stop-color="#5761D7"/>
<stop offset="0.58" stop-color="#5B65D8"/>
<stop offset="0.68" stop-color="#6A72DE"/>
<stop offset="0.8" stop-color="#8188E8"/>
<stop offset="0.92" stop-color="#A2A6F5"/>
<stop offset="1" stop-color="#8386FF"/>
</linearGradient>
<linearGradient id="paint1_linear_22_1758" x1="91.1777" y1="223.828" x2="293.988" y2="223.828" gradientUnits="userSpaceOnUse">
<stop stop-color="#42E8E0"/>
<stop offset="0.15" stop-color="#42E3DF"/>
<stop offset="0.33" stop-color="#44D4DE"/>
<stop offset="0.52" stop-color="#48BDDD"/>
<stop offset="0.72" stop-color="#4D9BDA"/>
<stop offset="0.93" stop-color="#5471D8"/>
<stop offset="1" stop-color="#5761D7"/>
</linearGradient>
<linearGradient id="paint2_linear_22_1758" x1="102.636" y1="232.215" x2="312.331" y2="232.215" gradientUnits="userSpaceOnUse">
<stop stop-color="#42E8E0"/>
<stop offset="0.15" stop-color="#42E3DF"/>
<stop offset="0.33" stop-color="#44D4DE"/>
<stop offset="0.52" stop-color="#48BDDD"/>
<stop offset="0.72" stop-color="#4D9BDA"/>
<stop offset="0.93" stop-color="#5471D8"/>
<stop offset="1" stop-color="#5761D7"/>
</linearGradient>
<linearGradient id="paint3_linear_22_1758" x1="104.418" y1="243.937" x2="339.82" y2="243.937" gradientUnits="userSpaceOnUse">
<stop stop-color="#42E8E0"/>
<stop offset="0.15" stop-color="#42E3DF"/>
<stop offset="0.33" stop-color="#44D4DE"/>
<stop offset="0.52" stop-color="#48BDDD"/>
<stop offset="0.72" stop-color="#4D9BDA"/>
<stop offset="0.93" stop-color="#5471D8"/>
<stop offset="1" stop-color="#5761D7"/>
</linearGradient>
<linearGradient id="paint4_linear_22_1758" x1="106.185" y1="258.499" x2="365.542" y2="258.499" gradientUnits="userSpaceOnUse">
<stop stop-color="#42E8E0"/>
<stop offset="0.15" stop-color="#42E3DF"/>
<stop offset="0.33" stop-color="#44D4DE"/>
<stop offset="0.52" stop-color="#48BDDD"/>
<stop offset="0.72" stop-color="#4D9BDA"/>
<stop offset="0.93" stop-color="#5471D8"/>
<stop offset="1" stop-color="#5761D7"/>
</linearGradient>
<linearGradient id="paint5_linear_22_1758" x1="107.886" y1="275.323" x2="388.442" y2="275.323" gradientUnits="userSpaceOnUse">
<stop stop-color="#42E8E0"/>
<stop offset="0.15" stop-color="#42E3DF"/>
<stop offset="0.33" stop-color="#44D4DE"/>
<stop offset="0.52" stop-color="#48BDDD"/>
<stop offset="0.72" stop-color="#4D9BDA"/>
<stop offset="0.93" stop-color="#5471D8"/>
<stop offset="1" stop-color="#5761D7"/>
</linearGradient>
<linearGradient id="paint6_linear_22_1758" x1="109.438" y1="293.682" x2="407.577" y2="293.682" gradientUnits="userSpaceOnUse">
<stop stop-color="#42E8E0"/>
<stop offset="0.15" stop-color="#42E3DF"/>
<stop offset="0.33" stop-color="#44D4DE"/>
<stop offset="0.52" stop-color="#48BDDD"/>
<stop offset="0.72" stop-color="#4D9BDA"/>
<stop offset="0.93" stop-color="#5471D8"/>
<stop offset="1" stop-color="#5761D7"/>
</linearGradient>
<linearGradient id="paint7_linear_22_1758" x1="110.792" y1="312.834" x2="422.123" y2="312.834" gradientUnits="userSpaceOnUse">
<stop stop-color="#42E8E0"/>
<stop offset="0.15" stop-color="#42E3DF"/>
<stop offset="0.33" stop-color="#44D4DE"/>
<stop offset="0.52" stop-color="#48BDDD"/>
<stop offset="0.72" stop-color="#4D9BDA"/>
<stop offset="0.93" stop-color="#5471D8"/>
<stop offset="1" stop-color="#5761D7"/>
</linearGradient>
<linearGradient id="paint8_linear_22_1758" x1="111.881" y1="331.952" x2="431.484" y2="331.952" gradientUnits="userSpaceOnUse">
<stop stop-color="#42E8E0"/>
<stop offset="0.15" stop-color="#42E3DF"/>
<stop offset="0.33" stop-color="#44D4DE"/>
<stop offset="0.52" stop-color="#48BDDD"/>
<stop offset="0.72" stop-color="#4D9BDA"/>
<stop offset="0.93" stop-color="#5471D8"/>
<stop offset="1" stop-color="#5761D7"/>
</linearGradient>
<linearGradient id="paint9_linear_22_1758" x1="112.657" y1="350.279" x2="435.298" y2="350.279" gradientUnits="userSpaceOnUse">
<stop stop-color="#42E8E0"/>
<stop offset="0.15" stop-color="#42E3DF"/>
<stop offset="0.33" stop-color="#44D4DE"/>
<stop offset="0.52" stop-color="#48BDDD"/>
<stop offset="0.72" stop-color="#4D9BDA"/>
<stop offset="0.93" stop-color="#5471D8"/>
<stop offset="1" stop-color="#5761D7"/>
</linearGradient>
<linearGradient id="paint10_linear_22_1758" x1="63.6221" y1="219.139" x2="292.436" y2="219.139" gradientUnits="userSpaceOnUse">
<stop stop-color="#42B6E8"/>
<stop offset="0.15" stop-color="#42BCE3"/>
<stop offset="0.33" stop-color="#44B9DE"/>
<stop offset="0.52" stop-color="#48A7DD"/>
<stop offset="0.72" stop-color="#4D9BDA"/>
<stop offset="0.93" stop-color="#5471D8"/>
<stop offset="1" stop-color="#5761D7"/>
</linearGradient>
<linearGradient id="paint11_linear_22_1758" x1="-1342.53" y1="-593.05" x2="-1225.16" y2="-369.056" gradientUnits="userSpaceOnUse">
<stop stop-color="#5761D7"/>
<stop offset="1" stop-color="#5761D7"/>
</linearGradient>
<linearGradient id="paint12_linear_22_1758" x1="1371.95" y1="1051.87" x2="1387.65" y2="1060.93" gradientUnits="userSpaceOnUse">
<stop stop-color="#5761D7"/>
<stop offset="0.16" stop-color="#5E67D9"/>
<stop offset="0.41" stop-color="#7179E1"/>
<stop offset="0.69" stop-color="#9197EE"/>
<stop offset="1" stop-color="#BCBEFF"/>
</linearGradient>
<linearGradient id="paint13_linear_22_1758" x1="1381.29" y1="1078.82" x2="1396.99" y2="1087.88" gradientUnits="userSpaceOnUse">
<stop stop-color="#5761D7"/>
<stop offset="0.16" stop-color="#5E67D9"/>
<stop offset="0.41" stop-color="#7179E1"/>
<stop offset="0.69" stop-color="#9197EE"/>
<stop offset="1" stop-color="#BCBEFF"/>
</linearGradient>
<linearGradient id="paint14_linear_22_1758" x1="1390.8" y1="1106.23" x2="1406.5" y2="1115.3" gradientUnits="userSpaceOnUse">
<stop stop-color="#312ECD"/>
<stop offset="0.16" stop-color="#4652E3"/>
<stop offset="0.41" stop-color="#7179E1"/>
<stop offset="0.69" stop-color="#9197EE"/>
<stop offset="1" stop-color="#BCBEFF"/>
</linearGradient>
<linearGradient id="paint15_linear_22_1758" x1="30.8826" y1="318.232" x2="91.5407" y2="318.232" gradientUnits="userSpaceOnUse">
<stop stop-color="#5761D7"/>
<stop offset="0.16" stop-color="#5E67D9"/>
<stop offset="0.41" stop-color="#7179E1"/>
<stop offset="0.69" stop-color="#9197EE"/>
<stop offset="1" stop-color="#BCBEFF"/>
</linearGradient>
<linearGradient id="paint16_linear_22_1758" x1="60.6338" y1="298.916" x2="82.8234" y2="298.916" gradientUnits="userSpaceOnUse">
<stop stop-color="#42E8E0"/>
<stop offset="0.15" stop-color="#42E3DF"/>
<stop offset="0.33" stop-color="#44D4DE"/>
<stop offset="0.52" stop-color="#48BDDD"/>
<stop offset="0.72" stop-color="#4D9BDA"/>
<stop offset="0.93" stop-color="#5471D8"/>
<stop offset="1" stop-color="#5761D7"/>
</linearGradient>
<linearGradient id="paint17_linear_22_1758" x1="60.6338" y1="320.478" x2="82.8234" y2="320.478" gradientUnits="userSpaceOnUse">
<stop stop-color="#42E8E0"/>
<stop offset="0.15" stop-color="#42E3DF"/>
<stop offset="0.33" stop-color="#44D4DE"/>
<stop offset="0.52" stop-color="#48BDDD"/>
<stop offset="0.72" stop-color="#4D9BDA"/>
<stop offset="0.93" stop-color="#5471D8"/>
<stop offset="1" stop-color="#5761D7"/>
</linearGradient>
<linearGradient id="paint18_linear_22_1758" x1="60.6338" y1="342.403" x2="82.8234" y2="342.403" gradientUnits="userSpaceOnUse">
<stop stop-color="#42E8E0"/>
<stop offset="0.15" stop-color="#42E3DF"/>
<stop offset="0.33" stop-color="#44D4DE"/>
<stop offset="0.52" stop-color="#48BDDD"/>
<stop offset="0.72" stop-color="#4D9BDA"/>
<stop offset="0.93" stop-color="#5471D8"/>
<stop offset="1" stop-color="#5761D7"/>
</linearGradient>
<linearGradient id="paint19_linear_22_1758" x1="-7.93255" y1="204.081" x2="135.474" y2="120.953" gradientUnits="userSpaceOnUse">
<stop stop-color="#5761D7"/>
<stop offset="0.16" stop-color="#5E67D9"/>
<stop offset="0.41" stop-color="#7179E1"/>
<stop offset="0.69" stop-color="#9197EE"/>
<stop offset="1" stop-color="#BCBEFF"/>
</linearGradient>
<linearGradient id="paint20_linear_22_1758" x1="149.309" y1="130.364" x2="20.2004" y2="224.884" gradientUnits="userSpaceOnUse">
<stop stop-color="#5761D7"/>
<stop offset="0.16" stop-color="#5E67D9"/>
<stop offset="0.41" stop-color="#7179E1"/>
<stop offset="0.69" stop-color="#9197EE"/>
<stop offset="1" stop-color="#BCBEFF"/>
</linearGradient>
<linearGradient id="paint21_linear_22_1758" x1="25.4171" y1="169.97" x2="126.872" y2="169.97" gradientUnits="userSpaceOnUse">
<stop stop-color="#42E8E0"/>
<stop offset="0.15" stop-color="#42E3DF"/>
<stop offset="0.33" stop-color="#44D4DE"/>
<stop offset="0.52" stop-color="#48BDDD"/>
<stop offset="0.72" stop-color="#4D9BDA"/>
<stop offset="0.93" stop-color="#5471D8"/>
<stop offset="1" stop-color="#5761D7"/>
</linearGradient>
<linearGradient id="paint22_linear_22_1758" x1="21.0119" y1="167.573" x2="122.467" y2="167.573" gradientUnits="userSpaceOnUse">
<stop stop-color="#42E8E0"/>
<stop offset="0.15" stop-color="#42E3DF"/>
<stop offset="0.33" stop-color="#44D4DE"/>
<stop offset="0.52" stop-color="#48BDDD"/>
<stop offset="0.72" stop-color="#4D9BDA"/>
<stop offset="0.93" stop-color="#5471D8"/>
<stop offset="1" stop-color="#5761D7"/>
</linearGradient>
</defs>
</svg>
