<svg width="338" height="299" viewBox="0 0 338 299" fill="none" xmlns="http://www.w3.org/2000/svg">
<path d="M151.4 86.9364C151.36 86.9364 151.321 86.9283 151.284 86.9128L129.709 77.6211C129.582 77.5665 129.511 77.4303 129.54 77.2952C129.567 77.1598 129.686 77.063 129.824 77.063H171.908C172.045 77.063 172.164 77.1584 172.192 77.2926C172.221 77.4265 172.153 77.5625 172.028 77.6191L151.52 86.9105C151.481 86.9278 151.44 86.9364 151.4 86.9364ZM131.235 77.645L151.397 86.3274L170.56 77.645H131.235Z" fill="white" fill-opacity="0.19"/>
<path d="M181.155 88.4001C181.071 88.4001 180.99 88.3641 180.934 88.2989L171.687 77.5438C171.613 77.4573 171.596 77.336 171.644 77.2325C171.691 77.1291 171.794 77.063 171.908 77.063H213.044C213.186 77.063 213.308 77.1662 213.331 77.3067C213.354 77.4472 213.272 77.584 213.137 77.6294L181.248 88.3846C181.217 88.3952 181.186 88.4001 181.155 88.4001ZM172.541 77.645L181.247 87.7707L211.271 77.645H172.541Z" fill="white" fill-opacity="0.19"/>
<path d="M68.1794 90.7298C68.1136 90.7298 68.0486 90.7074 67.9963 90.6648C67.9282 90.6094 67.8882 90.5263 67.8882 90.4386V77.3536C67.8882 77.1927 68.0184 77.0625 68.1791 77.0625H129.824C129.973 77.0625 130.098 77.1749 130.113 77.3232C130.129 77.4712 130.03 77.6074 129.884 77.6381L68.2392 90.7232C68.2196 90.7281 68.1992 90.7298 68.1794 90.7298ZM68.4702 77.6448V90.0797L127.052 77.6448H68.4702Z" fill="white" fill-opacity="0.19"/>
<path d="M250.465 89.4997C250.436 89.4997 250.406 89.4951 250.377 89.4861L212.956 77.6312C212.819 77.5881 212.734 77.4513 212.756 77.3096C212.778 77.1676 212.9 77.063 213.044 77.063H262.036C262.153 77.063 262.259 77.1331 262.305 77.2409C262.35 77.3489 262.326 77.4734 262.244 77.557L250.673 89.412C250.618 89.4689 250.543 89.4997 250.465 89.4997ZM214.926 77.6447L250.382 88.8772L261.346 77.6447H214.926Z" fill="white" fill-opacity="0.19"/>
<path d="M68.1795 90.73C68.1556 90.73 68.1318 90.7271 68.1079 90.7208L16.6191 77.6358C16.4768 77.5996 16.3837 77.4633 16.4021 77.3179C16.4202 77.1725 16.5441 77.063 16.6909 77.063H68.1798C68.3407 77.063 68.4709 77.1932 68.4709 77.3541V90.4391C68.4709 90.5291 68.4295 90.6136 68.3582 90.6688C68.3062 90.709 68.2436 90.73 68.1795 90.73ZM19.0168 77.645L67.8883 90.0649V77.645H19.0168Z" fill="white" fill-opacity="0.19"/>
<path d="M290.932 91.7177C290.888 91.7177 290.845 91.708 290.804 91.6884L261.909 77.6156C261.787 77.5562 261.723 77.4208 261.753 77.2886C261.784 77.1564 261.901 77.063 262.037 77.063H315.271C315.403 77.063 315.518 77.1512 315.552 77.2785C315.587 77.4056 315.531 77.5401 315.416 77.6056L291.077 91.6784C291.032 91.7048 290.982 91.7177 290.932 91.7177ZM263.298 77.645L290.92 91.0976L314.186 77.645H263.298Z" fill="white" fill-opacity="0.19"/>
<path d="M107.26 102.797C107.232 102.797 107.203 102.792 107.175 102.783L68.0937 90.7165C67.967 90.6774 67.8828 90.5579 67.8891 90.4254C67.8949 90.2929 67.9897 90.1814 68.1193 90.1538L129.764 77.0688C129.886 77.0435 130.013 77.099 130.076 77.2076C130.139 77.3168 130.125 77.4539 130.041 77.5479L107.477 102.7C107.42 102.763 107.341 102.797 107.26 102.797ZM69.3347 90.4912L107.168 102.173L129.012 77.8238L69.3347 90.4912Z" fill="white" fill-opacity="0.19"/>
<path d="M125.279 127.598C125.186 127.598 125.099 127.554 125.044 127.478L107.025 102.677C106.971 102.603 106.955 102.508 106.982 102.42C107.009 102.333 107.076 102.263 107.162 102.232L151.301 86.3714C151.42 86.3306 151.549 86.3662 151.628 86.4639C151.705 86.5613 151.712 86.6976 151.645 86.8025L125.524 127.464C125.472 127.545 125.384 127.595 125.288 127.598C125.285 127.598 125.282 127.598 125.279 127.598ZM107.723 102.648L125.264 126.792L150.691 87.2088L107.723 102.648Z" fill="white" fill-opacity="0.19"/>
<path d="M193.562 113.689C193.508 113.689 193.454 113.674 193.406 113.643L151.244 86.8911C151.131 86.8204 151.082 86.683 151.122 86.5571C151.162 86.4315 151.283 86.3416 151.413 86.3545L181.168 87.8182C181.274 87.8237 181.369 87.8855 181.415 87.9806L193.823 113.269C193.881 113.386 193.853 113.527 193.756 113.614C193.702 113.663 193.632 113.689 193.562 113.689ZM152.486 86.9899L192.846 112.598L180.969 88.391L152.486 86.9899Z" fill="white" fill-opacity="0.19"/>
<path d="M193.562 113.689C193.482 113.689 193.404 113.655 193.347 113.594C193.264 113.502 193.247 113.368 193.307 113.259L212.788 77.2156C212.854 77.0931 212.997 77.0345 213.132 77.0765L250.553 88.9314C250.669 88.9682 250.75 89.0731 250.755 89.195C250.762 89.3165 250.691 89.4292 250.579 89.4766L193.676 113.665C193.64 113.681 193.601 113.689 193.562 113.689ZM213.185 77.7041L194.213 112.805L249.627 89.2487L213.185 77.7041Z" fill="white" fill-opacity="0.19"/>
<path d="M271.803 113.689C271.72 113.689 271.64 113.653 271.585 113.59L250.246 89.4015C250.169 89.3138 250.152 89.1876 250.203 89.0822C250.254 88.9767 250.36 88.904 250.481 88.9189L290.947 91.1367C291.058 91.1428 291.156 91.2115 291.199 91.3138C291.242 91.4164 291.224 91.5342 291.151 91.6181L272.023 113.589C271.968 113.652 271.888 113.689 271.805 113.689C271.804 113.689 271.804 113.689 271.803 113.689ZM251.143 89.5374L271.802 112.956L290.321 91.6848L251.143 89.5374Z" fill="white" fill-opacity="0.19"/>
<path d="M33.7611 108.631C33.6582 108.631 33.5588 108.576 33.5059 108.48L16.4353 77.4943C16.3793 77.3929 16.389 77.2679 16.46 77.1762C16.531 77.0845 16.6497 77.0425 16.7618 77.0721L68.2506 90.1571C68.3676 90.1867 68.4541 90.2856 68.4682 90.4055C68.4817 90.5253 68.4205 90.6414 68.313 90.6969L33.8948 108.597C33.8525 108.62 33.8065 108.631 33.7611 108.631ZM17.2688 77.8013L33.8784 107.951L67.3675 90.5334L17.2688 77.8013Z" fill="white" fill-opacity="0.19"/>
<path d="M12.4134 100.313C12.2817 100.313 12.1662 100.224 12.1323 100.097L5.48776 75.1525C5.4616 75.0547 5.48803 74.9507 5.55729 74.8774C5.62684 74.8038 5.72858 74.7705 5.82802 74.7926L16.7496 77.0697C16.9048 77.1018 17.0056 77.2527 16.976 77.4085L12.699 100.076C12.674 100.21 12.5599 100.308 12.424 100.313C12.4205 100.313 12.4168 100.313 12.4134 100.313ZM6.17147 75.4582L12.3648 98.7092L16.3515 77.5806L6.17147 75.4582Z" fill="white" fill-opacity="0.19"/>
<path d="M0.697057 93.9304C0.684124 93.9304 0.671224 93.9295 0.658291 93.9278C0.513732 93.9085 0.405945 93.7852 0.405945 93.6392V69.4364C0.405945 69.316 0.480099 69.2079 0.592758 69.1648C0.706278 69.1217 0.832728 69.1522 0.913198 69.2419L5.9851 74.8819C6.0512 74.9555 6.07563 75.0578 6.04948 75.1532L0.977574 93.716C0.9428 93.8442 0.826384 93.9304 0.697057 93.9304ZM0.987923 70.1954V91.4706L5.44624 75.1532L0.987923 70.1954Z" fill="white" fill-opacity="0.19"/>
<path d="M12.4133 141.731C12.386 141.731 12.3582 141.727 12.3311 141.719C12.2073 141.683 12.1222 141.569 12.1222 141.44V100.021C12.1222 99.9252 12.1696 99.8349 12.2489 99.7809C12.3283 99.7263 12.4297 99.7151 12.5188 99.7498L33.8664 108.068C33.9477 108.1 34.0104 108.166 34.0374 108.249C34.0644 108.333 34.0523 108.424 34.0052 108.497L12.6576 141.598C12.6036 141.683 12.5102 141.731 12.4133 141.731ZM12.7045 100.447V140.452L33.3235 108.481L12.7045 100.447Z" fill="white" fill-opacity="0.19"/>
<path d="M76.5957 135.501C76.5422 135.501 76.4882 135.486 76.4411 135.456L33.6063 108.586C33.518 108.53 33.4657 108.432 33.47 108.328C33.4743 108.223 33.5338 108.129 33.6267 108.081L68.0449 90.1808C68.1274 90.1382 68.2239 90.1371 68.3064 90.177C68.3895 90.2173 68.4478 90.2943 68.465 90.3851L76.8817 135.156C76.9032 135.27 76.8549 135.385 76.7595 135.45C76.7101 135.484 76.6532 135.501 76.5957 135.501ZM34.346 108.363L76.187 134.61L67.9656 90.878L34.346 108.363Z" fill="white" fill-opacity="0.19"/>
<path d="M1.00347 144.984C0.9914 144.984 0.979904 144.984 0.967547 144.982C0.822413 144.964 0.712905 144.841 0.712043 144.695L0.405705 93.6409C0.40513 93.538 0.458857 93.4423 0.547086 93.3894C0.635316 93.3369 0.745102 93.334 0.835918 93.3837L12.5524 99.7656C12.6691 99.8291 12.728 99.9641 12.6949 100.093L1.28483 144.765C1.25178 144.895 1.13481 144.984 1.00347 144.984ZM0.990841 94.1306L1.2808 142.431L12.0756 100.168L0.990841 94.1306Z" fill="white" fill-opacity="0.19"/>
<path d="M11.2293 190.033C11.0948 190.033 10.9761 189.94 10.9456 189.807L0.719298 144.758C0.685098 144.607 0.774788 144.456 0.923371 144.414L12.3334 141.161C12.4225 141.136 12.518 141.154 12.5915 141.211C12.6645 141.268 12.7065 141.355 12.7042 141.448L11.5204 189.75C11.5167 189.896 11.4046 190.017 11.2583 190.032C11.2485 190.033 11.2391 190.033 11.2293 190.033ZM1.34811 144.898L10.9962 187.398L12.113 141.829L1.34811 144.898Z" fill="white" fill-opacity="0.19"/>
<path d="M0.404627 199.358C0.360943 199.358 0.316678 199.349 0.276156 199.328C0.175568 199.279 0.11233 199.176 0.11348 199.064L0.712122 144.69C0.713847 144.542 0.82596 144.419 0.972818 144.404C1.11766 144.389 1.25504 144.486 1.28722 144.63L11.5135 190.469C11.538 190.578 11.4977 190.691 11.4098 190.76L0.584809 199.295C0.532503 199.337 0.469003 199.358 0.404627 199.358ZM1.26681 147.21L0.702369 198.462L10.9057 190.416L1.26681 147.21Z" fill="white" fill-opacity="0.19"/>
<path d="M76.5957 135.501C76.4893 135.501 76.3899 135.443 76.3388 135.347C76.2801 135.237 76.2982 135.102 76.3836 135.011L107.047 102.307C107.108 102.243 107.191 102.213 107.278 102.215C107.365 102.221 107.444 102.264 107.495 102.334L125.514 127.136C125.574 127.218 125.586 127.324 125.548 127.418C125.51 127.511 125.426 127.578 125.326 127.594L76.642 135.497C76.627 135.5 76.6112 135.501 76.5957 135.501ZM107.232 102.962L77.3926 134.786L124.766 127.095L107.232 102.962Z" fill="white" fill-opacity="0.19"/>
<path d="M46.4059 164.111C46.3777 164.111 46.3493 164.107 46.3214 164.098C46.2214 164.068 46.1452 163.986 46.1222 163.885L33.4772 108.404C33.4511 108.29 33.4965 108.17 33.5922 108.102C33.6882 108.034 33.8155 108.03 33.9152 108.093L76.75 134.964C76.8262 135.012 76.8762 135.092 76.8848 135.181C76.894 135.271 76.861 135.36 76.7954 135.421L46.6056 164.031C46.551 164.083 46.4792 164.111 46.4059 164.111ZM34.2006 108.959L46.5763 163.258L76.1232 135.258L34.2006 108.959Z" fill="white" fill-opacity="0.19"/>
<path d="M174.174 156.808C174.122 156.808 174.071 156.794 174.025 156.767L125.13 127.557C125.027 127.495 124.972 127.377 124.992 127.258C125.013 127.14 125.104 127.046 125.221 127.022L193.504 113.112C193.611 113.09 193.721 113.131 193.79 113.216C193.858 113.301 193.873 113.417 193.827 113.517L174.439 156.636C174.405 156.712 174.34 156.77 174.261 156.794C174.233 156.804 174.204 156.808 174.174 156.808ZM126.073 127.442L174.043 156.1L193.064 113.796L126.073 127.442Z" fill="white" fill-opacity="0.19"/>
<path d="M235.45 135.248C235.404 135.248 235.358 135.237 235.317 135.215L193.429 113.656C193.329 113.604 193.267 113.499 193.271 113.386C193.276 113.274 193.344 113.174 193.448 113.129L250.351 88.941C250.456 88.8973 250.578 88.9172 250.662 88.9945C250.746 89.0718 250.777 89.191 250.741 89.2994L235.725 135.048C235.699 135.129 235.638 135.194 235.56 135.226C235.525 135.241 235.487 135.248 235.45 135.248ZM194.247 113.422L235.279 134.542L249.989 89.7276L194.247 113.422Z" fill="white" fill-opacity="0.19"/>
<path d="M315.271 104.837C315.247 104.837 315.222 104.834 315.199 104.828C315.07 104.795 314.98 104.679 314.98 104.546V77.3537C314.98 77.2543 315.03 77.1618 315.115 77.1083C315.198 77.0548 315.303 77.0479 315.394 77.0902L327.248 82.6147C327.322 82.6487 327.377 82.7113 327.402 82.7878C327.427 82.8642 327.419 82.9475 327.381 83.018L315.526 104.686C315.474 104.78 315.375 104.837 315.271 104.837ZM315.562 77.8104V103.408L326.722 83.0111L315.562 77.8104Z" fill="white" fill-opacity="0.19"/>
<path d="M315.271 104.837C315.199 104.837 315.128 104.81 315.072 104.758C314.975 104.668 314.952 104.522 315.016 104.406L326.87 82.7383C326.919 82.6489 327.012 82.5914 327.114 82.5874C327.195 82.5814 327.312 82.6328 327.369 82.7184L333.906 92.6867C333.949 92.7519 333.964 92.8312 333.948 92.9074C333.931 92.9836 333.885 93.05 333.819 93.0919L315.427 104.791C315.379 104.822 315.325 104.837 315.271 104.837ZM327.148 83.4432L316.069 103.694L333.258 92.7594L327.148 83.4432Z" fill="white" fill-opacity="0.19"/>
<path d="M333.663 125.543C333.582 125.543 333.502 125.509 333.446 125.445L315.053 104.739C314.997 104.675 314.971 104.59 314.983 104.505C314.995 104.421 315.043 104.346 315.115 104.3L333.507 92.6009C333.597 92.544 333.711 92.5402 333.803 92.5911C333.896 92.6423 333.954 92.74 333.954 92.8463V125.252C333.954 125.373 333.88 125.481 333.767 125.524C333.733 125.537 333.698 125.543 333.663 125.543ZM315.715 104.608L333.372 124.486V93.3763L315.715 104.608Z" fill="white" fill-opacity="0.19"/>
<path d="M298.941 128.252C298.922 128.252 298.903 128.251 298.884 128.247C298.77 128.224 298.681 128.137 298.657 128.024L290.648 91.489C290.623 91.3778 290.666 91.2628 290.757 91.1944C290.847 91.1266 290.97 91.116 291.07 91.1709L315.409 104.29C315.482 104.329 315.535 104.398 315.554 104.479C315.573 104.559 315.557 104.644 315.51 104.713L299.18 128.128C299.124 128.207 299.035 128.252 298.941 128.252ZM291.352 91.9839L299.083 127.249L314.846 104.647L291.352 91.9839Z" fill="white" fill-opacity="0.19"/>
<path d="M315.271 147.04C315.187 147.04 315.106 147.003 315.051 146.94L298.721 128.152C298.649 128.069 298.63 127.953 298.671 127.851C298.713 127.749 298.808 127.68 298.918 127.671L333.64 124.962C333.766 124.953 333.869 125.016 333.922 125.12C333.976 125.225 333.961 125.352 333.884 125.441L315.492 146.938C315.436 147.003 315.362 147.062 315.271 147.04ZM299.539 128.206L315.269 146.303L332.985 125.597L299.539 128.206Z" fill="white" fill-opacity="0.19"/>
<path d="M269.433 146.25C269.38 146.25 269.328 146.236 269.281 146.207C269.188 146.15 269.134 146.046 269.142 145.938L271.513 113.377C271.521 113.278 271.577 113.19 271.663 113.143C271.749 113.095 271.853 113.094 271.941 113.141L299.078 127.705C299.17 127.754 299.228 127.849 299.231 127.954C299.234 128.058 299.181 128.156 299.092 128.21L269.584 146.207C269.538 146.235 269.485 146.25 269.433 146.25ZM272.061 113.866L269.764 145.416L298.355 127.978L272.061 113.866Z" fill="white" fill-opacity="0.19"/>
<path d="M269.433 146.25C269.402 146.25 269.373 146.245 269.343 146.235L235.36 135.234C235.251 135.199 235.172 135.103 235.16 134.99C235.148 134.876 235.203 134.766 235.301 134.707L271.655 113.147C271.747 113.093 271.865 113.093 271.956 113.15C272.049 113.207 272.101 113.311 272.094 113.419L269.723 145.98C269.716 146.069 269.669 146.15 269.595 146.2C269.546 146.233 269.49 146.25 269.433 146.25ZM236.152 134.879L269.17 145.568L271.473 113.932L236.152 134.879Z" fill="white" fill-opacity="0.19"/>
<path d="M97.9343 180.233C97.9326 180.233 97.9309 180.233 97.9292 180.233C97.8188 180.231 97.7194 180.167 97.6717 180.067L76.333 135.336C76.2933 135.253 76.2956 135.157 76.3376 135.075C76.3801 134.994 76.4586 134.938 76.5491 134.923L125.233 127.02C125.341 127.003 125.451 127.048 125.515 127.136C125.58 127.225 125.588 127.343 125.537 127.441L98.1924 180.076C98.1424 180.172 98.043 180.233 97.9343 180.233ZM77.0253 135.435L97.9456 179.289L124.754 127.687L77.0253 135.435Z" fill="white" fill-opacity="0.19"/>
<path d="M11.2296 190.823C11.1845 190.823 11.139 190.812 11.0971 190.791C10.9976 190.74 10.9358 190.637 10.9384 190.526L12.1222 141.434C12.1248 141.328 12.1846 141.232 12.2783 141.183C12.3719 141.135 12.4849 141.14 12.5731 141.198L46.5657 163.577C46.6448 163.629 46.6933 163.716 46.6965 163.81C46.6999 163.905 46.6571 163.995 46.5818 164.052L11.4054 190.764C11.354 190.803 11.2919 190.823 11.2296 190.823ZM12.6916 141.972L11.5351 189.935L45.9024 163.837L12.6916 141.972Z" fill="white" fill-opacity="0.19"/>
<path d="M0.59083 245.987C0.564103 245.987 0.537108 245.984 0.510667 245.976C0.386226 245.94 0.300293 245.827 0.299718 245.697L0.113467 199.069C0.112892 198.929 0.211775 198.808 0.349149 198.781C0.486523 198.756 0.623016 198.829 0.674747 198.96L12.121 227.727C12.1555 227.814 12.1466 227.912 12.0969 227.99L0.836581 245.851C0.782551 245.937 0.688831 245.987 0.59083 245.987ZM0.701795 200.601L0.877662 244.695L11.5259 227.805L0.701795 200.601Z" fill="white" fill-opacity="0.19"/>
<path d="M0.404544 288.032C0.355687 288.032 0.306825 288.02 0.262567 287.995C0.170313 287.943 0.113138 287.846 0.113713 287.74L0.299929 245.695C0.300504 245.552 0.405131 245.431 0.546241 245.408C0.687351 245.387 0.824121 245.47 0.867804 245.607L12.1282 280.539C12.169 280.666 12.1181 280.805 12.0046 280.875L0.558309 287.988C0.511177 288.017 0.457999 288.032 0.404544 288.032ZM0.873558 247.522L0.697691 287.217L11.5042 280.501L0.873558 247.522Z" fill="white" fill-opacity="0.19"/>
<path d="M11.8509 228.126C11.7991 228.126 11.7477 228.112 11.7017 228.085C11.6152 228.033 11.5618 227.941 11.56 227.839L10.9387 189.747C10.937 189.647 10.9864 189.554 11.0697 189.499C11.1531 189.444 11.2583 189.436 11.3494 189.477L50.9516 207.338C51.0533 207.384 51.1197 207.484 51.1229 207.595C51.1258 207.707 51.0648 207.81 50.966 207.861L11.9851 228.093C11.9431 228.115 11.8971 228.126 11.8509 228.126ZM11.5278 190.195L12.1342 227.359L50.165 207.621L11.5278 190.195Z" fill="white" fill-opacity="0.19"/>
<path d="M11.851 280.919C11.7259 280.919 11.6133 280.839 11.5742 280.718L0.313822 245.785C0.282209 245.687 0.304922 245.58 0.373322 245.503C0.441147 245.426 0.545744 245.392 0.646331 245.41L16.1139 248.414C16.265 248.443 16.3671 248.585 16.3469 248.738L12.1398 280.666C12.1223 280.801 12.0131 280.906 11.8774 280.918C11.8685 280.919 11.8596 280.919 11.851 280.919ZM1.0188 246.075L11.7317 279.308L15.7342 248.933L1.0188 246.075Z" fill="white" fill-opacity="0.19"/>
<path d="M16.058 248.99C16.0066 248.99 15.9557 248.977 15.9106 248.95C15.8393 248.909 15.7893 248.838 15.7729 248.757L11.5658 227.893C11.5459 227.793 11.579 227.691 11.6534 227.622C11.7276 227.553 11.8339 227.527 11.9302 227.555L48.8562 237.988C48.9798 238.023 49.066 238.135 49.0683 238.263C49.0703 238.391 48.9882 238.506 48.8657 238.545L16.1468 248.977C16.1175 248.986 16.0879 248.99 16.058 248.99ZM12.2302 228.244L16.279 248.324L47.7661 238.284L12.2302 228.244Z" fill="white" fill-opacity="0.19"/>
<path d="M5.81705 295.523C5.72451 295.523 5.63627 295.479 5.58109 295.402L0.168607 287.911C0.121474 287.846 0.103376 287.764 0.118895 287.685C0.134415 287.606 0.182398 287.536 0.251085 287.494L11.6974 280.381C11.804 280.314 11.942 280.324 12.0388 280.406C12.1351 280.487 12.1678 280.622 12.1196 280.739L6.08575 295.343C6.0458 295.44 5.95556 295.508 5.85066 295.521C5.83945 295.522 5.82855 295.523 5.81705 295.523ZM0.82303 287.823L5.74748 294.638L11.237 281.352L0.82303 287.823Z" fill="white" fill-opacity="0.19"/>
<path d="M16.058 298.148C16.0339 298.148 16.0097 298.145 15.9858 298.139L5.74488 295.514C5.66297 295.493 5.59457 295.438 5.55663 295.362C5.51898 295.286 5.51581 295.199 5.548 295.121L11.5818 280.517C11.6298 280.401 11.7488 280.327 11.8727 280.338C11.9983 280.348 12.1035 280.437 12.1333 280.56L16.3405 297.788C16.3646 297.887 16.335 297.992 16.2623 298.064C16.2077 298.118 16.1336 298.148 16.058 298.148ZM6.2139 295.033L15.6602 297.455L11.7795 281.563L6.2139 295.033Z" fill="white" fill-opacity="0.19"/>
<path d="M44.9836 298.698C44.9818 298.698 44.9798 298.698 44.9781 298.698L16.0528 298.148C15.9333 298.146 15.8275 298.07 15.7859 297.958C15.7442 297.846 15.7747 297.72 15.8635 297.641L33.5663 281.677C33.6289 281.62 33.7126 281.591 33.7962 281.604C33.8796 281.614 33.9549 281.66 34.002 281.729L45.2244 298.243C45.2856 298.333 45.2914 298.45 45.2394 298.546C45.1885 298.639 45.0899 298.698 44.9836 298.698ZM16.7998 297.58L44.4269 298.105L33.708 282.332L16.7998 297.58Z" fill="white" fill-opacity="0.19"/>
<path d="M44.9835 298.698C44.8413 298.698 44.7194 298.595 44.6964 298.454C44.6732 298.314 44.7554 298.177 44.8904 298.131L100.844 279.246C100.956 279.209 101.078 279.241 101.155 279.329C101.233 279.417 101.251 279.542 101.2 279.647L92.1905 298.463C92.1422 298.564 92.0405 298.628 91.9284 298.628L44.9835 298.698ZM100.377 280.018L46.7634 298.113L91.7445 298.046L100.377 280.018Z" fill="white" fill-opacity="0.19"/>
<path d="M91.9279 298.628C91.8284 298.628 91.7359 298.577 91.6824 298.493C91.6284 298.408 91.6221 298.301 91.6655 298.211L100.675 279.396C100.738 279.264 100.892 279.2 101.028 279.245L156.983 297.58C157.118 297.625 157.202 297.761 157.18 297.901C157.158 298.042 157.037 298.146 156.894 298.147L91.9302 298.628C91.9296 298.628 91.9287 298.628 91.9279 298.628ZM101.09 279.878L92.3917 298.043L155.11 297.579L101.09 279.878Z" fill="white" fill-opacity="0.19"/>
<path d="M33.7609 282.184C33.7554 282.184 33.7497 282.184 33.7442 282.183L11.8342 280.918C11.7535 280.914 11.6782 280.876 11.6267 280.813C11.5753 280.751 11.552 280.67 11.5626 280.59L15.7698 248.661C15.7862 248.536 15.8819 248.436 16.0063 248.413C16.1313 248.391 16.2552 248.451 16.3153 248.562L34.0181 281.756C34.0676 281.848 34.063 281.961 34.0063 282.049C33.9526 282.134 33.8601 282.184 33.7609 282.184ZM12.1803 280.356L33.2603 281.572L16.2279 249.637L12.1803 280.356Z" fill="white" fill-opacity="0.19"/>
<path d="M44.9835 298.698C44.8993 298.698 44.8174 298.662 44.7611 298.595C44.6841 298.503 44.6709 298.374 44.7275 298.268L63.0629 264.367C63.133 264.237 63.2905 264.182 63.4267 264.235L101.046 279.251C101.159 279.297 101.232 279.408 101.229 279.53C101.225 279.651 101.146 279.759 101.031 279.797L45.0764 298.683C45.0459 298.693 45.0149 298.698 44.9835 298.698ZM63.4514 264.872L45.5911 297.895L100.096 279.499L63.4514 264.872Z" fill="white" fill-opacity="0.19"/>
<path d="M33.7608 282.183C33.6953 282.183 33.6298 282.161 33.5766 282.118C33.4823 282.041 33.4459 281.913 33.4858 281.798L48.5018 238.172C48.5392 238.063 48.6372 237.987 48.7515 237.977C48.8702 237.972 48.9757 238.026 49.0315 238.126L63.5733 264.364C63.6497 264.502 63.6023 264.677 63.4661 264.756L33.9083 282.143C33.8626 282.171 33.8117 282.183 33.7608 282.183ZM48.8395 238.98L34.2928 281.243L62.9272 264.399L48.8395 238.98Z" fill="white" fill-opacity="0.19"/>
<path d="M50.8318 207.894C50.7867 207.894 50.7419 207.883 50.7002 207.862C50.6119 207.818 50.5522 207.731 50.5421 207.632L46.1163 163.849C46.1065 163.752 46.1461 163.656 46.222 163.594C46.2982 163.533 46.3988 163.514 46.4927 163.542L98.0212 179.664C98.131 179.699 98.2106 179.795 98.2235 179.909C98.2368 180.023 98.181 180.134 98.0816 180.193L50.9795 207.853C50.9338 207.88 50.883 207.894 50.8318 207.894ZM46.7399 164.229L51.0758 207.122L97.2208 180.024L46.7399 164.229Z" fill="white" fill-opacity="0.19"/>
<path d="M48.7769 238.558C48.712 238.558 48.6476 238.537 48.5956 238.494C48.5209 238.435 48.4803 238.343 48.4864 238.248L50.5412 207.584C50.547 207.498 50.5898 207.42 50.6582 207.369C50.7269 207.319 50.8148 207.3 50.8973 207.319L107.326 220.439C107.454 220.469 107.546 220.581 107.551 220.713C107.555 220.845 107.469 220.963 107.343 221.001L48.86 238.546C48.8333 238.554 48.8051 238.558 48.7769 238.558ZM51.0994 207.964L49.0954 237.868L106.129 220.758L51.0994 207.964Z" fill="white" fill-opacity="0.19"/>
<path d="M100.938 279.813C100.902 279.813 100.865 279.806 100.83 279.792L63.211 264.776C63.1202 264.739 63.0535 264.66 63.034 264.564C63.0144 264.468 63.0443 264.368 63.1136 264.299L107.055 220.515C107.142 220.429 107.277 220.406 107.386 220.459C107.497 220.512 107.563 220.63 107.549 220.753L101.227 279.553C101.217 279.643 101.166 279.724 101.088 279.771C101.042 279.798 100.99 279.813 100.938 279.813ZM63.8378 264.399L100.69 279.109L106.883 221.508L63.8378 264.399Z" fill="white" fill-opacity="0.19"/>
<path d="M231.813 298.148H156.892C156.759 298.148 156.643 298.058 156.61 297.929C156.577 297.801 156.636 297.666 156.752 297.602L184.255 282.497C184.325 282.459 184.408 282.451 184.483 282.474L231.901 297.58C232.038 297.623 232.123 297.76 232.101 297.902C232.079 298.043 231.957 298.148 231.813 298.148ZM158.027 297.566H229.942L184.426 283.067L158.027 297.566Z" fill="white" fill-opacity="0.19"/>
<path d="M282.552 298.628C282.551 298.628 282.55 298.628 282.549 298.628L231.811 298.148C231.665 298.147 231.543 298.037 231.525 297.892C231.507 297.748 231.598 297.612 231.739 297.575L269.358 287.648C269.446 287.626 269.542 287.644 269.613 287.702L282.733 298.109C282.83 298.186 282.868 298.317 282.826 298.434C282.785 298.55 282.675 298.628 282.552 298.628ZM233.979 297.586L281.707 298.038L269.366 288.248L233.979 297.586Z" fill="white" fill-opacity="0.19"/>
<path d="M314.323 298.698H314.322L282.551 298.628C282.41 298.628 282.289 298.526 282.266 298.387C282.241 298.248 282.32 298.112 282.453 298.063L316.203 285.887C316.301 285.851 316.408 285.871 316.488 285.937C316.567 286.002 316.605 286.105 316.589 286.207L314.61 298.454C314.587 298.595 314.465 298.698 314.323 298.698ZM284.206 298.049L314.075 298.115L315.936 286.601L284.206 298.049Z" fill="white" fill-opacity="0.19"/>
<path d="M314.323 298.698C314.255 298.698 314.188 298.674 314.135 298.629C314.057 298.564 314.02 298.462 314.036 298.361L316.015 286.114C316.032 286.004 316.111 285.914 316.218 285.882C316.323 285.849 316.439 285.881 316.515 285.963L324.68 294.763C324.747 294.836 324.773 294.937 324.749 295.033C324.725 295.128 324.654 295.205 324.561 295.237L314.417 298.683C314.386 298.693 314.354 298.698 314.323 298.698ZM316.494 286.795L314.687 297.976L323.948 294.829L316.494 286.795Z" fill="white" fill-opacity="0.19"/>
<path d="M324.467 295.252C324.386 295.252 324.309 295.218 324.254 295.159L316.089 286.358C316.01 286.273 315.989 286.15 316.035 286.044C316.081 285.938 316.186 285.869 316.302 285.869H331.717C331.83 285.869 331.932 285.934 331.98 286.036C332.029 286.138 332.013 286.259 331.942 286.346L324.692 295.146C324.638 295.211 324.56 295.249 324.476 295.252C324.473 295.252 324.47 295.252 324.467 295.252ZM316.968 286.451L324.454 294.519L331.1 286.451H316.968Z" fill="white" fill-opacity="0.19"/>
<path d="M331.717 286.451C331.621 286.451 331.531 286.405 331.476 286.323L323.768 274.955C323.701 274.857 323.701 274.728 323.767 274.629C323.833 274.532 323.954 274.486 324.069 274.507L333.723 276.55C333.88 276.583 333.981 276.737 333.948 276.894L332.001 286.22C331.978 286.334 331.888 286.423 331.773 286.446C331.754 286.45 331.735 286.451 331.717 286.451ZM324.655 275.226L331.572 285.429L333.319 277.059L324.655 275.226Z" fill="white" fill-opacity="0.19"/>
<path d="M333.663 277.125C333.643 277.125 333.623 277.123 333.603 277.119L323.948 275.076C323.859 275.058 323.784 274.997 323.745 274.915C323.706 274.832 323.708 274.736 323.752 274.655L333.74 255.833C333.803 255.715 333.936 255.654 334.07 255.688C334.2 255.722 334.29 255.84 334.288 255.974L333.954 276.838C333.952 276.925 333.913 277.007 333.844 277.061C333.793 277.103 333.728 277.125 333.663 277.125ZM324.447 274.587L333.378 276.476L333.687 257.175L324.447 274.587Z" fill="white" fill-opacity="0.19"/>
<path d="M333.997 256.261C333.94 256.261 333.883 256.244 333.834 256.211L319.231 246.253C319.104 246.166 319.067 245.996 319.145 245.864L333.524 221.68C333.59 221.568 333.724 221.514 333.85 221.548C333.976 221.582 334.063 221.696 334.065 221.827L334.288 255.968C334.289 256.077 334.23 256.176 334.134 256.227C334.091 256.25 334.044 256.261 333.997 256.261ZM319.785 245.926L333.703 255.417L333.489 222.876L319.785 245.926Z" fill="white" fill-opacity="0.19"/>
<path d="M333.773 222.119C333.717 222.119 333.66 222.103 333.612 222.07L323.847 215.55C323.767 215.496 323.718 215.406 323.718 215.309C323.718 215.212 323.765 215.121 323.846 215.068L333.5 208.547C333.59 208.486 333.704 208.48 333.798 208.531C333.893 208.581 333.953 208.679 333.954 208.786L334.064 221.826C334.066 221.934 334.006 222.033 333.912 222.085C333.868 222.108 333.821 222.119 333.773 222.119ZM324.53 215.307L333.478 221.281L333.377 209.332L324.53 215.307Z" fill="white" fill-opacity="0.19"/>
<path d="M156.892 298.148C156.862 298.148 156.831 298.143 156.802 298.133L100.848 279.798C100.731 279.76 100.651 279.654 100.647 279.531C100.643 279.409 100.716 279.297 100.83 279.252L144.297 261.864C144.372 261.834 144.454 261.837 144.526 261.87C144.598 261.903 144.654 261.963 144.68 262.038L157.167 297.76C157.204 297.865 157.178 297.981 157.101 298.06C157.045 298.117 156.969 298.148 156.892 298.148ZM101.789 279.494L156.423 297.397L144.23 262.517L101.789 279.494Z" fill="white" fill-opacity="0.19"/>
<path d="M231.813 298.148C231.784 298.148 231.754 298.143 231.725 298.134L184.307 283.029C184.174 282.987 184.091 282.857 184.106 282.719C184.121 282.581 184.232 282.474 184.371 282.462L237.163 277.968C237.257 277.958 237.351 277.998 237.412 278.071C237.473 278.144 237.494 278.243 237.469 278.334L232.094 297.934C232.073 298.011 232.022 298.075 231.952 298.113C231.91 298.136 231.862 298.148 231.813 298.148ZM185.875 282.917L231.613 297.487L236.797 278.582L185.875 282.917Z" fill="white" fill-opacity="0.19"/>
<path d="M269.433 288.221C269.405 288.221 269.376 288.217 269.349 288.208L237.104 278.536C237.001 278.505 236.923 278.419 236.902 278.314C236.881 278.207 236.921 278.099 237.005 278.031L264.622 255.744C264.704 255.678 264.814 255.662 264.911 255.699C265.008 255.738 265.078 255.825 265.093 255.929L269.72 287.888C269.734 287.987 269.698 288.086 269.622 288.151C269.569 288.196 269.502 288.221 269.433 288.221ZM237.8 278.137L269.079 287.52L264.591 256.517L237.8 278.137Z" fill="white" fill-opacity="0.19"/>
<path d="M282.552 298.628C282.486 298.628 282.421 298.606 282.368 298.563C282.289 298.498 282.25 298.397 282.264 298.296L286.215 270.629C286.229 270.535 286.286 270.455 286.37 270.412C286.454 270.369 286.554 270.368 286.637 270.412L316.436 285.902C316.539 285.956 316.599 286.064 316.592 286.18C316.584 286.295 316.509 286.395 316.401 286.434L282.651 298.611C282.619 298.622 282.585 298.628 282.552 298.628ZM286.733 271.117L282.908 297.899L315.578 286.112L286.733 271.117Z" fill="white" fill-opacity="0.19"/>
<path d="M184.414 283.031C183.732 283.031 180.697 281.724 164.086 272.963C154.26 267.781 144.366 262.444 144.267 262.391C144.177 262.343 144.119 262.251 144.115 262.149C144.109 262.047 144.158 261.95 144.242 261.893L176.171 240.397C176.252 240.343 176.353 240.332 176.443 240.369C176.534 240.405 176.599 240.484 176.618 240.58C179.816 256.091 185.108 282.216 184.636 282.915C184.596 282.973 184.557 283.031 184.414 283.031ZM144.967 262.107C159.687 270.044 181.392 281.535 184.119 282.423C183.926 279.62 179.347 256.713 176.136 241.121L144.967 262.107Z" fill="white" fill-opacity="0.19"/>
<path d="M319.395 246.303C319.311 246.303 319.23 246.267 319.174 246.202L292.764 215.498C292.689 215.411 292.672 215.29 292.72 215.186C292.767 215.083 292.871 215.017 292.984 215.017H324.009C324.093 215.017 324.174 215.054 324.229 215.118C324.285 215.182 324.309 215.268 324.296 215.351L319.682 246.056C319.666 246.168 319.584 246.261 319.475 246.292C319.449 246.299 319.422 246.303 319.395 246.303ZM293.619 215.599L319.202 245.341L323.671 215.599H293.619Z" fill="white" fill-opacity="0.19"/>
<path d="M302.326 260.371C302.211 260.371 302.106 260.303 302.059 260.196C302.007 260.076 302.041 259.938 302.141 259.855L319.21 245.788C319.311 245.706 319.452 245.698 319.559 245.772L334.161 255.73C334.261 255.798 334.308 255.92 334.28 256.038C334.252 256.156 334.155 256.244 334.035 256.259L302.364 260.369C302.351 260.37 302.339 260.371 302.326 260.371ZM319.411 246.376L303.292 259.661L333.202 255.78L319.411 246.376Z" fill="white" fill-opacity="0.19"/>
<path d="M316.302 286.451C316.296 286.451 316.291 286.451 316.286 286.451C316.185 286.446 316.093 286.388 316.045 286.298L302.07 260.217C302.006 260.099 302.031 259.953 302.131 259.864C302.231 259.773 302.379 259.764 302.489 259.839L324.172 274.551C324.305 274.642 324.34 274.822 324.25 274.955L316.543 286.323C316.488 286.404 316.398 286.451 316.302 286.451ZM303.141 260.984L316.331 285.599L323.605 274.869L303.141 260.984Z" fill="white" fill-opacity="0.19"/>
<path d="M286.504 270.961C286.447 270.961 286.39 270.945 286.34 270.911L264.643 256.211C264.532 256.136 264.486 255.996 264.532 255.87C264.578 255.745 264.696 255.665 264.837 255.681L302.358 259.791C302.479 259.804 302.579 259.892 302.608 260.011C302.638 260.129 302.59 260.254 302.488 260.322L286.665 270.912C286.616 270.945 286.56 270.961 286.504 270.961ZM265.94 256.388L286.504 270.319L301.501 260.282L265.94 256.388Z" fill="white" fill-opacity="0.19"/>
<path d="M302.326 260.371C302.316 260.371 302.305 260.37 302.294 260.369L264.774 256.259C264.672 256.248 264.584 256.185 264.541 256.091C264.498 255.998 264.508 255.889 264.566 255.804L292.745 215.142C292.811 215.048 292.929 215 293.042 215.023C293.156 215.046 293.245 215.135 293.269 215.249L302.611 260.02C302.63 260.111 302.604 260.207 302.541 260.275C302.487 260.336 302.408 260.371 302.326 260.371ZM265.324 255.734L301.96 259.747L292.838 216.031L265.324 255.734Z" fill="white" fill-opacity="0.19"/>
<path d="M184.395 283.042C184.29 283.042 184.193 282.986 184.142 282.894C184.085 282.794 184.093 282.672 184.16 282.579L219.724 233.828C219.787 233.742 219.892 233.697 219.997 233.711C220.103 233.724 220.192 233.795 220.23 233.894L237.459 278.151C237.493 278.237 237.483 278.333 237.435 278.411C237.386 278.489 237.304 278.539 237.212 278.547L184.42 283.041C184.412 283.042 184.403 283.042 184.395 283.042ZM219.881 234.601L185.006 282.407L236.776 278L219.881 234.601Z" fill="white" fill-opacity="0.19"/>
<path d="M264.806 256.261C264.803 256.261 264.799 256.261 264.796 256.261C264.698 256.258 264.608 256.205 264.557 256.121L236.939 210.441C236.882 210.347 236.883 210.229 236.941 210.136C236.999 210.043 237.102 209.995 237.214 210L293.01 215.018C293.113 215.028 293.204 215.091 293.248 215.185C293.292 215.278 293.283 215.389 293.224 215.474L265.045 256.136C264.99 256.215 264.901 256.261 264.806 256.261ZM237.734 210.632L264.822 255.436L292.46 215.553L237.734 210.632Z" fill="white" fill-opacity="0.19"/>
<path d="M144.405 262.425C144.324 262.425 144.245 262.391 144.189 262.329L107.044 220.916C106.982 220.846 106.956 220.75 106.976 220.659C106.997 220.567 107.061 220.491 107.147 220.454L148.402 202.91C148.495 202.869 148.602 202.882 148.684 202.94C148.767 202.999 148.813 203.097 148.806 203.198L144.696 262.155C144.687 262.272 144.61 262.372 144.5 262.41C144.469 262.42 144.437 262.425 144.405 262.425ZM107.748 220.83L144.162 261.429L148.192 203.631L107.748 220.83Z" fill="white" fill-opacity="0.19"/>
<path d="M219.959 234.29C219.959 234.29 219.958 234.29 219.956 234.29C219.863 234.29 219.775 234.243 219.721 234.167L190.163 191.95C190.089 191.845 190.093 191.704 190.173 191.603C190.253 191.503 190.389 191.467 190.508 191.513L237.295 210.02C237.379 210.053 237.442 210.122 237.468 210.209C237.493 210.295 237.476 210.388 237.423 210.461L220.195 234.17C220.14 234.246 220.052 234.29 219.959 234.29ZM191.196 192.41L219.964 233.498L236.732 210.422L191.196 192.41Z" fill="white" fill-opacity="0.19"/>
<path d="M237.188 210.581C237.175 210.581 237.161 210.58 237.148 210.578C237.037 210.563 236.946 210.486 236.911 210.381L221.737 163.91C221.701 163.799 221.734 163.678 221.822 163.601C221.91 163.524 222.034 163.507 222.139 163.557L257.309 180.363C257.385 180.4 257.442 180.468 257.464 180.549C257.486 180.631 257.472 180.718 257.425 180.788L237.43 210.453C237.375 210.534 237.284 210.581 237.188 210.581ZM222.501 164.375L237.279 209.634L256.753 180.743L222.501 164.375Z" fill="white" fill-opacity="0.19"/>
<path d="M176.334 240.929C176.251 240.929 176.171 240.893 176.115 240.83C176.05 240.756 176.027 240.653 176.054 240.557L190.122 191.703C190.153 191.595 190.243 191.515 190.354 191.497C190.462 191.476 190.575 191.524 190.64 191.616L220.198 233.832C220.256 233.915 220.266 234.022 220.227 234.114C220.187 234.206 220.103 234.272 220.003 234.287L176.378 240.925C176.363 240.928 176.348 240.929 176.334 240.929ZM190.512 192.45L176.739 240.282L219.452 233.782L190.512 192.45Z" fill="white" fill-opacity="0.19"/>
<path d="M107.26 221.013C107.215 221.013 107.17 221.002 107.128 220.981C107.051 220.942 106.996 220.871 106.977 220.787L97.6508 180.006C97.6258 179.898 97.6648 179.786 97.7507 179.716C97.8373 179.645 97.9548 179.63 98.056 179.677L148.636 202.913C148.741 202.96 148.807 203.066 148.806 203.181C148.804 203.296 148.735 203.4 148.628 203.445L107.374 220.989C107.338 221.005 107.299 221.013 107.26 221.013ZM98.35 180.452L107.467 220.318L147.795 203.167L98.35 180.452Z" fill="white" fill-opacity="0.19"/>
<path d="M143.277 176.715C143.246 176.715 143.215 176.709 143.185 176.699C143.101 176.671 143.035 176.607 143.004 176.524L125.006 127.407C124.964 127.292 124.999 127.162 125.094 127.083C125.189 127.005 125.322 126.994 125.429 127.057L174.324 156.267C174.41 156.319 174.464 156.411 174.465 156.512C174.467 156.613 174.416 156.707 174.332 156.761L143.435 176.668C143.388 176.699 143.333 176.715 143.277 176.715ZM125.835 127.978L143.426 175.982L173.623 156.526L125.835 127.978Z" fill="white" fill-opacity="0.19"/>
<path d="M222.014 164.111C222 164.111 221.985 164.11 221.97 164.107L174.131 156.805C173.998 156.785 173.897 156.677 173.885 156.544C173.872 156.411 173.952 156.287 174.078 156.243L235.353 134.683C235.464 134.644 235.586 134.675 235.665 134.762C235.744 134.848 235.763 134.974 235.714 135.08L222.278 163.942C222.229 164.046 222.126 164.111 222.014 164.111ZM175.369 156.405L221.842 163.499L234.894 135.461L175.369 156.405Z" fill="white" fill-opacity="0.19"/>
<path d="M190.401 192.074C190.371 192.074 190.341 192.07 190.311 192.06L143.187 176.7C143.08 176.665 143.003 176.572 142.989 176.461C142.975 176.349 143.026 176.24 143.12 176.179L174.017 156.273C174.087 156.227 174.175 156.215 174.256 156.237C174.337 156.261 174.403 156.319 174.439 156.395L190.666 191.662C190.714 191.767 190.696 191.89 190.619 191.976C190.563 192.04 190.483 192.074 190.401 192.074ZM143.95 176.336L189.859 191.3L174.05 156.943L143.95 176.336Z" fill="white" fill-opacity="0.19"/>
<path d="M148.515 203.468C148.473 203.468 148.432 203.46 148.393 203.441L97.8128 180.206C97.6924 180.151 97.6248 180.021 97.6481 179.891C97.6714 179.76 97.78 179.662 97.9117 179.652L143.255 176.134C143.413 176.11 143.534 176.223 143.563 176.368L148.8 203.122C148.821 203.229 148.781 203.339 148.695 203.406C148.643 203.447 148.579 203.468 148.515 203.468ZM99.0744 180.145L148.12 202.676L143.042 176.734L99.0744 180.145Z" fill="white" fill-opacity="0.19"/>
<path d="M176.334 240.929C176.243 240.929 176.156 240.886 176.1 240.811L148.281 203.351C148.224 203.274 148.209 203.173 148.24 203.083C148.272 202.992 148.346 202.922 148.439 202.897L190.326 191.503C190.426 191.476 190.535 191.504 190.609 191.579C190.683 191.654 190.71 191.763 190.681 191.864L176.614 240.719C176.583 240.825 176.495 240.905 176.386 240.925C176.368 240.927 176.351 240.929 176.334 240.929ZM149.003 203.346L176.217 239.992L189.978 192.2L149.003 203.346Z" fill="white" fill-opacity="0.19"/>
<path d="M333.774 153.135C333.743 153.135 333.712 153.131 333.683 153.121L315.18 147.025C315.088 146.995 315.017 146.92 314.991 146.827C314.965 146.734 314.987 146.633 315.05 146.56L333.443 125.063C333.522 124.971 333.65 124.936 333.764 124.979C333.878 125.021 333.954 125.129 333.955 125.251L334.065 152.843C334.066 152.937 334.021 153.025 333.945 153.08C333.894 153.116 333.835 153.135 333.774 153.135ZM315.774 146.608L333.481 152.442L333.376 126.036L315.774 146.608Z" fill="white" fill-opacity="0.19"/>
<path d="M294.723 150.675C294.706 150.675 294.69 150.674 294.673 150.671L269.383 146.245C269.263 146.224 269.169 146.131 269.147 146.013C269.124 145.894 269.177 145.773 269.281 145.71L298.789 127.713C298.887 127.653 299.012 127.657 299.106 127.722C299.2 127.787 299.248 127.902 299.226 128.015L295.008 150.438C294.982 150.578 294.86 150.675 294.723 150.675ZM270.243 145.805L294.49 150.048L298.534 128.55L270.243 145.805Z" fill="white" fill-opacity="0.19"/>
<path d="M250.465 162.214C250.448 162.214 250.43 162.212 250.413 162.209C250.327 162.193 250.253 162.141 250.211 162.064L235.195 135.099C235.137 134.994 235.149 134.865 235.224 134.773C235.301 134.68 235.426 134.644 235.539 134.681L269.522 145.682C269.623 145.715 269.698 145.799 269.718 145.903C269.738 146.007 269.701 146.113 269.62 146.181L250.652 162.146C250.6 162.19 250.533 162.214 250.465 162.214ZM236.063 135.462L250.548 161.473L268.844 146.074L236.063 135.462Z" fill="white" fill-opacity="0.19"/>
<path d="M257.183 180.916C257.14 180.916 257.098 180.907 257.057 180.888L221.888 164.082C221.769 164.025 221.703 163.895 221.728 163.765C221.753 163.635 221.862 163.538 221.994 163.529L249.813 161.632C249.949 161.624 250.057 161.698 250.104 161.816L257.454 180.519C257.497 180.63 257.469 180.757 257.381 180.838C257.326 180.89 257.255 180.916 257.183 180.916ZM223.138 164.034L256.642 180.044L249.64 162.227L223.138 164.034Z" fill="white" fill-opacity="0.19"/>
<path d="M277.579 166.956C277.492 166.956 277.405 166.916 277.349 166.843L269.815 157.071C269.746 156.983 269.734 156.864 269.784 156.764C269.833 156.665 269.934 156.602 270.045 156.602H295.883C296.016 156.602 296.133 156.693 296.165 156.822C296.198 156.952 296.137 157.087 296.02 157.15L277.716 166.922C277.673 166.944 277.626 166.956 277.579 166.956ZM270.636 157.184L277.66 166.292L294.72 157.184H270.636Z" fill="white" fill-opacity="0.19"/>
<path d="M319.395 168.776C319.351 168.776 319.307 168.766 319.266 168.746L295.754 157.154C295.632 157.094 295.568 156.959 295.599 156.827C295.629 156.695 295.747 156.602 295.882 156.602H321.198C321.283 156.602 321.364 156.639 321.419 156.704C321.474 156.768 321.498 156.854 321.485 156.938L319.682 168.53C319.668 168.621 319.611 168.7 319.529 168.743C319.487 168.765 319.441 168.776 319.395 168.776ZM297.131 157.184L319.168 168.049L320.858 157.184H297.131Z" fill="white" fill-opacity="0.19"/>
<path d="M319.395 168.776C319.348 168.776 319.3 168.765 319.257 168.741C319.148 168.683 319.089 168.562 319.108 168.44L320.911 156.848C320.933 156.705 321.057 156.61 321.203 156.602L332.025 156.775C332.145 156.776 332.251 156.851 332.293 156.963C332.335 157.075 332.304 157.201 332.215 157.281L319.589 168.7C319.535 168.75 319.465 168.776 319.395 168.776ZM321.447 157.188L319.809 167.718L331.279 157.345L321.447 157.188Z" fill="white" fill-opacity="0.19"/>
<path d="M277.579 166.956C277.527 166.956 277.474 166.942 277.427 166.912L266.461 160.17C266.382 160.121 266.331 160.039 266.323 159.947C266.315 159.855 266.351 159.765 266.42 159.704L269.852 156.675C269.912 156.621 269.989 156.599 270.073 156.603C270.153 156.611 270.226 156.651 270.275 156.715L277.81 166.487C277.895 166.599 277.89 166.755 277.796 166.859C277.739 166.923 277.66 166.956 277.579 166.956ZM267.1 159.88L276.38 165.585L270.004 157.316L267.1 159.88Z" fill="white" fill-opacity="0.19"/>
<path d="M266.613 179.555C266.579 179.555 266.544 179.549 266.511 179.537C266.397 179.495 266.322 179.386 266.322 179.264V159.922C266.322 159.816 266.379 159.719 266.471 159.668C266.564 159.616 266.676 159.618 266.765 159.674L277.731 166.417C277.804 166.462 277.854 166.536 277.867 166.621C277.88 166.705 277.855 166.791 277.799 166.856L266.832 179.455C266.776 179.52 266.695 179.555 266.613 179.555ZM266.904 160.442V178.487L277.135 166.733L266.904 160.442Z" fill="white" fill-opacity="0.19"/>
<path d="M266.613 199.042C266.568 199.042 266.524 199.032 266.482 199.012C266.384 198.962 266.322 198.862 266.322 198.751V179.264C266.322 179.146 266.393 179.039 266.503 178.995C266.613 178.95 266.739 178.976 266.821 179.061L277.787 190.329C277.846 190.389 277.876 190.471 277.869 190.554C277.862 190.638 277.82 190.714 277.753 190.765L266.787 198.984C266.736 199.022 266.675 199.042 266.613 199.042ZM266.904 179.98V198.17L277.14 190.498L266.904 179.98Z" fill="white" fill-opacity="0.19"/>
<path d="M267.899 204.108C267.853 204.108 267.808 204.098 267.766 204.076C267.692 204.038 267.638 203.97 267.617 203.889L266.331 198.823C266.306 198.729 266.332 198.628 266.397 198.556C266.463 198.484 266.56 198.45 266.657 198.464L276.906 200.044C277.036 200.064 277.136 200.169 277.15 200.3C277.165 200.431 277.09 200.555 276.967 200.603L268.005 204.088C267.971 204.101 267.935 204.108 267.899 204.108ZM267.003 199.106L268.1 203.427L275.745 200.454L267.003 199.106Z" fill="white" fill-opacity="0.19"/>
<path d="M272.096 205.568C272.064 205.568 272.032 205.563 272 205.552L267.804 204.093C267.689 204.052 267.611 203.945 267.609 203.823C267.607 203.701 267.68 203.591 267.794 203.547L276.756 200.061C276.884 200.011 277.028 200.057 277.104 200.171C277.18 200.285 277.166 200.436 277.072 200.534L272.306 205.479C272.249 205.537 272.174 205.568 272.096 205.568ZM268.742 203.802L272.016 204.941L275.734 201.083L268.742 203.802Z" fill="white" fill-opacity="0.19"/>
<path d="M272.096 205.568C271.98 205.568 271.875 205.499 271.829 205.392C271.782 205.285 271.805 205.159 271.886 205.075L276.652 200.13C276.725 200.055 276.834 200.023 276.934 200.05L295.111 204.684C295.252 204.72 295.345 204.855 295.328 205C295.311 205.145 295.189 205.255 295.043 205.257L272.1 205.568C272.099 205.568 272.097 205.568 272.096 205.568ZM276.954 200.656L272.79 204.976L292.837 204.705L276.954 200.656Z" fill="white" fill-opacity="0.19"/>
<path d="M324.467 205.272L295.039 205.258C294.901 205.258 294.783 205.161 294.754 205.026C294.726 204.891 294.796 204.756 294.922 204.7L313.732 196.429C313.829 196.386 313.942 196.4 314.028 196.466L324.646 204.751C324.744 204.828 324.783 204.958 324.742 205.075C324.702 205.193 324.592 205.272 324.467 205.272ZM296.422 204.676L323.62 204.689L313.807 197.032L296.422 204.676Z" fill="white" fill-opacity="0.19"/>
<path d="M324.467 205.272C324.379 205.272 324.296 205.232 324.241 205.164C324.186 205.095 324.164 205.005 324.182 204.919L326.411 194.581C326.435 194.468 326.525 194.38 326.638 194.357C326.752 194.333 326.868 194.38 326.934 194.476L334.152 204.8C334.214 204.888 334.221 205.005 334.171 205.101C334.121 205.197 334.022 205.257 333.914 205.257L324.467 205.272ZM326.84 195.356L324.827 204.689L333.356 204.676L326.84 195.356Z" fill="white" fill-opacity="0.19"/>
<path d="M295.039 205.257C294.964 205.257 294.891 205.228 294.835 205.174C294.75 205.09 294.724 204.964 294.77 204.854L299.879 192.633C299.936 192.496 300.087 192.423 300.228 192.465L313.929 196.416C314.046 196.45 314.13 196.554 314.139 196.676C314.147 196.799 314.077 196.913 313.965 196.962L295.156 205.233C295.118 205.249 295.078 205.257 295.039 205.257ZM300.315 193.096L295.588 204.407L312.996 196.753L300.315 193.096Z" fill="white" fill-opacity="0.19"/>
<path d="M295.039 205.257C295.015 205.257 294.991 205.254 294.967 205.248L276.79 200.614C276.675 200.584 276.589 200.488 276.573 200.37C276.558 200.252 276.616 200.136 276.719 200.078L286.836 194.389C286.961 194.318 287.119 194.349 287.208 194.463L295.268 204.787C295.345 204.886 295.35 205.022 295.283 205.126C295.228 205.209 295.135 205.257 295.039 205.257ZM277.638 200.23L294.285 204.474L286.903 195.018L277.638 200.23Z" fill="white" fill-opacity="0.19"/>
<path d="M276.862 200.623C276.807 200.623 276.753 200.608 276.706 200.577C276.615 200.52 276.564 200.418 276.571 200.311L277.289 190.511C277.297 190.417 277.348 190.332 277.429 190.283C277.511 190.234 277.61 190.227 277.696 190.266L287.094 194.376C287.196 194.42 287.263 194.517 287.268 194.628C287.274 194.738 287.217 194.842 287.121 194.896L277.004 200.585C276.96 200.61 276.911 200.623 276.862 200.623ZM277.84 190.964L277.191 199.813L286.326 194.675L277.84 190.964Z" fill="white" fill-opacity="0.19"/>
<path d="M303.101 172.55C302.99 172.55 302.886 172.487 302.838 172.383L295.62 157.016C295.567 156.905 295.591 156.772 295.679 156.685C295.768 156.597 295.9 156.576 296.011 156.632L319.524 168.224C319.635 168.278 319.698 168.396 319.685 168.518C319.67 168.64 319.581 168.74 319.462 168.768L303.168 172.543C303.145 172.548 303.123 172.55 303.101 172.55ZM296.499 157.521L303.265 171.923L318.535 168.385L296.499 157.521Z" fill="white" fill-opacity="0.19"/>
<path d="M334.132 170.907C333.989 170.907 333.866 170.802 333.845 170.661L331.733 157.11C331.721 157.033 331.741 156.954 331.787 156.892C331.834 156.829 331.904 156.788 331.982 156.778L335.995 156.229C336.084 156.218 336.175 156.247 336.239 156.312C336.304 156.376 336.334 156.466 336.322 156.556L334.42 170.655C334.401 170.798 334.28 170.906 334.135 170.907C334.134 170.907 334.133 170.907 334.132 170.907ZM332.354 157.314L334.112 168.593L335.694 156.857L332.354 157.314Z" fill="white" fill-opacity="0.19"/>
<path d="M317.326 182.873C317.274 182.873 317.221 182.859 317.174 182.83C317.075 182.77 317.021 182.655 317.038 182.54L319.107 168.443C319.131 168.283 319.278 168.176 319.436 168.197L334.174 170.328C334.291 170.345 334.387 170.432 334.415 170.548C334.443 170.663 334.398 170.784 334.301 170.853L317.495 182.819C317.444 182.855 317.385 182.873 317.326 182.873ZM319.641 168.814L317.713 181.949L333.372 170.8L319.641 168.814Z" fill="white" fill-opacity="0.19"/>
<path d="M333.914 205.257C333.821 205.257 333.732 205.213 333.675 205.133L326.457 194.809C326.375 194.69 326.391 194.529 326.496 194.43C326.6 194.331 326.763 194.324 326.877 194.414L337.712 203.008C337.791 203.071 337.832 203.169 337.82 203.269C337.809 203.369 337.747 203.456 337.657 203.499L334.04 205.229C333.999 205.248 333.956 205.257 333.914 205.257ZM328.076 196.108L334.011 204.598L336.986 203.175L328.076 196.108Z" fill="white" fill-opacity="0.19"/>
<path d="M332.113 190.033C332.077 190.033 332.039 190.026 332.003 190.012C331.883 189.962 331.811 189.84 331.824 189.712L333.843 170.585C333.858 170.439 333.981 170.327 334.128 170.325C334.266 170.316 334.401 170.432 334.42 170.577L336.322 184.803C336.333 184.882 336.31 184.962 336.261 185.023L332.341 189.924C332.284 189.994 332.2 190.033 332.113 190.033ZM334.166 173.067L332.507 188.784L335.729 184.757L334.166 173.067Z" fill="white" fill-opacity="0.19"/>
<path d="M337.531 203.527C337.414 203.527 337.306 203.456 337.261 203.344L331.844 189.851C331.805 189.753 331.821 189.642 331.886 189.56L335.806 184.66C335.881 184.567 336.003 184.529 336.119 184.563C336.233 184.599 336.314 184.699 336.323 184.818L337.821 203.212C337.833 203.356 337.738 203.486 337.597 203.519C337.575 203.525 337.553 203.527 337.531 203.527ZM332.447 189.792L337.085 201.344L335.803 185.596L332.447 189.792Z" fill="white" fill-opacity="0.19"/>
<path d="M326.696 194.933C326.687 194.933 326.679 194.932 326.67 194.932C326.589 194.925 326.515 194.885 326.466 194.82L317.096 182.76C317.013 182.653 317.014 182.504 317.099 182.399C317.185 182.294 317.331 182.262 317.452 182.32L332.24 189.48C332.327 189.522 332.388 189.605 332.402 189.7C332.415 189.796 332.381 189.893 332.308 189.958L326.891 194.858C326.837 194.906 326.767 194.933 326.696 194.933ZM318.319 183.386L326.733 194.216L331.598 189.816L318.319 183.386Z" fill="white" fill-opacity="0.19"/>
<path d="M313.848 196.987C313.764 196.987 313.684 196.95 313.629 196.886C313.566 196.815 313.543 196.718 313.566 196.627L317.043 182.513C317.071 182.402 317.159 182.318 317.271 182.297C317.385 182.275 317.496 182.32 317.562 182.413L326.762 195.263C326.823 195.348 326.833 195.458 326.79 195.552C326.748 195.647 326.658 195.711 326.554 195.721L313.877 196.985C313.868 196.986 313.858 196.987 313.848 196.987ZM317.457 183.265L314.23 196.366L325.996 195.192L317.457 183.265Z" fill="white" fill-opacity="0.19"/>
<path d="M308.496 188.294C308.463 188.294 308.43 188.288 308.398 188.277C308.315 188.247 308.25 188.181 308.221 188.098L302.826 172.354C302.784 172.234 302.826 172.101 302.928 172.025C303.03 171.95 303.169 171.95 303.272 172.024L317.497 182.347C317.575 182.404 317.62 182.496 317.617 182.593C317.613 182.691 317.561 182.779 317.478 182.83L308.649 188.251C308.602 188.279 308.549 188.294 308.496 188.294ZM303.675 173.035L308.654 187.565L316.802 182.562L303.675 173.035Z" fill="white" fill-opacity="0.19"/>
<path d="M277.579 166.956C277.45 166.956 277.335 166.87 277.299 166.744C277.262 166.612 277.321 166.473 277.442 166.408L295.746 156.636C295.857 156.578 295.993 156.596 296.084 156.682C296.175 156.769 296.199 156.905 296.145 157.018L291.879 165.917C291.834 166.013 291.74 166.075 291.635 166.082L277.598 166.955C277.591 166.956 277.585 166.956 277.579 166.956ZM295.237 157.567L278.897 166.291L291.428 165.512L295.237 157.567Z" fill="white" fill-opacity="0.19"/>
<path d="M274.649 179.555H266.613C266.499 179.555 266.395 179.489 266.348 179.385C266.301 179.281 266.318 179.159 266.393 179.073L277.36 166.473C277.448 166.372 277.593 166.344 277.712 166.405C277.83 166.466 277.893 166.6 277.863 166.73L274.932 179.33C274.901 179.462 274.784 179.555 274.649 179.555ZM267.252 178.973H274.417L277.031 167.738L267.252 178.973Z" fill="white" fill-opacity="0.19"/>
<path d="M67.0753 72.833C67.0555 72.833 67.0354 72.831 67.0156 72.8267C66.8923 72.8008 66.7992 72.6982 66.7859 72.5724L65.0116 55.7633C64.9995 55.6535 65.0512 55.5469 65.1446 55.4877C65.2377 55.429 65.3561 55.427 65.4504 55.4834L73.9004 60.5524C74.0363 60.6337 74.0823 60.8085 74.0038 60.9456L67.328 72.6856C67.2759 72.7781 67.1779 72.833 67.0753 72.833ZM65.6516 56.2826L67.2696 71.6113L73.3578 60.905L65.6516 56.2826Z" fill="white" fill-opacity="0.19"/>
<path d="M65.301 56.0242C65.2363 56.0242 65.1725 56.0026 65.1202 55.9612C65.0509 55.9061 65.0098 55.8221 65.0098 55.7331V48.8287C65.0098 48.7287 65.061 48.6359 65.1458 48.5824C65.2311 48.5293 65.3372 48.5232 65.4265 48.5666L75.062 53.1899C75.1735 53.2431 75.2387 53.3606 75.2255 53.4833C75.2126 53.6058 75.1232 53.7069 75.0033 53.7351L65.3679 56.0158C65.3458 56.0216 65.3231 56.0242 65.301 56.0242ZM65.5918 49.2911V55.3652L74.0685 53.3589L65.5918 49.2911Z" fill="white" fill-opacity="0.19"/>
<path d="M74.9365 53.7431C74.8939 53.7431 74.8511 53.7336 74.8109 53.7144L65.1754 49.0911C65.0987 49.0543 65.0424 48.9865 65.0202 48.9049C64.9981 48.823 65.0122 48.7359 65.0599 48.666L67.3978 45.2061C67.4478 45.132 67.5292 45.0851 67.6183 45.0788C67.7051 45.0705 67.795 45.1075 67.8548 45.1739L75.1523 53.2571C75.2454 53.3603 75.2529 53.5149 75.1692 53.6262C75.1132 53.702 75.0258 53.7431 74.9365 53.7431ZM65.7307 48.7123L73.7311 52.551L67.672 45.8398L65.7307 48.7123Z" fill="white" fill-opacity="0.19"/>
<path d="M74.9363 53.743C74.8561 53.743 74.777 53.7096 74.7204 53.647L67.4229 45.5638C67.36 45.4939 67.3344 45.3979 67.3549 45.306C67.3753 45.2143 67.4385 45.1378 67.5253 45.1008L72.5434 42.9697C72.6225 42.9364 72.7133 42.9393 72.79 42.9789C72.8668 43.0183 72.9225 43.0902 72.9412 43.1744L75.2208 53.3886C75.2493 53.5177 75.1877 53.6499 75.0702 53.7105C75.028 53.7326 74.9817 53.743 74.9363 53.743ZM68.1288 45.477L74.4118 52.4365L72.4489 43.642L68.1288 45.477Z" fill="white" fill-opacity="0.19"/>
<path d="M89.3992 51.1349C89.3584 51.1349 89.3167 51.126 89.2787 51.1088L72.5366 43.5026C72.4174 43.4483 72.349 43.3207 72.3702 43.1911C72.3912 43.0615 72.4964 42.962 72.6266 42.9485L92.8053 40.8184C92.9031 40.8075 93.0025 40.8488 93.0646 40.9273C93.1264 41.0058 93.1436 41.1104 93.1106 41.2046L89.6739 50.941C89.6466 51.018 89.5886 51.0798 89.5135 51.1117C89.4765 51.1272 89.4377 51.1349 89.3992 51.1349ZM73.7503 43.4147L89.2302 50.4478L92.4076 41.4452L73.7503 43.4147Z" fill="white" fill-opacity="0.19"/>
<path d="M110.04 49.12C109.999 49.12 109.958 49.1113 109.92 49.0944L92.7161 41.3733C92.5963 41.3195 92.5276 41.1919 92.548 41.062C92.569 40.9321 92.6741 40.8321 92.8049 40.8186L127.213 37.1857C127.347 37.1745 127.472 37.2503 127.517 37.3765C127.563 37.5029 127.516 37.6438 127.404 37.7179L110.2 49.072C110.152 49.1036 110.096 49.12 110.04 49.12ZM93.9387 41.2839L110.013 48.498L126.087 37.8895L93.9387 41.2839Z" fill="white" fill-opacity="0.19"/>
<path d="M157.801 45.6601C157.777 45.6601 157.752 45.657 157.728 45.6506L127.171 37.7562C127.034 37.7212 126.943 37.5936 126.953 37.453C126.964 37.3131 127.073 37.2001 127.213 37.1855L159.906 33.7342C159.998 33.725 160.088 33.7583 160.15 33.8261C160.213 33.8937 160.239 33.9868 160.222 34.077L158.087 45.4227C158.072 45.5021 158.025 45.5713 157.957 45.6144C157.91 45.6449 157.855 45.6601 157.801 45.6601ZM128.873 37.5953L157.572 45.0098L159.578 34.3541L128.873 37.5953Z" fill="white" fill-opacity="0.19"/>
<path d="M157.801 45.6602C157.736 45.6602 157.67 45.638 157.618 45.5955C157.534 45.5283 157.495 45.4205 157.515 45.3156L159.65 33.9699C159.674 33.8434 159.777 33.7477 159.905 33.7342L193.532 30.184C193.677 30.17 193.809 30.2614 193.844 30.4013C193.88 30.541 193.808 30.6864 193.675 30.7416L157.913 45.6375C157.877 45.6527 157.839 45.6602 157.801 45.6602ZM160.182 34.2903L158.187 44.8934L191.608 30.9726L160.182 34.2903Z" fill="white" fill-opacity="0.19"/>
<path d="M91.7701 64.1703C91.7543 64.1703 91.7376 64.1689 91.7212 64.166L73.7023 61.0889C73.6226 61.0756 73.5522 61.0294 73.508 60.9621C73.4637 60.8949 73.4494 60.8121 73.4683 60.7336L75.2467 53.3838C75.2688 53.2925 75.3341 53.2174 75.4212 53.1824C75.5097 53.1467 75.6077 53.1574 75.687 53.2074L91.9279 63.6343C92.0437 63.709 92.0914 63.8553 92.0417 63.9843C91.9974 64.0979 91.8882 64.1703 91.7701 64.1703ZM74.1072 60.5678L90.4101 63.3518L75.716 53.9181L74.1072 60.5678Z" fill="white" fill-opacity="0.19"/>
<path d="M91.7701 64.1702C91.7155 64.1702 91.6609 64.155 91.6127 64.1242L75.3718 53.6973C75.2718 53.6329 75.2206 53.5136 75.2433 53.3967C75.2666 53.2797 75.358 53.1883 75.4752 53.1665L89.3451 50.5584C89.4224 50.5443 89.5003 50.5607 89.5638 50.6044C89.6276 50.6483 89.6713 50.7162 89.6854 50.7923L92.0564 63.8273C92.0768 63.9414 92.0279 64.0567 91.9319 64.1211C91.8831 64.1538 91.8265 64.1702 91.7701 64.1702ZM76.3026 53.603L91.3637 63.273L89.1649 51.1843L76.3026 53.603Z" fill="white" fill-opacity="0.19"/>
<path d="M91.7701 64.1701C91.7365 64.1701 91.7026 64.1643 91.6701 64.1525C91.573 64.1169 91.5025 64.033 91.4836 63.9313L89.1126 50.8962C89.0985 50.8163 89.1178 50.7336 89.1666 50.6689C89.2161 50.604 89.2899 50.5626 89.3707 50.5548L110.011 48.5396C110.143 48.5264 110.26 48.6 110.308 48.7178C110.357 48.8359 110.323 48.9724 110.225 49.0538L91.9552 64.104C91.9021 64.1474 91.8365 64.1701 91.7701 64.1701ZM89.7417 51.1029L91.9679 63.3395L109.118 49.2113L89.7417 51.1029Z" fill="white" fill-opacity="0.19"/>
<path d="M136.225 62.059C136.198 62.059 136.171 62.0553 136.144 62.0475C136.055 62.0217 135.984 61.9556 135.953 61.8691L126.971 37.5757C126.933 37.4743 126.955 37.3602 127.028 37.28C127.1 37.1995 127.214 37.1665 127.316 37.1932L157.874 45.0876C157.982 45.1155 158.064 45.2023 158.087 45.3118C158.109 45.4213 158.066 45.5333 157.978 45.6006L136.402 61.9998C136.35 62.0386 136.289 62.059 136.225 62.059ZM127.71 37.8953L136.362 61.2986L157.147 45.5003L127.71 37.8953Z" fill="white" fill-opacity="0.19"/>
<path d="M115.953 65.4791C115.832 65.4791 115.722 65.4038 115.679 65.2872L109.766 48.9279C109.726 48.8161 109.757 48.6911 109.846 48.612C109.934 48.5324 110.063 48.5155 110.169 48.5681L136.354 61.5074C136.467 61.5634 136.532 61.6858 136.513 61.8106C136.495 61.9353 136.398 62.0342 136.274 62.0551L116.002 65.4751C115.986 65.4777 115.969 65.4791 115.953 65.4791ZM110.559 49.4101L116.144 64.861L135.291 61.6309L110.559 49.4101Z" fill="white" fill-opacity="0.19"/>
<path d="M107.26 72.8329C107.257 72.8329 107.253 72.8328 107.25 72.8326L84.5284 71.9988C84.4146 71.9948 84.3143 71.925 84.2703 71.8198C84.2266 71.7149 84.2482 71.5942 84.3255 71.5106L91.5566 63.6814C91.6468 63.5828 91.794 63.5592 91.9124 63.6248L107.403 72.2877C107.52 72.3532 107.577 72.4909 107.541 72.6202C107.505 72.7463 107.39 72.8329 107.26 72.8329ZM85.1822 71.4404L106.065 72.2069L91.8279 64.245L85.1822 71.4404Z" fill="white" fill-opacity="0.19"/>
<path d="M203.323 41.3987C203.243 41.3987 203.165 41.3659 203.109 41.3044L193.348 30.67C193.274 30.5892 193.252 30.4734 193.29 30.3705C193.329 30.2676 193.423 30.1955 193.532 30.184L230.079 26.3255C230.216 26.3079 230.347 26.3959 230.388 26.5287C230.429 26.6614 230.371 26.8045 230.249 26.8706L203.462 41.3633C203.418 41.3875 203.37 41.3987 203.323 41.3987ZM194.167 30.7022L203.384 40.744L228.678 27.0589L194.167 30.7022Z" fill="white" fill-opacity="0.19"/>
<path d="M181.392 49.7016C181.375 49.7016 181.359 49.7001 181.343 49.6973L157.752 45.6556C157.624 45.6338 157.526 45.5303 157.512 45.4016C157.497 45.2728 157.57 45.1501 157.689 45.1004L193.451 30.2045C193.569 30.1565 193.704 30.189 193.786 30.2864C193.867 30.3839 193.876 30.5235 193.808 30.6304L181.637 49.5676C181.582 49.6521 181.489 49.7016 181.392 49.7016ZM158.839 45.2516L181.25 49.0909L192.813 31.1L158.839 45.2516Z" fill="white" fill-opacity="0.19"/>
<path d="M136.225 62.0592C136.102 62.0592 135.992 61.9816 135.951 61.8652C135.909 61.7459 135.948 61.6131 136.049 61.5367L157.624 45.1375C157.693 45.0854 157.781 45.0659 157.864 45.0851C157.949 45.1038 158.02 45.1587 158.059 45.2352L166.121 60.7866C166.167 60.8754 166.164 60.9817 166.113 61.068C166.062 61.1545 165.971 61.2085 165.871 61.2114L136.234 62.0589C136.231 62.0592 136.228 62.0592 136.225 62.0592ZM157.701 45.81L137.123 61.4513L165.39 60.6429L157.701 45.81Z" fill="white" fill-opacity="0.19"/>
<path d="M127.243 70.4584C127.126 70.4584 127.019 70.3874 126.974 70.2779C126.929 70.1658 126.957 70.0374 127.045 69.9549L136.026 61.5558C136.112 61.4759 136.237 61.4549 136.343 61.5024L153.651 69.1709C153.775 69.2261 153.845 69.36 153.818 69.493C153.792 69.6267 153.677 69.7238 153.541 69.7278L127.251 70.4584C127.249 70.4584 127.246 70.4584 127.243 70.4584ZM136.283 62.1125L128.003 69.8552L152.239 69.1818L136.283 62.1125Z" fill="white" fill-opacity="0.19"/>
<path d="M68.4811 72.9161C66.9869 72.9161 66.9007 72.8052 66.8501 72.7405C66.7904 72.6644 66.7682 72.5442 66.7984 72.4517C66.9559 71.9689 72.408 62.5412 73.4993 60.6559C73.5447 60.5775 73.6243 60.5246 73.7139 60.5131C73.8033 60.5025 73.8936 60.5323 73.9577 60.5973L84.7458 71.5036C84.8254 71.5843 84.8516 71.7039 84.8111 71.8102C84.7714 71.9166 84.6734 71.9901 84.5604 71.9982C74.7756 72.7267 70.4302 72.9161 68.4811 72.9161ZM67.4956 72.3462C69.2619 72.4508 78.0019 71.8965 83.8888 71.4642L73.8116 61.2773C71.482 65.3031 68.227 70.9696 67.4956 72.3462Z" fill="white" fill-opacity="0.19"/>
<path d="M256.788 39.1617C256.746 39.1617 256.705 39.1528 256.666 39.1353L229.988 26.8794C229.869 26.8245 229.801 26.6969 229.823 26.5676C229.844 26.4383 229.949 26.3391 230.079 26.3256L263.198 22.8292C263.296 22.8168 263.399 22.8619 263.461 22.9436C263.523 23.0255 263.536 23.1335 263.498 23.2286L257.057 38.981C257.027 39.0542 256.969 39.1123 256.895 39.1413C256.86 39.1551 256.824 39.1617 256.788 39.1617ZM231.195 26.7929L256.633 38.4795L262.775 23.4586L231.195 26.7929Z" fill="white" fill-opacity="0.19"/>
<path d="M256.788 39.1617C256.725 39.1617 256.662 39.1416 256.61 39.1008C256.506 39.0209 256.469 38.8818 256.518 38.7605L262.959 23.0082C262.999 22.9093 263.091 22.8404 263.198 22.8291L280.182 21.0361C280.311 21.0209 280.435 21.0973 280.484 21.2192C280.531 21.341 280.492 21.4798 280.387 21.5586L256.962 39.1039C256.91 39.1425 256.849 39.1617 256.788 39.1617ZM263.432 23.3896L257.455 38.0072L279.193 21.7258L263.432 23.3896Z" fill="white" fill-opacity="0.19"/>
<path d="M278.837 29.7967C278.793 29.7967 278.748 29.7863 278.707 29.7653C278.593 29.7079 278.529 29.5831 278.55 29.4572L279.925 21.2769C279.939 21.1958 279.986 21.1243 280.055 21.08C280.124 21.0358 280.208 21.0228 280.289 21.0444L285.446 22.4512C285.545 22.4782 285.623 22.5555 285.65 22.6546C285.677 22.7538 285.65 22.8598 285.579 22.934L279.047 29.7076C278.991 29.7659 278.915 29.7967 278.837 29.7967ZM280.446 21.6907L279.28 28.6278L284.819 22.8837L280.446 21.6907Z" fill="white" fill-opacity="0.19"/>
<path d="M278.838 29.7965C278.736 29.7965 278.639 29.7428 278.586 29.6519C278.521 29.5393 278.538 29.3973 278.628 29.3036L285.16 22.53C285.222 22.4665 285.315 22.4363 285.397 22.4421C285.485 22.4504 285.564 22.4981 285.613 22.572L288.485 26.9372C288.537 27.016 288.547 27.1145 288.514 27.2022C288.479 27.2899 288.405 27.356 288.314 27.3792L278.91 29.7876C278.886 29.7936 278.861 29.7965 278.838 29.7965ZM285.326 23.1956L279.759 28.9691L287.775 26.9165L285.326 23.1956Z" fill="white" fill-opacity="0.19"/>
<path d="M290.086 44.3794C289.998 44.3794 289.912 44.3395 289.856 44.2659L278.607 29.6833C278.547 29.606 278.531 29.5034 278.563 29.4111C278.594 29.3186 278.671 29.2479 278.766 29.224L288.17 26.8157C288.252 26.7944 288.338 26.8102 288.408 26.8582C288.477 26.9062 288.522 26.9821 288.531 27.0663L290.376 44.0573C290.39 44.1866 290.316 44.3099 290.195 44.3584C290.159 44.3725 290.122 44.3794 290.086 44.3794ZM279.338 29.6781L289.685 43.0925L287.989 27.4626L279.338 29.6781Z" fill="white" fill-opacity="0.19"/>
<path d="M292.175 64.1702C292.105 64.1702 292.034 64.1447 291.98 64.0952L282.792 55.8019C282.687 55.7079 282.665 55.5527 282.739 55.4332L289.838 43.9357C289.904 43.8297 290.029 43.7765 290.151 43.805C290.272 43.8326 290.362 43.9343 290.375 44.0582L292.464 63.8489C292.477 63.9685 292.414 64.084 292.307 64.1389C292.265 64.1596 292.22 64.1702 292.175 64.1702ZM283.362 55.5326L291.806 63.154L289.886 44.966L283.362 55.5326Z" fill="white" fill-opacity="0.19"/>
<path d="M293.214 74.0112C293.201 74.0112 293.188 74.0103 293.175 74.0086L284.423 72.8303C284.316 72.8159 284.226 72.7438 284.188 72.6429C284.151 72.542 284.173 72.4288 284.244 72.3483L291.958 63.6854C292.033 63.5992 292.153 63.5662 292.264 63.6018C292.374 63.6371 292.452 63.7337 292.464 63.8481L293.503 73.6896C293.513 73.7781 293.481 73.8663 293.417 73.9284C293.362 73.9819 293.289 74.0112 293.214 74.0112ZM285.043 72.3265L292.886 73.3824L291.955 64.5637L285.043 72.3265Z" fill="white" fill-opacity="0.19"/>
<path d="M270.698 49.1201C270.638 49.1201 270.579 49.1014 270.529 49.0658L256.618 39.1076C256.532 39.0461 256.487 38.9435 256.498 38.8392C256.51 38.7346 256.577 38.6443 256.674 38.6029L278.724 29.2379C278.831 29.1928 278.959 29.2161 279.043 29.3C279.127 29.3837 279.152 29.5098 279.106 29.6187L270.967 48.9419C270.932 49.0235 270.862 49.085 270.777 49.1089C270.751 49.1164 270.725 49.1201 270.698 49.1201ZM257.379 38.936L270.572 48.3803L278.291 30.0544L257.379 38.936Z" fill="white" fill-opacity="0.19"/>
<path d="M282.987 55.877C282.939 55.877 282.891 55.8655 282.846 55.8411L270.558 49.0839C270.453 49.0261 270.394 48.9097 270.41 48.791C270.425 48.672 270.512 48.5752 270.629 48.5464L290.016 43.8059C290.133 43.7786 290.252 43.822 290.321 43.9177C290.39 44.0131 290.395 44.141 290.333 44.2416L283.234 55.739C283.18 55.8276 283.084 55.877 282.987 55.877ZM271.494 48.9341L282.885 55.1979L289.466 44.5396L271.494 48.9341Z" fill="white" fill-opacity="0.19"/>
<path d="M230.11 48.7039C230.084 48.7039 230.059 48.7005 230.033 48.6936L203.246 41.388C203.132 41.3567 203.047 41.2587 203.034 41.1406C203.02 41.0228 203.08 40.9081 203.184 40.8512L229.971 26.3585C230.061 26.3105 230.17 26.3125 230.259 26.3646C230.347 26.4172 230.401 26.512 230.401 26.6146V48.4128C230.401 48.5033 230.359 48.589 230.286 48.6442C230.235 48.6835 230.173 48.7039 230.11 48.7039ZM204.1 41.0179L229.819 48.032V27.1029L204.1 41.0179Z" fill="white" fill-opacity="0.19"/>
<path d="M243.449 60.2633C243.38 60.2633 243.311 60.2383 243.259 60.1923L229.92 48.6331C229.841 48.5656 229.805 48.4612 229.824 48.3595C229.843 48.258 229.914 48.1738 230.012 48.1393L256.69 38.597C256.805 38.5539 256.937 38.5916 257.015 38.689C257.093 38.7858 257.101 38.9215 257.034 39.0264L243.695 60.128C243.65 60.1995 243.576 60.2478 243.492 60.2605C243.477 60.2622 243.463 60.2633 243.449 60.2633ZM230.677 48.5196L243.384 59.531L256.09 39.4293L230.677 48.5196Z" fill="white" fill-opacity="0.19"/>
<path d="M204.864 58.9564C204.828 58.9564 204.792 58.9498 204.757 58.9363L181.285 49.6813C181.173 49.6371 181.1 49.5287 181.101 49.4086C181.101 49.2885 181.176 49.181 181.289 49.1384L203.22 40.8356C203.305 40.8043 203.401 40.8135 203.478 40.8615C203.555 40.9098 203.605 40.9917 203.613 41.0822L205.154 58.6402C205.163 58.7408 205.119 58.8385 205.038 58.8989C204.987 58.9368 204.926 58.9564 204.864 58.9564ZM182.199 49.4158L204.533 58.2221L203.067 41.5153L182.199 49.4158Z" fill="white" fill-opacity="0.19"/>
<path d="M189.809 70.4582C189.774 70.4582 189.738 70.4519 189.704 70.4387L165.758 61.1918C165.658 61.1536 165.589 61.0645 165.574 60.9593C165.56 60.8544 165.604 60.7498 165.689 60.6866L181.218 49.1765C181.29 49.1233 181.385 49.1069 181.47 49.1302C181.557 49.1546 181.627 49.2176 181.661 49.3009L190.078 70.0579C190.122 70.1657 190.097 70.2887 190.016 70.3714C189.96 70.4281 189.885 70.4582 189.809 70.4582ZM166.46 60.8395L189.287 69.6538L181.264 49.8679L166.46 60.8395Z" fill="white" fill-opacity="0.19"/>
<path d="M172.975 70.4582C172.972 70.4582 172.968 70.4582 172.964 70.4579L153.522 69.7274C153.396 69.7228 153.288 69.6386 153.253 69.5179C153.219 69.3977 153.265 69.2684 153.367 69.1971L165.697 60.6808C165.824 60.5929 165.997 60.6196 166.093 60.7429L173.206 69.9898C173.274 70.0788 173.285 70.2004 173.233 70.3007C173.184 70.3979 173.084 70.4582 172.975 70.4582ZM154.418 69.1787L172.366 69.8533L165.8 61.3168L154.418 69.1787Z" fill="white" fill-opacity="0.19"/>
<path d="M284.462 72.8331C284.443 72.8331 284.426 72.8314 284.407 72.8279L264.558 69.0858C264.444 69.0642 264.353 68.9766 264.328 68.8631C264.303 68.7495 264.347 68.6317 264.442 68.5639L282.817 55.3501C282.902 55.288 283.012 55.2791 283.108 55.3217C283.203 55.3653 283.267 55.4567 283.276 55.5608L284.751 72.517C284.759 72.6075 284.724 72.6969 284.657 72.7581C284.603 72.8067 284.533 72.8331 284.462 72.8331ZM265.333 68.6398L284.138 72.1853L282.741 56.1212L265.333 68.6398Z" fill="white" fill-opacity="0.19"/>
<path d="M264.612 69.0909C264.574 69.0909 264.536 69.0834 264.5 69.0685L243.337 60.2412C243.228 60.1961 243.157 60.0894 243.158 59.9716C243.158 59.8541 243.229 59.748 243.338 59.7035L270.588 48.5598C270.693 48.5173 270.811 48.5382 270.894 48.6141C270.977 48.69 271.009 48.8064 270.977 48.9141L264.89 68.8851C264.867 68.9636 264.81 69.0282 264.736 69.0636C264.697 69.0814 264.654 69.0909 264.612 69.0909ZM244.211 59.975L264.427 68.4075L270.241 49.3303L244.211 59.975Z" fill="white" fill-opacity="0.19"/>
<path d="M219.09 67.5844C219.002 67.5844 218.918 67.5448 218.862 67.4735C218.788 67.3795 218.778 67.2499 218.839 67.1467L229.859 48.2667C229.902 48.192 229.977 48.1406 230.062 48.1265C230.147 48.113 230.235 48.1371 230.3 48.1934L243.639 59.7527C243.719 59.8222 243.756 59.9297 243.733 60.0338C243.711 60.1375 243.634 60.2208 243.532 60.2513L219.173 67.5721C219.146 67.5804 219.118 67.5844 219.09 67.5844ZM230.184 48.8628L219.713 66.8021L242.859 59.8461L230.184 48.8628Z" fill="white" fill-opacity="0.19"/>
<path d="M241.495 70.4585C241.411 70.4585 241.332 70.4225 241.276 70.3593C241.217 70.2921 241.192 70.2009 241.209 70.1127L243.163 59.9177C243.179 59.8315 243.234 59.7577 243.311 59.7163C243.388 59.6746 243.479 59.6694 243.561 59.7039L264.724 68.5312C264.849 68.5832 264.921 68.7148 264.899 68.8482C264.876 68.9818 264.764 69.0821 264.629 69.0899L241.512 70.4576C241.507 70.4582 241.501 70.4585 241.495 70.4585ZM243.667 60.379L241.851 69.8552L263.338 68.5838L243.667 60.379Z" fill="white" fill-opacity="0.19"/>
<path d="M205.931 71.4067C205.873 71.4067 205.816 71.3894 205.766 71.3555C205.695 71.3064 205.649 71.2273 205.641 71.1405L204.574 58.6904C204.565 58.5812 204.617 58.4763 204.711 58.4185C204.805 58.3604 204.922 58.3599 205.015 58.4168L219.241 67.0443C219.339 67.1044 219.393 67.2167 219.379 67.3314C219.363 67.4458 219.282 67.5406 219.171 67.5725L206.012 71.3949C205.985 71.4029 205.958 71.4067 205.931 71.4067ZM205.203 59.2114L206.191 70.737L218.373 67.1984L205.203 59.2114Z" fill="white" fill-opacity="0.19"/>
<path d="M205.931 71.4066C205.925 71.4066 205.919 71.4063 205.914 71.406L189.792 70.4579C189.67 70.4507 189.566 70.3688 189.53 70.2524C189.495 70.1363 189.535 70.0101 189.632 69.9363L204.687 58.4345C204.772 58.3701 204.885 58.3566 204.982 58.3997C205.079 58.4425 205.145 58.5351 205.154 58.6408L206.221 71.091C206.228 71.1752 206.198 71.258 206.139 71.3186C206.084 71.3749 206.009 71.4066 205.931 71.4066ZM190.608 69.923L205.612 70.8053L204.62 59.2185L190.608 69.923Z" fill="white" fill-opacity="0.19"/>
<path d="M302.174 71.4066C302.094 71.4066 302.017 71.3733 301.962 71.3149L295.34 64.2634C295.261 64.1787 295.239 64.0551 295.285 63.9487C295.331 63.8424 295.436 63.7734 295.552 63.7734H308.796C308.912 63.7734 309.017 63.8424 309.063 63.9487C309.109 64.0554 309.087 64.1789 309.008 64.2634L302.386 71.3149C302.331 71.3733 302.254 71.4066 302.174 71.4066ZM296.225 64.3551L302.174 70.6904L308.124 64.3551H296.225Z" fill="white" fill-opacity="0.19"/>
<path d="M314.283 71.881C314.277 71.881 314.272 71.8807 314.266 71.8804C314.179 71.8755 314.099 71.8318 314.048 71.7614L308.561 64.2357C308.485 64.1314 308.487 63.9897 308.565 63.8874C308.644 63.7848 308.78 63.7472 308.901 63.7929L318.073 67.3186C318.163 67.3534 318.23 67.4304 318.252 67.5241C318.274 67.6178 318.248 67.7164 318.183 67.7876L314.498 71.7876C314.442 71.8471 314.364 71.881 314.283 71.881ZM309.612 64.6898L314.309 71.1323L317.465 67.708L309.612 64.6898Z" fill="white" fill-opacity="0.19"/>
<path d="M322.746 72.4124C322.739 72.4124 322.733 72.4121 322.727 72.4118L314.265 71.8804C314.153 71.8732 314.055 71.8025 314.013 71.6985C313.971 71.5942 313.993 71.4755 314.069 71.3927L317.754 67.3928C317.807 67.3356 317.881 67.3019 317.959 67.2994C318.039 67.2982 318.112 67.3255 318.168 67.379L322.946 71.9103C323.035 71.9948 323.061 72.1256 323.012 72.2376C322.966 72.344 322.861 72.4124 322.746 72.4124ZM314.911 71.3381L321.964 71.7807L317.983 68.0043L314.911 71.3381Z" fill="white" fill-opacity="0.19"/>
<path d="M251.825 20.88C251.758 20.88 251.691 20.8567 251.638 20.8113L240.715 11.5903C240.652 11.5372 240.614 11.4599 240.612 11.3774C240.609 11.2949 240.642 11.2153 240.702 11.1584L248.196 3.97067C248.272 3.89738 248.384 3.87181 248.483 3.90284C248.584 3.93417 248.66 4.01751 248.682 4.12126L252.11 20.53C252.136 20.6513 252.081 20.7757 251.974 20.8392C251.928 20.8665 251.876 20.88 251.825 20.88ZM241.337 11.3541L251.368 19.8221L248.219 4.75353L241.337 11.3541Z" fill="white" fill-opacity="0.19"/>
<path d="M240.818 11.6828C240.761 11.6828 240.727 11.6518 240.687 11.6153C240.573 11.5121 240.579 11.306 240.675 11.1862C241.012 10.718 242.821 4.3356 243.882 0.42303C243.909 0.326465 243.982 0.25002 244.078 0.220706C244.174 0.191967 244.278 0.213522 244.354 0.279622L248.587 3.96027C248.649 4.01372 248.685 4.09017 248.687 4.1715C248.69 4.25284 248.658 4.33158 248.6 4.3882C243.508 9.35982 241.806 11.0215 241.16 11.5058C241.149 11.5233 241.139 11.538 241.13 11.5495L241.114 11.5385C240.965 11.646 240.878 11.6828 240.818 11.6828ZM244.322 1.0234C243.804 2.9268 242.412 7.97774 241.618 10.3367C243.04 8.98678 245.858 6.2508 247.967 4.19248L244.322 1.0234Z" fill="white" fill-opacity="0.19"/>
<path d="M240.902 11.6588C240.895 11.6588 240.887 11.6585 240.879 11.658C240.742 11.6467 240.632 11.5419 240.614 11.4056L239.191 0.537273C239.181 0.454217 239.206 0.370586 239.261 0.307647C239.316 0.244708 239.396 0.208496 239.48 0.208496H244.163C244.255 0.208496 244.342 0.251889 244.397 0.32575C244.451 0.399322 244.468 0.494738 244.442 0.582968L241.181 11.4513C241.144 11.5755 241.03 11.6588 240.902 11.6588ZM239.811 0.790466L241.014 9.98188L243.772 0.790466H239.811Z" fill="white" fill-opacity="0.19"/>
<path d="M240.902 11.6586C240.864 11.6586 240.826 11.6508 240.789 11.6356L222.452 3.89036C222.333 3.84035 222.262 3.71879 222.276 3.5909C222.29 3.46301 222.386 3.35955 222.512 3.33627L239.427 0.213167C239.505 0.199659 239.587 0.217191 239.651 0.264036C239.716 0.310881 239.758 0.382441 239.769 0.461474L241.191 11.3298C241.204 11.4333 241.161 11.5362 241.078 11.5991C241.027 11.6385 240.965 11.6586 240.902 11.6586ZM223.573 3.73201L240.548 10.9022L239.231 0.84112L223.573 3.73201Z" fill="white" fill-opacity="0.19"/>
<path d="M200.439 17.7132C200.393 17.7132 200.371 17.7011 200.351 17.6905C200.257 17.6396 200.187 17.5209 200.187 17.414C199.969 16.8849 195.456 13.0738 191.325 9.78199C191.237 9.71129 191.197 9.5949 191.224 9.48483C191.252 9.37418 191.34 9.28997 191.452 9.2687L222.51 3.3372C222.645 3.31047 222.783 3.3849 222.835 3.51394C222.887 3.6424 222.841 3.79012 222.725 3.86628C203.203 16.6843 200.857 17.7132 200.439 17.7132ZM192.182 9.72135C195.795 12.6105 199.829 15.9566 200.627 17.1071C202.194 16.4765 213.21 9.40148 221.179 4.18357L192.182 9.72135Z" fill="white" fill-opacity="0.19"/>
<path d="M227.507 17.2305C227.467 17.2305 227.427 17.2225 227.391 17.2064C227.318 17.1748 227.261 17.115 227.234 17.0409L222.292 3.72364C222.252 3.61471 222.28 3.49228 222.364 3.4121C222.448 3.33192 222.572 3.30893 222.678 3.35433L241.016 11.0996C241.124 11.145 241.194 11.251 241.194 11.3683C241.193 11.4853 241.123 11.591 241.015 11.6359L227.619 17.2078C227.582 17.2231 227.544 17.2305 227.507 17.2305ZM223.072 4.15214L227.674 16.5549L240.15 11.3657L223.072 4.15214Z" fill="white" fill-opacity="0.19"/>
<path d="M200.478 17.7047C200.473 17.7047 200.469 17.7047 200.464 17.7044L160.505 15.7631C160.358 15.7559 160.239 15.6398 160.229 15.4929C160.219 15.3458 160.32 15.2141 160.465 15.1866L191.452 9.26826C191.54 9.25102 191.631 9.27631 191.698 9.33522L200.67 17.1949C200.763 17.2765 200.794 17.4081 200.748 17.5228C200.703 17.6331 200.596 17.7047 200.478 17.7047ZM162.971 15.3004L199.658 17.0828L191.422 9.8669L162.971 15.3004Z" fill="white" fill-opacity="0.19"/>
<path d="M214.822 23.4096C214.785 23.4096 214.749 23.4027 214.714 23.3892L200.371 17.6847C200.242 17.6332 200.167 17.4982 200.192 17.362C200.217 17.2254 200.334 17.1257 200.473 17.1231L227.501 16.6492C227.656 16.6469 227.758 16.7395 227.789 16.8722C227.821 17.005 227.756 17.1418 227.634 17.2019L214.949 23.3805C214.91 23.3995 214.866 23.4096 214.822 23.4096ZM201.933 17.6792L214.81 22.8006L226.198 17.2539L201.933 17.6792Z" fill="white" fill-opacity="0.19"/>
<path d="M138.596 27.3884C138.562 27.3884 138.529 27.3824 138.496 27.3706L125.179 22.4757C125.056 22.4306 124.979 22.3093 124.99 22.1789C125.001 22.0487 125.097 21.9412 125.225 21.9168L160.465 15.1866C160.605 15.1613 160.746 15.24 160.794 15.3757C160.842 15.5116 160.783 15.6619 160.656 15.7295L138.733 27.3542C138.69 27.3769 138.643 27.3884 138.596 27.3884ZM126.365 22.2915L138.575 26.7795L158.676 16.1209L126.365 22.2915Z" fill="white" fill-opacity="0.19"/>
<path d="M104.455 31.2858C104.436 31.2858 104.419 31.284 104.401 31.2806L91.7161 28.8883C91.5785 28.8625 91.479 28.7426 91.479 28.6027C91.479 28.463 91.5779 28.3426 91.7155 28.3164L125.225 21.9165C125.373 21.888 125.514 21.9762 125.558 22.1179C125.601 22.2605 125.529 22.4125 125.393 22.4703L104.568 31.2625C104.532 31.278 104.493 31.2858 104.455 31.2858ZM93.3307 28.6009L104.422 30.6926L122.632 23.0045L93.3307 28.6009Z" fill="white" fill-opacity="0.19"/>
<path d="M81.4564 37.2651C81.444 37.2651 81.4314 37.2643 81.4181 37.2625L61.5532 34.6547C61.4115 34.6363 61.3044 34.5174 61.3 34.3748C61.296 34.232 61.396 34.1075 61.5366 34.0805L91.7154 28.3168C91.8456 28.293 91.9775 28.3591 92.0336 28.4801C92.0899 28.6011 92.0569 28.7448 91.9534 28.8287L81.64 37.2002C81.5877 37.2421 81.5231 37.2651 81.4564 37.2651ZM63.4213 34.313L81.3701 36.6691L90.6892 29.1049L63.4213 34.313Z" fill="white" fill-opacity="0.19"/>
<path d="M169.537 25.7065C169.456 25.7065 169.377 25.6726 169.322 25.6111L160.304 15.6682C160.225 15.5811 160.206 15.4547 160.256 15.3486C160.307 15.2423 160.402 15.1796 160.534 15.1822L200.492 17.1235C200.636 17.1307 200.753 17.2414 200.767 17.3845C200.782 17.5276 200.69 17.6601 200.551 17.696L169.61 25.6976C169.586 25.7034 169.561 25.7065 169.537 25.7065ZM161.206 15.7972L169.634 25.0898L198.551 17.6115L161.206 15.7972Z" fill="white" fill-opacity="0.19"/>
<path d="M251.825 20.8799H236.042C235.941 20.8799 235.846 20.8264 235.793 20.7393C235.741 20.6523 235.737 20.5436 235.785 20.4534L240.645 11.2324C240.686 11.1542 240.76 11.099 240.847 11.0824C240.933 11.0654 241.022 11.0884 241.09 11.1456L252.012 20.3666C252.106 20.4453 252.14 20.5741 252.098 20.6888C252.056 20.8034 251.947 20.8799 251.825 20.8799ZM236.525 20.2979H251.029L240.991 11.8238L236.525 20.2979Z" fill="white" fill-opacity="0.19"/>
<path d="M138.596 27.3883C138.466 27.3883 138.351 27.3015 138.316 27.175C138.279 27.0434 138.339 26.9043 138.46 26.8399L160.382 15.2151C160.49 15.1579 160.621 15.174 160.713 15.2551C160.803 15.3361 160.834 15.4652 160.79 15.5781L156.621 26.2246C156.58 26.3309 156.48 26.4028 156.366 26.4091L138.612 27.3874C138.607 27.388 138.601 27.3883 138.596 27.3883ZM159.962 16.0971L139.903 26.7339L156.148 25.8386L159.962 16.0971Z" fill="white" fill-opacity="0.19"/>
<path d="M104.455 31.2858C104.318 31.2858 104.2 31.1909 104.17 31.057C104.14 30.9199 104.212 30.7814 104.341 30.7268L125.166 21.9346C125.28 21.8857 125.413 21.9159 125.496 22.0081C125.579 22.1001 125.594 22.2349 125.534 22.3435L120.95 30.6144C120.9 30.7041 120.807 30.761 120.705 30.7641L104.464 31.2855C104.461 31.2858 104.457 31.2858 104.455 31.2858ZM124.617 22.7982L106.01 30.6538L120.521 30.1879L124.617 22.7982Z" fill="white" fill-opacity="0.19"/>
<path d="M133.499 33.0795C133.482 33.0795 133.464 33.0781 133.447 33.0749L120.644 30.7599C120.506 30.7349 120.405 30.6151 120.404 30.4746C120.404 30.334 120.503 30.2133 120.641 30.1875L138.542 26.8114C138.665 26.7876 138.788 26.8459 138.85 26.9543C138.911 27.0629 138.896 27.1983 138.813 27.2914L133.715 32.9824C133.659 33.0447 133.58 33.0795 133.499 33.0795ZM122.297 30.4677L133.391 32.4734L137.807 27.5426L122.297 30.4677Z" fill="white" fill-opacity="0.19"/>
<path d="M169.537 25.7065C169.396 25.7065 169.274 25.6045 169.25 25.4631C169.226 25.3145 169.318 25.1717 169.464 25.134L200.405 17.1324C200.495 17.1092 200.593 17.1307 200.666 17.1922C200.738 17.2534 200.776 17.3454 200.768 17.4397L200.265 23.1441C200.253 23.2858 200.139 23.3979 199.998 23.4088L169.559 25.706C169.551 25.7062 169.544 25.7065 169.537 25.7065ZM200.152 17.7986L172.771 24.8797L199.707 22.847L200.152 17.7986Z" fill="white" fill-opacity="0.19"/>
<path d="M45.7737 44.3793C45.738 44.3793 45.7024 44.3727 45.6685 44.3597L34.0862 39.8704C33.9652 39.8235 33.8899 39.702 33.9014 39.5726C33.9132 39.4433 34.0092 39.3375 34.1368 39.3131L61.5366 34.0803C61.6717 34.0544 61.8116 34.1297 61.8625 34.261C61.9131 34.3921 61.8631 34.5407 61.7435 34.6139L45.926 44.3362C45.8797 44.3649 45.8268 44.3793 45.7737 44.3793ZM35.243 39.6945L45.7446 43.7648L60.0858 34.9496L35.243 39.6945Z" fill="white" fill-opacity="0.19"/>
<path d="M37.8313 48.7037C37.7767 48.7037 37.7221 48.6885 37.6739 48.6575L29.4941 43.3962C29.4147 43.3453 29.365 43.2591 29.3607 43.1648C29.3564 43.0708 29.3981 42.9803 29.4722 42.9225L34.0124 39.3698C34.0843 39.3137 34.1786 39.2948 34.2659 39.3175C34.3542 39.3405 34.426 39.4037 34.4605 39.4876L38.1 48.3017C38.1486 48.4192 38.1153 48.5546 38.0176 48.6362C37.9638 48.681 37.8977 48.7037 37.8313 48.7037ZM30.1533 43.1283L37.2083 47.6663L34.0691 40.0644L30.1533 43.1283Z" fill="white" fill-opacity="0.19"/>
<path d="M37.8313 48.7041C37.8301 48.7041 37.8287 48.7041 37.8275 48.7041L28.2844 48.5809C28.1947 48.5797 28.1105 48.5372 28.0561 48.4659C28.0021 48.3946 27.9837 48.3021 28.0067 48.2153L29.3701 43.0773C29.394 42.9876 29.4595 42.9146 29.5463 42.8807C29.6331 42.8476 29.7302 42.8571 29.809 42.9074L37.9888 48.1687C38.098 48.2389 38.1474 48.3731 38.11 48.4972C38.0727 48.6202 37.9595 48.7041 37.8313 48.7041ZM28.6651 48.0038L36.8205 48.1092L29.8302 43.613L28.6651 48.0038Z" fill="white" fill-opacity="0.19"/>
<path d="M30.952 62.5294C30.9387 62.5294 30.9255 62.5286 30.9123 62.5266C30.7884 62.5099 30.6896 62.4156 30.666 62.2929L28.0021 48.344C27.9858 48.2581 28.009 48.1695 28.0651 48.1026C28.1214 48.0359 28.2094 48 28.2919 47.9985L37.835 48.1218C37.935 48.1233 38.0276 48.1759 38.0796 48.2609C38.1319 48.3466 38.1365 48.4526 38.0917 48.5423L31.2123 62.3679C31.1629 62.4679 31.0615 62.5294 30.952 62.5294ZM28.6407 48.5851L31.0758 61.3365L37.3643 48.698L28.6407 48.5851Z" fill="white" fill-opacity="0.19"/>
<path d="M33.0594 73.565C33.0206 73.565 32.9815 73.5572 32.945 73.5414C32.8562 73.5035 32.7918 73.4236 32.7737 73.3285L30.6662 62.2932C30.6455 62.1837 30.6887 62.0722 30.7783 62.0055C30.8671 61.9391 30.987 61.9296 31.0858 61.9802L41.7585 67.4978C41.8507 67.5456 41.9105 67.6387 41.9157 67.7424C41.9205 67.8462 41.87 67.9447 41.7826 68.0011L33.2174 73.5187C33.1694 73.5495 33.1146 73.565 33.0594 73.565ZM31.35 62.7722L33.2643 72.7959L41.0443 67.7841L31.35 62.7722Z" fill="white" fill-opacity="0.19"/>
<path d="M48.6188 60.08C48.541 60.08 48.4639 60.0487 48.4076 59.9895L37.6197 48.6138C37.5573 48.5483 37.5295 48.4572 37.5436 48.3681C37.5574 48.279 37.6122 48.2014 37.6915 48.158L45.6343 43.8333C45.7164 43.7888 45.815 43.7859 45.8992 43.8262C45.9837 43.8664 46.0432 43.9449 46.0602 44.0368L48.9054 59.7371C48.9281 59.8639 48.8654 59.9906 48.7505 60.0487C48.7088 60.0696 48.6637 60.08 48.6188 60.08ZM38.3028 48.4877L48.1587 58.8807L45.5592 44.5366L38.3028 48.4877Z" fill="white" fill-opacity="0.19"/>
<path d="M59.7625 47.9343C59.7386 47.9343 59.7145 47.9315 59.691 47.9251L45.7023 44.3701C45.5888 44.3413 45.5041 44.2477 45.4865 44.1321C45.469 44.0166 45.5221 43.9016 45.6219 43.8407L61.4395 34.1185C61.5349 34.059 61.6564 34.0613 61.751 34.1225C61.845 34.1843 61.8952 34.2944 61.88 34.4062L60.0513 47.6834C60.0404 47.7656 59.9944 47.8389 59.9258 47.8849C59.8763 47.9171 59.82 47.9343 59.7625 47.9343ZM46.5125 43.9758L59.5185 47.2811L61.219 34.9364L46.5125 43.9758Z" fill="white" fill-opacity="0.19"/>
<path d="M52.5311 69.8657C52.5153 69.8657 52.4992 69.8643 52.4834 69.8617L41.5769 68.0434C41.4725 68.0261 41.386 67.9537 41.3507 67.854C41.3151 67.7545 41.3363 67.6436 41.4059 67.564L48.4002 59.5963C48.4671 59.5201 48.568 59.4834 48.668 59.5017C48.7678 59.5187 48.8517 59.5865 48.889 59.6805L52.8013 69.4662C52.8401 69.5637 52.8237 69.6749 52.7579 69.7565C52.7019 69.8266 52.6185 69.8657 52.5311 69.8657ZM42.1885 67.5557L52.0693 69.203L48.5252 60.3375L42.1885 67.5557Z" fill="white" fill-opacity="0.19"/>
<path d="M48.6188 60.0798C48.5084 60.0798 48.407 60.0174 48.3575 59.9174C48.3046 59.8096 48.323 59.6806 48.4041 59.5924L59.5475 47.4468C59.6228 47.3643 59.7386 47.3327 59.8449 47.3644C59.9516 47.3963 60.0309 47.4859 60.049 47.5957L61.8777 58.6178C61.8912 58.698 61.8702 58.7799 61.8204 58.844C61.7707 58.9081 61.6966 58.9486 61.6155 58.9555L48.6432 60.0786C48.6357 60.0795 48.6271 60.0798 48.6188 60.0798ZM59.573 48.28L49.3387 59.4343L61.2526 58.4026L59.573 48.28Z" fill="white" fill-opacity="0.19"/>
<path d="M159.936 29.7967C159.863 29.7967 159.791 29.7694 159.736 29.7171L156.15 26.3302C156.066 26.2503 156.037 26.1279 156.077 26.0184C156.117 25.9092 156.219 25.8341 156.335 25.8278L169.521 25.1243C169.666 25.1234 169.788 25.2122 169.82 25.3493C169.852 25.487 169.781 25.6272 169.651 25.6827L160.05 29.7732C160.013 29.789 159.975 29.7967 159.936 29.7967ZM157.044 26.3733L159.998 29.1633L167.907 25.7939L157.044 26.3733Z" fill="white" fill-opacity="0.19"/>
<path d="M67.6388 40.233C67.5667 40.233 67.4957 40.206 67.4417 40.1559L61.394 34.5802C61.3009 34.494 61.2739 34.3578 61.328 34.2428C61.3817 34.1284 61.5021 34.0606 61.6292 34.0779L81.4946 36.6857C81.6352 36.7041 81.7412 36.821 81.7475 36.9624C81.7533 37.1035 81.6562 37.2288 81.5179 37.2584L67.7004 40.2264C67.6799 40.231 67.6592 40.233 67.6388 40.233ZM62.4632 34.7742L67.7253 39.6257L79.749 37.0435L62.4632 34.7742Z" fill="white" fill-opacity="0.19"/>
<path d="M59.7626 47.9344C59.718 47.9344 59.6729 47.924 59.6316 47.9031C59.5203 47.8473 59.4574 47.7269 59.4744 47.6036L61.3031 34.3263C61.3177 34.2191 61.391 34.1289 61.4927 34.0921C61.5942 34.055 61.7083 34.0783 61.7882 34.1522L67.8358 39.7279C67.8944 39.7819 67.9283 39.8578 67.9295 39.9377C67.9306 40.0176 67.8987 40.0943 67.8418 40.15L59.9655 47.8513C59.9103 47.9059 59.837 47.9344 59.7626 47.9344ZM61.8037 34.9577L60.167 46.8411L67.2162 39.9483L61.8037 34.9577Z" fill="white" fill-opacity="0.19"/>
<path d="M93.43 37.2653H81.4566C81.3333 37.2653 81.2235 37.1877 81.1822 37.0716C81.1413 36.9558 81.1776 36.8262 81.273 36.7486L91.5864 28.3768C91.6654 28.3127 91.7712 28.2938 91.8689 28.3291C91.9649 28.3639 92.0353 28.4461 92.0554 28.5461L93.7154 36.9179C93.7324 37.0032 93.7102 37.0917 93.655 37.159C93.5993 37.2262 93.5168 37.2653 93.43 37.2653ZM82.2766 36.6833H93.0759L91.5783 29.1329L82.2766 36.6833Z" fill="white" fill-opacity="0.19"/>
<path d="M93.4301 37.2652C93.3022 37.2652 93.1887 37.1816 93.1516 37.0577C93.112 36.9258 93.1703 36.7841 93.2913 36.7186L104.316 30.7391C104.425 30.6799 104.558 30.6968 104.649 30.7787L109.747 35.3767C109.833 35.4543 109.865 35.5756 109.828 35.6854C109.791 35.7955 109.693 35.8725 109.577 35.8825L93.4551 37.2638C93.4465 37.2649 93.4382 37.2652 93.4301 37.2652ZM104.413 31.3483L94.7947 36.5651L108.86 35.3601L104.413 31.3483Z" fill="white" fill-opacity="0.19"/>
<path d="M60.3551 72.9382C60.3192 72.9382 60.2832 72.9316 60.2488 72.9181L52.4248 69.8456C52.3377 69.8114 52.2725 69.7375 52.2492 69.6473C52.2259 69.557 52.2475 69.4607 52.3072 69.3889L61.3673 58.4797C61.4492 58.382 61.5843 58.349 61.7021 58.3964C61.8196 58.4449 61.8921 58.5642 61.8812 58.691L60.6451 72.6726C60.637 72.764 60.5862 72.8462 60.5083 72.8945C60.4617 72.9235 60.4085 72.9382 60.3551 72.9382ZM53.0122 69.451L60.0996 72.2344L61.2193 59.5689L53.0122 69.451Z" fill="white" fill-opacity="0.19"/>
<path d="M42.4348 73.5652C42.383 73.5652 42.3316 73.5514 42.2859 73.5244C42.2106 73.4795 42.1597 73.4034 42.1468 73.3166L41.3367 67.7989C41.3232 67.707 41.3542 67.6138 41.4209 67.5489C41.4872 67.4842 41.5806 67.4555 41.6723 67.4696L52.5789 69.2879C52.7094 69.3095 52.8085 69.4164 52.8209 69.548C52.833 69.6796 52.7554 69.8029 52.6312 69.848L42.5348 73.5474C42.5023 73.5591 42.4687 73.5652 42.4348 73.5652ZM41.9704 68.1093L42.6705 72.878L51.3963 69.6808L41.9704 68.1093Z" fill="white" fill-opacity="0.19"/>
<path d="M107.26 72.8328C107.212 72.8328 107.163 72.8207 107.118 72.796L91.6282 64.1331C91.51 64.067 91.4531 63.9282 91.4905 63.798C91.5279 63.6678 91.6319 63.5819 91.7859 63.5882L115.97 64.8973C116.088 64.9039 116.192 64.9824 116.229 65.0953C116.268 65.2085 116.233 65.3333 116.142 65.4103L107.449 72.7641C107.394 72.8095 107.327 72.8328 107.26 72.8328ZM93.0068 64.2372L107.226 72.1893L115.206 65.4387L93.0068 64.2372Z" fill="white" fill-opacity="0.19"/>
<path d="M26.332 69.8654C26.29 69.8654 26.2475 69.8562 26.2084 69.8378L14.0606 64.1423C13.9373 64.0845 13.8706 63.9489 13.8999 63.8155C13.9298 63.6824 14.0477 63.5879 14.1842 63.5879H27.1617C27.2462 63.5879 27.3264 63.6247 27.3818 63.6885C27.437 63.7523 27.4617 63.8371 27.4494 63.921L26.6197 69.6165C26.6065 69.7074 26.551 69.787 26.4696 69.8309C26.4271 69.8536 26.3797 69.8654 26.332 69.8654ZM15.4903 64.1699L26.1009 69.1444L26.8254 64.1699H15.4903Z" fill="white" fill-opacity="0.19"/>
<path d="M16.0187 71.7624C15.9667 71.7624 15.9149 71.7486 15.8684 71.7208L3.90044 64.5086C3.79037 64.4422 3.73695 64.3115 3.76885 64.1867C3.80132 64.0623 3.9111 63.9735 4.03986 63.9689L14.1736 63.5887C14.3211 63.578 14.4349 63.6766 14.4671 63.8111L16.3012 71.4035C16.3288 71.5173 16.2854 71.6368 16.1905 71.7064C16.1397 71.7432 16.0793 71.7624 16.0187 71.7624ZM5.03623 64.5138L15.5724 70.8629L13.9575 64.179L5.03623 64.5138Z" fill="white" fill-opacity="0.19"/>
<path d="M16.019 71.7623C16.0029 71.7623 15.9862 71.7608 15.9699 71.7583L4.00191 69.7238C3.86224 69.6999 3.75995 69.5787 3.75995 69.4367V64.2593C3.75995 64.1544 3.81654 64.0576 3.90764 64.0058C3.99961 63.955 4.11141 63.9558 4.20107 64.0101L16.169 71.2223C16.2886 71.2944 16.34 71.4416 16.2914 71.5726C16.2486 71.6881 16.1386 71.7623 16.019 71.7623ZM4.34189 69.191L14.5515 70.9265L4.34189 64.7743V69.191Z" fill="white" fill-opacity="0.19"/>
<path d="M25.7398 72.9381C25.728 72.9381 25.7165 72.9376 25.7044 72.9361L15.9836 71.7604C15.8379 71.7429 15.7281 71.6193 15.7275 71.4722C15.727 71.3256 15.8362 71.2014 15.9816 71.1825L26.1766 69.8786C26.2683 69.8676 26.362 69.8998 26.4255 69.9679C26.4893 70.0358 26.5166 70.1303 26.4993 70.2217L26.0251 72.7016C25.999 72.8404 25.8777 72.9381 25.7398 72.9381ZM18.375 71.4632L25.5047 72.3257L25.8524 70.5068L18.375 71.4632Z" fill="white" fill-opacity="0.19"/>
</svg>
