<svg width="29" height="28" viewBox="0 0 29 28" fill="none" xmlns="http://www.w3.org/2000/svg">
<circle cx="14.544" cy="13.7198" r="13.7198" fill="white" fill-opacity="0.12"/>
<path d="M20.1977 12.4034C20.1977 12.419 20.1977 12.4377 20.1977 12.4564C20.1977 16.6675 16.7839 20.0808 12.5733 20.0808C12.5546 20.0808 12.5364 20.0808 12.5177 20.0808H12.5203C12.5146 20.0808 12.5073 20.0808 12.5006 20.0808C10.9685 20.0808 9.54251 19.6292 8.34723 18.8512L8.37685 18.8694C8.56082 18.8907 8.77337 18.9032 8.98956 18.9032C9.00308 18.9032 9.01711 18.9032 9.03062 18.9032H9.02854C9.0327 18.9032 9.0379 18.9032 9.04309 18.9032C10.307 18.9032 11.4695 18.4692 12.3899 17.7417L12.3785 17.7505C11.2029 17.7281 10.2124 16.959 9.86108 15.8983L9.85537 15.8791C10.0076 15.9046 10.1838 15.9196 10.3636 15.9212H10.3652C10.6177 15.9202 10.8625 15.8869 11.0948 15.8245L11.0751 15.8292C9.8325 15.5714 8.91161 14.4853 8.91161 13.1845C8.91161 13.1835 8.91161 13.1824 8.91161 13.1814V13.1481C9.26292 13.3482 9.68075 13.4729 10.1261 13.4901H10.1313C9.40168 12.9985 8.92824 12.1753 8.92824 11.2419C8.92824 10.7404 9.06492 10.2711 9.30242 9.8689L9.29566 9.88137C10.6328 11.5173 12.6102 12.5869 14.8402 12.7038L14.8589 12.7048C14.8179 12.5198 14.7934 12.3068 14.7919 12.088V12.0869C14.7929 10.5959 16.0017 9.38818 17.4927 9.38818C18.2686 9.38818 18.9681 9.71559 19.4608 10.2394L19.4623 10.241C20.1078 10.1137 20.682 9.8876 21.1986 9.57631L21.1747 9.58982C20.9658 10.2238 20.5464 10.7409 20.0007 11.0694L19.9888 11.0761C20.5646 11.0096 21.0895 10.8625 21.5764 10.6453L21.5421 10.6588C21.1653 11.2019 20.7174 11.6634 20.205 12.0422L20.1894 12.0531C20.1977 12.1696 20.1977 12.287 20.1977 12.4039V12.4034Z" fill="white"/>
</svg>
