<svg width="28" height="28" viewBox="0 0 28 28" fill="none" xmlns="http://www.w3.org/2000/svg">
<circle cx="13.7198" cy="13.7198" r="13.7198" fill="white" fill-opacity="0.12"/>
<path d="M14.8635 21.3592V16.2446H16.5688L16.8934 14.128H14.8635V12.7539C14.8608 12.7256 14.8592 12.6923 14.8592 12.659C14.8592 12.0746 15.3328 11.6009 15.9172 11.6009C15.9663 11.6009 16.0149 11.6042 16.0618 11.6108L16.0564 11.6102H16.9791V9.81004C16.4918 9.7271 15.926 9.6758 15.3486 9.66762H15.3404C15.2815 9.66271 15.2133 9.65998 15.144 9.65998C13.7176 9.65998 12.5613 10.8163 12.5613 12.2427C12.5613 12.3387 12.5668 12.4336 12.5766 12.5269L12.5755 12.5155V14.128H10.7159V16.2446H12.5755V21.3592C9.05484 20.7868 6.39905 17.7681 6.39905 14.129C6.39905 10.0862 9.67636 6.80884 13.7193 6.80884C17.7621 6.80884 21.0395 10.0862 21.0395 14.129C21.0395 17.7681 18.3842 20.7868 14.9055 21.3532L14.8635 21.3587V21.3592Z" fill="white"/>
</svg>
