<svg width="28" height="28" viewBox="0 0 28 28" fill="none" xmlns="http://www.w3.org/2000/svg">
<circle cx="13.7198" cy="13.7198" r="13.7198" fill="white" fill-opacity="0.12"/>
<path d="M14.1355 8.06112C15.9671 8.06112 16.1843 8.06798 16.9075 8.10114C17.3665 8.10685 17.8033 8.19317 18.2074 8.34638L18.1811 8.3378C18.7814 8.5739 19.2473 9.0398 19.4777 9.62403L19.4828 9.63947C19.6274 10.0173 19.7138 10.4546 19.7189 10.9108V10.9131C19.7521 11.6363 19.7589 11.8535 19.7589 13.6851C19.7589 15.5167 19.7521 15.7339 19.7189 16.4571C19.7132 16.9161 19.6269 17.3528 19.4737 17.757L19.4822 17.7307C19.2461 18.3309 18.7802 18.7968 18.1954 19.0272L18.18 19.0324C17.8021 19.177 17.3648 19.2633 16.9086 19.2685H16.9063C16.1832 19.3016 15.966 19.3085 14.1344 19.3085C12.3028 19.3085 12.0856 19.3016 11.3624 19.2685C10.9034 19.2627 10.4666 19.1764 10.0625 19.0232L10.0888 19.0318C9.48852 18.7957 9.02262 18.3298 8.79224 17.745L8.7871 17.7296C8.64247 17.3517 8.55615 16.9144 8.551 16.4582V16.4559C8.51785 15.7328 8.51099 15.5155 8.51099 13.6839C8.51099 11.8524 8.51785 11.6351 8.551 10.912C8.55672 10.4529 8.64304 10.0162 8.79624 9.61203L8.78767 9.63832C9.02376 9.03808 9.48966 8.57218 10.0745 8.3418L10.0899 8.33666C10.4678 8.19203 10.9051 8.10571 11.3613 8.10056H11.3636C12.0867 8.06741 12.3039 8.06055 14.1355 8.06055V8.06112ZM14.1355 6.8252C12.2725 6.8252 12.0387 6.83263 11.307 6.86635C10.7056 6.87893 10.1351 6.99498 9.60743 7.19677L9.64173 7.18534C8.71735 7.54949 7.99992 8.26749 7.64378 9.16785L7.63578 9.19186C7.44542 9.6852 7.32937 10.2557 7.31679 10.852V10.8571C7.28307 11.5888 7.27563 11.8226 7.27563 13.6857C7.27563 15.5487 7.28307 15.7825 7.31679 16.5142C7.32937 17.1156 7.44542 17.6861 7.64721 18.2138L7.63578 18.1795C7.99992 19.1038 8.71793 19.8213 9.61829 20.1774L9.6423 20.186C10.1356 20.3763 10.7062 20.4924 11.3024 20.505H11.3075C12.0393 20.5387 12.2731 20.5461 14.1361 20.5461C15.9991 20.5461 16.2329 20.5387 16.9647 20.505C17.566 20.4924 18.1366 20.3763 18.6642 20.1745L18.6299 20.186C19.5543 19.8218 20.2717 19.1038 20.6278 18.2035L20.6364 18.1795C20.8268 17.6861 20.9428 17.1156 20.9554 16.5194V16.5142C20.9891 15.7825 20.9966 15.5487 20.9966 13.6857C20.9966 11.8226 20.9891 11.5888 20.9554 10.8571C20.9428 10.2557 20.8268 9.6852 20.625 9.15756L20.6364 9.19186C20.2723 8.26749 19.5543 7.55006 18.6539 7.19391L18.6299 7.18591C18.1366 6.99555 17.566 6.8795 16.9698 6.86693H16.9647C16.2329 6.8332 15.9991 6.82577 14.1361 6.82577L14.1355 6.8252ZM14.1355 10.1625C12.1902 10.1625 10.613 11.7397 10.613 13.6851C10.613 15.6304 12.1902 17.2076 14.1355 17.2076C16.0809 17.2076 17.6581 15.6304 17.6581 13.6851C17.6581 11.7397 16.0809 10.1625 14.1355 10.1625ZM14.1355 15.9717C12.8727 15.9717 11.8489 14.9479 11.8489 13.6851C11.8489 12.4223 12.8727 11.3985 14.1355 11.3985C15.3983 11.3985 16.4222 12.4223 16.4222 13.6851C16.4222 14.9479 15.3983 15.9717 14.1355 15.9717ZM17.7976 9.19986C17.3431 9.19986 16.9744 9.56858 16.9744 10.023C16.9744 10.4775 17.3431 10.8462 17.7976 10.8462C18.252 10.8462 18.6207 10.4775 18.6207 10.023C18.6207 9.56858 18.252 9.19986 17.7976 9.19986Z" fill="white"/>
</svg>
