<svg width="29" height="28" viewBox="0 0 29 28" fill="none" xmlns="http://www.w3.org/2000/svg">
<circle cx="14.6319" cy="13.7198" r="13.7198" fill="white" fill-opacity="0.12"/>
<path d="M18.5865 19.1803C18.4294 19.8749 18.019 20.0474 17.4357 19.7205L14.2572 17.3785L12.7233 18.8534C12.5759 19.0439 12.3473 19.165 12.0903 19.165C12.0881 19.165 12.0859 19.165 12.0837 19.165H12.0843L12.3129 15.9281L18.204 10.605C18.4599 10.3764 18.1484 10.2504 17.8062 10.4784L10.5231 15.0643L7.38769 14.0832C6.70559 13.8703 6.69359 13.4011 7.52956 13.0742L19.793 8.34977C20.3611 8.13696 20.8576 8.47637 20.6726 9.34344L18.5865 19.1803Z" fill="white"/>
</svg>
