<svg width="42" height="41" viewBox="0 0 42 41" fill="none" xmlns="http://www.w3.org/2000/svg">
<g clip-path="url(#clip0_21_1158)">
<path d="M20.2363 41C31.5582 41 40.7363 31.8218 40.7363 20.5C40.7363 9.17816 31.5582 0 20.2363 0C8.91451 0 -0.263657 9.17816 -0.263657 20.5C-0.263657 31.8218 8.91451 41 20.2363 41Z" fill="#0E0E21"/>
<path d="M31.6816 25.2836L29.2472 21.1409C29.1618 20.97 28.9483 20.9273 28.8202 21.0555L27.24 22.0805C27.1118 22.1659 27.0691 22.3794 27.1545 22.5075L28.5639 24.8565C28.6066 24.9419 28.5639 25.0273 28.5212 25.07L20.3212 30.3659C20.2785 30.4086 20.1931 30.4086 20.1504 30.3659L12.0358 25.07C11.9504 25.0273 11.9504 24.9419 11.9931 24.8565L13.4025 22.5075C13.4879 22.3794 13.4452 22.1659 13.317 22.0805L11.7368 21.0555C11.566 20.97 11.3952 21.0127 11.3097 21.1409L8.87537 25.2836C8.70453 25.5825 8.78995 25.9669 9.08891 26.1377L19.9795 33.2273C20.1931 33.3555 20.4493 33.3555 20.6629 33.2273L31.5535 26.1377C31.767 25.9242 31.8525 25.5398 31.6816 25.2836Z" fill="white"/>
<path d="M12.9339 18.8344L14.5142 19.8594C14.685 19.9448 14.8558 19.9021 14.9412 19.774L20.0662 11.0615C20.1089 10.976 20.2798 10.976 20.3225 11.0615L25.4475 19.774C25.5329 19.9448 25.7464 19.9875 25.8746 19.8594L27.4548 18.8344C27.5829 18.749 27.6256 18.5354 27.5402 18.4073L21.5183 7.98646C21.3902 7.77292 21.2194 7.6875 20.9631 7.6875H19.511C19.2975 7.6875 19.0839 7.81563 18.9558 7.98646L12.8485 18.4073C12.7631 18.5354 12.8058 18.749 12.9339 18.8344Z" fill="#2AE7A8"/>
</g>
<defs>
<clipPath id="clip0_21_1158">
<rect width="41" height="41" fill="white" transform="translate(0.90123)"/>
</clipPath>
</defs>
</svg>
