<svg width="42" height="41" viewBox="0 0 42 41" fill="none" xmlns="http://www.w3.org/2000/svg">
<g clip-path="url(#clip0_21_1162)">
<path d="M11.1095 18.5067L18.6037 11.0125L26.1014 18.5099L30.4618 14.1494L18.6037 2.29156L6.74935 14.1459L11.1097 18.5063L11.1095 18.5067ZM-0.69046 21.5857L3.67017 17.2244L8.03048 21.5848L3.66986 25.9454L-0.69046 21.5857ZM11.1095 24.6652L18.6037 32.1589L26.1012 24.6616L30.464 29.0198L30.4618 29.0221L18.6037 40.8798L6.74935 29.0255L6.74318 29.0193L11.11 24.6647L11.1095 24.6652ZM29.1768 21.5875L33.5375 17.2269L37.8978 21.5872L33.5373 25.9479L29.1768 21.5875Z" fill="#F3BA2F"/>
<path d="M23.0253 21.5823H23.0272L18.6027 17.1577L15.3324 20.4269L14.9567 20.8028L14.1818 21.5778L14.1756 21.5838L14.1818 21.5901L18.6027 26.0115L23.0275 21.5869L23.0296 21.5844L23.0256 21.5823" fill="#F3BA2F"/>
</g>
<defs>
<clipPath id="clip0_21_1162">
<rect width="41" height="41" fill="white" transform="translate(0.401245)"/>
</clipPath>
</defs>
</svg>
