<svg width="42" height="41" viewBox="0 0 42 41" fill="none" xmlns="http://www.w3.org/2000/svg">
<g clip-path="url(#clip0_21_1174)">
<path d="M37.792 21.5857C37.792 32.2391 29.1544 40.8767 18.4964 40.8783C7.84601 40.8783 -0.791582 32.2391 -0.790038 21.5841C-0.793125 10.9292 7.84446 2.29156 18.4994 2.29156C29.1544 2.29156 37.792 10.9307 37.792 21.5857Z" fill="#EAB300"/>
<path d="M26.0912 16.8594C25.8427 14.2755 23.6123 13.4096 20.7938 13.1626V9.57697H18.6128V13.0669C18.0402 13.0669 17.4537 13.0777 16.8717 13.09V9.57697H14.6907L14.6892 13.1595C14.2169 13.1688 13.7523 13.178 13.3 13.178V13.1672L10.2917 13.1657V15.4964C10.2917 15.4964 11.9031 15.4655 11.8753 15.4949C12.7598 15.4949 13.0469 16.0073 13.1302 16.4503V20.5345C13.192 20.5345 13.2707 20.5376 13.3602 20.55H13.1302L13.1287 26.2718C13.0901 26.5497 12.9265 26.9927 12.3091 26.9942C12.3369 27.0189 10.7239 26.9942 10.7239 26.9942L10.2901 29.5997H13.1302C13.6581 29.5997 14.1783 29.609 14.6876 29.612L14.6892 33.2378H16.8687V29.6506C17.466 29.663 18.0448 29.6676 18.6113 29.6676L18.6098 33.2378H20.7908V29.6198C24.4582 29.4098 27.0282 28.4853 27.3461 25.0401C27.6039 22.2664 26.2996 21.0269 24.2174 20.5268C25.4846 19.8847 26.2765 18.7502 26.0912 16.8594ZM23.0381 24.611C23.0381 27.3199 18.3998 27.0127 16.9196 27.0127V22.2077C18.3998 22.2108 23.0381 21.7863 23.0381 24.611ZM22.0225 17.8333C22.0225 20.2984 18.1513 20.0097 16.9196 20.0113V15.6554C18.1529 15.6554 22.024 15.2633 22.0225 17.8333Z" fill="white"/>
<path d="M13.1353 20.4383H13.4594V20.6775H13.1353V20.4383Z" fill="white"/>
</g>
<defs>
<clipPath id="clip0_21_1174">
<rect width="41" height="41" fill="white" transform="translate(0.278503)"/>
</clipPath>
</defs>
</svg>
