<svg width="37" height="41" viewBox="0 0 37 41" fill="none" xmlns="http://www.w3.org/2000/svg">
<g clip-path="url(#clip0_21_1192)">
<path d="M17.5551 0L-0.198914 10.25V30.75L17.5551 41L35.3092 30.75V10.25L17.5551 0ZM17.9181 33.204L4.29089 25.4317L4.34612 21.652L17.9102 29.4165L24.4516 25.6447L20.0644 23.1118L18.4231 24.0587L15.3457 22.2912L16.9949 21.3364L14.8407 20.0897L13.5388 20.8472L10.4535 19.0797L11.7634 18.3222L4.81167 14.3058L17.9102 6.74654L30.267 13.7929L26.9529 15.7182L17.9102 10.5341L11.3688 14.3058L15.0301 16.4205L16.9002 15.3316L19.9855 17.0991L18.0996 18.188L20.2537 19.4348L21.7845 18.5431L24.8698 20.3106L23.3232 21.2102L30.993 25.6368L17.9181 33.204Z" fill="white"/>
</g>
<defs>
<clipPath id="clip0_21_1192">
<rect width="35.5081" height="41" fill="white" transform="translate(0.966003)"/>
</clipPath>
</defs>
</svg>
