<svg width="54" height="41" viewBox="0 0 54 41" fill="none" xmlns="http://www.w3.org/2000/svg">
<g clip-path="url(#clip0_21_1194)">
<path d="M20.2252 17.0227L26.1216 29.8793L34.8793 24.9013H34.8961V14.9396L20.2252 17.0227Z" fill="#2BBDF7"/>
<path d="M46.207 7.46983L40.7418 5.44839L34.8959 4.97803V14.9396V36.0164L43.6648 41L50.6586 26.9675L46.2238 13.467L46.207 7.46983Z" fill="#2891F9"/>
<path d="M45.6977 4.97803L43.6651 9.96164V40.9216L52.434 35.938V4.97803H45.6977Z" fill="#2BBDF7"/>
<path d="M43.6648 0L34.8959 4.97801L43.6648 9.96162L52.4337 4.97801L43.6648 0Z" fill="#2B6DEF"/>
<path d="M26.1215 19.9177L17.3526 10.2416L-0.190857 4.97803V35.938L8.57806 40.9216L11.0923 23.787L17.3526 24.9013L26.1215 29.8793V19.9177Z" fill="#2891F9"/>
<path d="M8.57806 0L-0.190857 4.97801L26.1215 19.9176L30.0972 17.6666L34.896 14.9396L8.57806 0Z" fill="#2B6DEF"/>
<path d="M8.578 19.9177V40.9216L17.3525 35.938V24.9013L8.578 19.9177Z" fill="#2BBDF7"/>
</g>
<defs>
<clipPath id="clip0_21_1194">
<rect width="52.6247" height="41" fill="white" transform="translate(0.974121)"/>
</clipPath>
</defs>
</svg>
