<svg width="42" height="41" viewBox="0 0 42 41" fill="none" xmlns="http://www.w3.org/2000/svg">
<g clip-path="url(#clip0_21_1207)">
<path d="M19.9341 41C31.2559 41 40.4341 31.8218 40.4341 20.5C40.4341 9.17816 31.2559 0 19.9341 0C8.61224 0 -0.565918 9.17816 -0.565918 20.5C-0.565918 31.8218 8.61224 41 19.9341 41Z" fill="#105B2F"/>
<path fill-rule="evenodd" clip-rule="evenodd" d="M14.8514 23.2929L14.3517 25.8388L13.442 30.5166C13.4164 30.6576 13.3805 30.7524 13.2011 30.7498C12.0711 30.7332 10.941 30.7242 9.81093 30.7114C9.78402 30.7114 9.75583 30.6934 9.68408 30.6665L12.2338 17.9309H10.0851C10.0902 17.8361 10.0877 17.7797 10.0979 17.7259C10.2299 17.0379 10.3721 16.3511 10.4913 15.6605C10.5246 15.4684 10.6104 15.4197 10.7898 15.4209C11.3151 15.4261 11.8404 15.4069 12.3632 15.4248C12.613 15.4325 12.7091 15.3607 12.7578 15.1147C13.0499 13.5926 13.3626 12.0756 13.6624 10.556C13.6982 10.3754 13.738 10.2511 13.9737 10.2511C16.5465 10.2588 19.1205 10.2344 21.6932 10.2678C23.1949 10.287 24.7003 10.3639 26.1776 10.6675C26.6863 10.7726 27.2026 10.9084 27.6741 11.1185C29.0297 11.7207 29.8458 12.7636 30.0726 14.2076C30.425 16.4511 29.9496 18.5126 28.5095 20.3089C27.4461 21.6312 25.988 22.373 24.3595 22.824C23.068 23.1815 21.7432 23.2929 20.4081 23.2955C18.6721 23.2994 16.936 23.2955 15.1999 23.2942H14.8514V23.2929ZM15.5625 19.7849H15.9251C17.7611 19.7849 19.5971 19.7887 21.4344 19.7823C21.8252 19.7823 22.2211 19.7657 22.6093 19.7183C24.0917 19.5414 25.218 18.8304 25.938 17.5401C26.247 16.9806 26.3508 16.3307 26.2314 15.7028C26.0802 14.8098 25.5472 14.2268 24.6414 14.0628C23.9782 13.9364 23.306 13.8636 22.6311 13.845C20.7451 13.8104 18.8591 13.8245 16.9718 13.8194C16.9039 13.8194 16.836 13.8296 16.7451 13.8373L16.4324 15.4363H21.6727L21.191 17.9194H15.934L15.5625 19.7849Z" fill="white"/>
</g>
<defs>
<clipPath id="clip0_21_1207">
<rect width="41" height="41" fill="white" transform="translate(0.598877)"/>
</clipPath>
</defs>
</svg>
