<svg width="42" height="41" viewBox="0 0 42 41" fill="none" xmlns="http://www.w3.org/2000/svg">
<g clip-path="url(#clip0_21_1211)">
<path d="M4.76515 27.8824C4.54341 27.8824 4.32664 27.9482 4.14227 28.0714C3.9579 28.1946 3.8142 28.3697 3.72934 28.5745C3.64449 28.7794 3.62228 29.0048 3.66554 29.2223C3.7088 29.4398 3.81558 29.6396 3.97238 29.7964C4.12917 29.9531 4.32894 30.0599 4.54642 30.1032C4.7639 30.1464 4.98933 30.1242 5.19419 30.0394C5.39905 29.9545 5.57415 29.8108 5.69734 29.6265C5.82054 29.4421 5.88629 29.2253 5.88629 29.0036C5.88629 28.8047 5.83197 28.6239 5.74156 28.4431C5.64133 28.2731 5.49863 28.132 5.32746 28.0338C5.15629 27.9355 4.96251 27.8834 4.76515 27.8826V27.8824ZM20.6047 3.4901C20.6047 3.26836 20.5389 3.0516 20.4157 2.86723C20.2925 2.68286 20.1174 2.53916 19.9126 2.4543C19.7077 2.36944 19.4823 2.34724 19.2648 2.3905C19.0473 2.43376 18.8476 2.54054 18.6908 2.69733C18.534 2.85413 18.4272 3.0539 18.3839 3.27138C18.3407 3.48886 18.3629 3.71428 18.4477 3.91915C18.5326 4.12401 18.6763 4.29911 18.8607 4.4223C19.045 4.54549 19.2618 4.61125 19.4835 4.61125C19.7804 4.60958 20.0646 4.49092 20.2745 4.28103C20.4844 4.07113 20.603 3.78693 20.6047 3.4901ZM34.2755 13.2182C34.4973 13.2182 34.714 13.1524 34.8984 13.0292C35.0828 12.906 35.2265 12.7309 35.3113 12.5261C35.3962 12.3212 35.4184 12.0958 35.3751 11.8783C35.3319 11.6608 35.2251 11.4611 35.0683 11.3043C34.9115 11.1475 34.7117 11.0407 34.4942 10.9974C34.2768 10.9542 34.0513 10.9764 33.8465 11.0612C33.6416 11.1461 33.4665 11.2898 33.3433 11.4742C33.2201 11.6585 33.1544 11.8753 33.1544 12.097C33.1551 12.2873 33.2049 12.4741 33.2991 12.6395C33.3954 12.8143 33.5367 12.9601 33.7084 13.0619C33.8801 13.1637 34.0759 13.2176 34.2755 13.2182ZM5.28851 11.0663C4.74608 10.7588 4.07696 10.9398 3.76967 11.4822C3.46237 12.0247 3.64318 12.6938 4.18561 13.0011C4.72804 13.3084 5.39716 13.1276 5.70446 12.5851C6.01196 12.0607 5.83094 11.3736 5.28851 11.0663ZM34.7265 28.0993C34.5637 27.9909 34.3649 27.9546 34.166 27.9366C34.0175 27.9346 33.8701 27.9621 33.7324 28.0175C33.5946 28.0729 33.4692 28.1552 33.3635 28.2595C33.2578 28.3638 33.1738 28.4881 33.1165 28.6251C33.0592 28.7621 33.0297 28.9091 33.0297 29.0576C33.0297 29.2061 33.0592 29.3531 33.1165 29.4901C33.1738 29.6272 33.2578 29.7514 33.3635 29.8557C33.4692 29.96 33.5946 30.0423 33.7324 30.0977C33.8701 30.1531 34.0175 30.1807 34.166 30.1786C34.5637 30.1786 34.9245 29.9618 35.1425 29.6182C35.45 29.0938 35.2689 28.4066 34.7265 28.0993ZM18.3624 37.4473C18.3081 37.9537 18.6156 38.4418 19.0856 38.6226C19.1941 38.6587 19.3208 38.695 19.4292 38.695C19.7034 38.6945 19.9689 38.5986 20.18 38.4237C20.3912 38.2488 20.5349 38.0059 20.5864 37.7366C20.6267 37.4454 20.5503 37.1501 20.3739 36.915C20.1976 36.6798 19.9355 36.5238 19.6447 36.4809C19.3539 36.438 19.0579 36.5117 18.8212 36.6858C18.5844 36.86 18.426 37.1207 18.3804 37.411C18.3706 37.4208 18.3643 37.4334 18.3624 37.4471" fill="#2683FF"/>
<path d="M35.8299 26.0377C35.6967 25.9606 35.5576 25.8941 35.414 25.8388V15.3695C35.5767 15.3151 35.7395 15.2247 35.9023 15.1526C37.5833 14.2122 38.1983 12.0786 37.2583 10.3966C36.3184 8.71455 34.1844 8.10058 32.5023 9.0405C32.3576 9.11287 32.2311 9.20327 32.1046 9.29368L22.8829 3.95957C22.901 3.7968 22.919 3.65208 22.919 3.48951C22.9188 1.55492 21.3464 0 19.4297 0C17.5129 0 15.9037 1.59121 15.9037 3.50776C15.9037 3.67053 15.9217 3.81525 15.9398 3.97782L6.79042 9.27584C6.42646 8.9907 6.00955 8.7806 5.56382 8.65771C5.1181 8.53482 4.65243 8.50157 4.19377 8.5599C3.73511 8.61823 3.29258 8.76697 2.8918 8.99751C2.49103 9.22806 2.13997 9.53582 1.85896 9.90298C1.57796 10.2701 1.37258 10.6894 1.25473 11.1365C1.13689 11.5836 1.10891 12.0496 1.17241 12.5076C1.23592 12.9655 1.38966 13.4064 1.62471 13.8045C1.85977 14.2026 2.17148 14.5502 2.5418 14.827C2.66828 14.9174 2.79497 15.0078 2.9395 15.0983C3.08718 15.1886 3.24495 15.2614 3.40956 15.3151V25.7665C1.6193 26.4897 0.751121 28.5155 1.47436 30.3049C2.1976 32.0944 4.2228 32.963 6.01306 32.2397C6.17583 32.1854 6.32056 32.095 6.46509 32.0228C6.60982 31.9324 6.75434 31.842 6.89907 31.7336L15.958 36.9592C15.6505 38.8577 16.9525 40.6478 18.8512 40.9553C20.7499 41.2628 22.54 39.9609 22.8473 38.0621C22.8833 37.8633 22.8833 37.6825 22.8833 37.4834C22.881 37.3141 22.8689 37.145 22.8473 36.9771L31.8521 31.7877C31.9968 31.8962 32.1413 32.0046 32.3041 32.0952C33.9851 33.0355 36.1194 32.4388 37.0601 30.7572C37.9635 29.0754 37.4211 27.0141 35.8299 26.0377ZM36.4627 30.4134C35.7215 31.6791 34.0759 32.113 32.8103 31.3718C31.7978 30.775 31.2914 29.5997 31.5626 28.4608L27.3314 25.9835C26.6784 26.6457 25.8443 27.1002 24.9339 27.2898C24.0235 27.4795 23.0773 27.3959 22.2142 27.0495C21.5814 27.2484 20.2257 27.3751 20.2257 27.3751V34.8248C21.7085 35.2768 22.5217 36.85 22.0707 38.3325C21.6197 39.8151 20.0455 40.6285 18.5628 40.1775C18.5447 40.1775 18.5267 40.1595 18.5084 40.1595C18.3819 40.1234 18.2733 40.0691 18.1648 40.0148C16.7725 39.3276 16.2301 37.628 16.9172 36.2538C17.2608 35.5667 17.8756 35.0605 18.5982 34.8254V27.231C18.0672 27.0668 17.5476 26.8675 17.0431 26.6342C16.2352 26.7957 15.4017 26.7773 14.6017 26.5804C13.8017 26.3835 13.0549 26.013 12.4142 25.495L7.36934 28.406C7.49262 28.9226 7.45996 29.4641 7.27549 29.9622C7.09102 30.4602 6.76303 30.8923 6.33298 31.204C5.90293 31.5156 5.39014 31.6927 4.85944 31.7129C4.32874 31.7332 3.80395 31.5956 3.35144 31.3176C2.89893 31.0396 2.539 30.6336 2.31717 30.1511C2.09534 29.6686 2.02157 29.1311 2.10518 28.6066C2.18879 28.0821 2.42602 27.5942 2.7869 27.2046C3.14777 26.8149 3.61607 26.5411 4.1326 26.4175C5.00057 26.2006 5.92266 26.4536 6.5926 27.0684L11.3119 24.338C9.72069 22.0959 9.97387 19.022 11.9269 17.0691L6.5559 13.9951C5.4899 15.0076 3.80747 14.9535 2.79497 13.8687C2.55406 13.6128 2.36615 13.3117 2.24205 12.9829C2.11795 12.6541 2.06011 12.304 2.07187 11.9528C2.08362 11.6015 2.16474 11.256 2.31055 10.9363C2.45636 10.6165 2.66398 10.3287 2.92146 10.0895C4.00632 9.07699 5.66989 9.13111 6.68239 10.216C7.29739 10.8668 7.53232 11.7709 7.33326 12.6389L13.2822 16.0562C14.0615 15.637 14.9289 15.4077 15.8137 15.3871C16.6458 14.7003 18.7778 13.9951 18.7778 13.9951V5.85849C17.4578 5.46079 16.7165 4.06843 17.1142 2.74844C17.5119 1.42844 18.9053 0.7052 20.2253 1.1029C21.5453 1.5006 22.2866 2.89296 21.8889 4.21295C21.7713 4.60646 21.5577 4.96454 21.2673 5.25495C20.9769 5.54536 20.6188 5.75896 20.2253 5.87653V13.851C20.2253 13.851 24.131 14.8274 25.3606 16.292L31.6891 12.6938C31.3636 11.2473 32.2496 9.80064 33.6963 9.47531C35.1429 9.14997 36.5894 10.0358 36.9148 11.4825C37.2401 12.9291 36.3543 14.3756 34.9076 14.701C34.477 14.798 34.0292 14.7877 33.6035 14.671C33.1779 14.5543 32.7874 14.3348 32.4665 14.0318L26.2103 17.5755C26.3911 17.9551 26.5539 18.334 26.6623 18.7327C28.5971 20.0527 29.2843 22.584 28.2535 24.6996L32.3945 27.1045C32.8117 26.7156 33.3435 26.472 33.9105 26.4101C34.4775 26.3482 35.0493 26.4712 35.5406 26.7609C36.7883 27.5022 37.2216 29.1297 36.4631 30.4134H36.4627Z" fill="#2683FF"/>
<path d="M24.8002 20.1431C24.7822 19.9984 24.7641 19.8719 24.7459 19.7272C24.7282 19.6293 24.704 19.5327 24.6735 19.4379C24.6735 19.4019 24.6555 19.3656 24.6555 19.3295C24.6194 19.2211 24.5831 19.0944 24.5471 18.9859V18.9679C24.3171 18.3613 23.9665 17.8077 23.5163 17.3407C23.4079 17.2322 23.3175 17.1418 23.1908 17.0332L23.1727 17.0151C23.0643 16.9247 22.9558 16.8343 22.8292 16.762L22.8111 16.7439C22.7027 16.6716 22.576 16.5812 22.4675 16.527L22.4495 16.509C22.3327 16.4416 22.2119 16.3812 22.0879 16.3282L22.0518 16.3102C21.9253 16.2558 21.7986 16.2017 21.6541 16.1474L21.6361 16.1294C21.4913 16.0933 21.3648 16.039 21.2201 16.0209H21.2021C21.059 15.988 20.9141 15.9638 20.7681 15.9485H20.75C19.9799 15.8391 19.1946 15.9326 18.4717 16.2198L18.3813 16.2921C18.2728 16.3282 18.092 16.4186 17.9836 16.4729C17.9271 16.5102 17.8664 16.5405 17.8028 16.5633C17.7484 16.5814 17.658 16.6537 17.6039 16.6898C17.5498 16.7259 17.4231 16.8163 17.3507 16.8706L17.2964 16.9067C17.188 16.979 17.0976 17.0695 16.9889 17.1599L16.8985 17.2503C16.7901 17.3587 16.6997 17.4491 16.6092 17.5577C16.3942 17.5217 16.1765 17.5035 15.9584 17.5034C15.886 17.5034 15.8319 17.5034 15.7776 17.5215C14.9459 17.5575 14.1503 17.9011 13.5355 18.4618C13.228 18.733 12.975 19.0767 12.777 19.4381L12.7577 19.475C12.702 19.5801 12.6536 19.6888 12.613 19.8006C12.5949 19.8367 12.5949 19.8549 12.5769 19.891C12.5386 19.9846 12.5083 20.0814 12.4865 20.1802C12.4685 20.2163 12.4685 20.2706 12.4504 20.3067C12.4324 20.3971 12.4143 20.4875 12.3961 20.5959C12.3961 20.632 12.378 20.6683 12.378 20.7224C12.363 20.8605 12.357 20.9995 12.36 21.1384C12.357 21.2532 12.363 21.3681 12.378 21.4819C12.378 21.518 12.3961 21.5543 12.3961 21.6084C12.4141 21.6808 12.4141 21.7531 12.4322 21.8253C12.4502 21.8975 12.4502 21.9157 12.4682 21.97C12.4888 22.022 12.501 22.077 12.5043 22.1328C12.5043 22.1871 12.5404 22.2412 12.5587 22.2955C12.5734 22.3391 12.5916 22.3814 12.613 22.422C12.6402 22.481 12.6644 22.5414 12.6853 22.6028C12.7034 22.6389 12.7214 22.6572 12.7214 22.6932C12.9755 23.2888 13.4044 23.7932 13.9514 24.1397C14.2226 24.3024 14.4939 24.4472 14.7831 24.5374C14.8953 24.5759 15.0101 24.6061 15.1267 24.6278L15.1628 24.6458L15.4883 24.7001L15.5607 24.7182C15.6872 24.7362 15.8138 24.7362 15.9584 24.7362C16.4467 24.7362 16.9167 24.6458 17.3507 24.447C17.4592 24.5193 17.5496 24.5917 17.6582 24.6638L17.6943 24.6819C17.7847 24.7362 17.8932 24.7903 18.0018 24.8446H18.0194C19.0529 25.3713 20.2457 25.4938 21.3646 25.1882H21.3827C21.5453 25.1531 21.7032 25.0984 21.8527 25.0254L22.3411 24.8086C22.806 25.1713 23.3786 25.3685 23.9683 25.369C24.0948 25.369 24.2035 25.351 24.33 25.351L24.4204 25.3329C24.5362 25.3157 24.651 25.2915 24.7639 25.2606C24.8754 25.2263 24.9842 25.1841 25.0895 25.1341L25.1438 25.1161C25.2523 25.0617 25.3427 25.0076 25.4513 24.9533C25.9033 24.664 26.2469 24.2301 26.4458 23.7418C26.5181 23.579 26.5542 23.4162 26.5905 23.2537V23.1994C26.6085 23.127 26.6085 23.0546 26.6266 22.9825C26.6266 22.8921 26.6446 22.8017 26.6446 22.7113C26.6446 21.518 25.9033 20.4873 24.7996 20.1437" fill="#2683FF"/>
</g>
<defs>
<clipPath id="clip0_21_1211">
<rect width="41" height="41" fill="white" transform="translate(0.098877)"/>
</clipPath>
</defs>
</svg>
