<svg width="18" height="18" viewBox="0 0 18 18" fill="none" xmlns="http://www.w3.org/2000/svg">
<g clip-path="url(#clip0_22_2112)">
<path d="M17.1779 0.313965L9.62891 5.95847L11.0327 2.63198L17.1779 0.313965Z" fill="#E17726"/>
<path d="M0.421875 0.320801L6.5506 2.63259L7.88356 6.00269L0.421875 0.320801Z" fill="#E27625"/>
<path d="M14.143 12.3184L17.4795 12.3825L16.3135 16.3855L12.2422 15.2528L14.143 12.3184Z" fill="#E27625"/>
<path d="M3.44293 12.3184L5.33673 15.2528L1.27226 16.3856L0.113281 12.3825L3.44293 12.3184Z" fill="#E27625"/>
<path d="M7.70154 5.14404L7.83793 9.59436L3.75781 9.40678L4.91837 7.63748L4.93306 7.62041L7.70154 5.14404Z" fill="#E27625"/>
<path d="M9.84332 5.09448L12.654 7.62067L12.6686 7.6376L13.8292 9.40691L9.75 9.59445L9.84332 5.09448Z" fill="#E27625"/>
<path d="M5.45383 12.3311L7.6817 14.0852L5.09375 15.3478L5.45383 12.3311Z" fill="#E27625"/>
<path d="M12.1343 12.3306L12.4869 15.3476L9.90625 14.0848L12.1343 12.3306Z" fill="#E27625"/>
<path d="M9.95703 13.9199L12.5758 15.2013L10.1398 16.3713L10.1651 15.598L9.95703 13.9199Z" fill="#D5BFB2"/>
<path d="M7.62525 13.9204L7.42532 15.5853L7.44173 16.3703L5 15.2012L7.62525 13.9204Z" fill="#D5BFB2"/>
<path d="M6.86825 10.175L7.55259 11.6284L5.22266 10.9387L6.86825 10.175Z" fill="#233447"/>
<path d="M10.7193 10.1753L12.3727 10.9388L10.0352 11.6283L10.7193 10.1753Z" fill="#233447"/>
<path d="M5.63348 12.3164L5.25685 15.4442L3.23828 12.3848L5.63348 12.3164Z" fill="#CC6228"/>
<path d="M11.9492 12.3164L14.3445 12.3848L12.3183 15.4443L11.9492 12.3164Z" fill="#CC6228"/>
<path d="M13.8868 9.22998L12.1437 11.0252L10.7997 10.4046L10.1562 11.7715L9.73438 9.42089L13.8868 9.22998Z" fill="#CC6228"/>
<path d="M3.69922 9.22998L7.8524 9.42092L7.43057 11.7716L6.78697 10.4048L5.45007 11.0253L3.69922 9.22998Z" fill="#CC6228"/>
<path d="M3.58203 8.86182L5.55425 10.8841L5.6226 12.8806L3.58203 8.86182Z" fill="#E27525"/>
<path d="M14.0051 8.85791L11.9609 12.8839L12.0379 10.8838L14.0051 8.85791Z" fill="#E27525"/>
<path d="M7.75555 8.98486L7.83492 9.48973L8.03106 10.7475L7.90497 14.6104L7.30879 11.5073L7.30859 11.4752L7.75555 8.98486Z" fill="#E27525"/>
<path d="M9.82913 8.97754L10.2773 11.4748L10.2771 11.5069L9.67941 14.6178L9.65575 13.8397L9.5625 10.7242L9.82913 8.97754Z" fill="#E27525"/>
<path d="M12.2163 10.8032L12.1495 12.5378L10.069 14.1759L9.64844 13.8756L10.1199 11.4217L12.2163 10.8032Z" fill="#F5841F"/>
<path d="M5.37891 10.8032L7.46805 11.4217L7.93948 13.8755L7.5189 14.1758L5.43828 12.5377L5.37891 10.8032Z" fill="#F5841F"/>
<path d="M4.60156 14.8184L7.26332 16.0928L7.25205 15.5486L7.47476 15.3511H10.1091L10.3399 15.5479L10.3229 16.0918L12.9678 14.8216L11.6808 15.8963L10.1245 16.9764H7.45343L5.89818 15.8919L4.60156 14.8184Z" fill="#C0AC9D"/>
<path d="M9.76861 13.7505L10.1449 14.0191L10.3655 15.7973L10.0463 15.5249H7.53965L7.22656 15.8028L7.43986 14.0193L7.81634 13.7505H9.76861Z" fill="#161616"/>
<path d="M16.6829 0.470215L17.5891 3.21731L17.0232 5.99489L17.4261 6.30905L16.8809 6.72946L17.2907 7.04928L16.748 7.54871L17.0812 7.79252L16.197 8.836L12.5705 7.769L12.5391 7.75198L9.92578 5.52426L16.6829 0.470215Z" fill="#763E1A"/>
<path d="M0.902267 0.470459L7.65943 5.52451L5.04611 7.75222L5.01469 7.76925L1.38818 8.83624L0.504035 7.79276L0.83693 7.54913L0.294521 7.04953L0.70356 6.73005L0.150124 6.30844L0.568296 5.99409L-0.00390625 3.21766L0.902267 0.470459Z" fill="#763E1A"/>
<path d="M12.3937 7.53564L16.2362 8.66614L17.4846 12.5541L14.1911 12.5541L11.9219 12.583L13.5722 9.33241L12.3937 7.53564Z" fill="#F5841F"/>
<path d="M5.19328 7.53564L4.01461 9.33241L5.66514 12.583L3.39697 12.5541H0.109375L1.35073 8.66616L5.19328 7.53564Z" fill="#F5841F"/>
<path d="M11.2267 2.61328L10.1519 5.54658L9.92384 9.50921L9.83657 10.7512L9.82964 13.924H7.76032L7.75361 10.7572L7.66605 9.50812L7.43787 5.54658L6.36328 2.61328H11.2267Z" fill="#F5841F"/>
</g>
<defs>
<clipPath id="clip0_22_2112">
<rect width="17.5929" height="20.5929" fill="white"/>
</clipPath>
</defs>
</svg>
