<svg width="42" height="41" viewBox="0 0 42 41" fill="none" xmlns="http://www.w3.org/2000/svg">
<g clip-path="url(#clip0_21_1179)">
<path d="M20.1136 41C31.4354 41 40.6136 31.8218 40.6136 20.5C40.6136 9.17816 31.4354 0 20.1136 0C8.79175 0 -0.386414 9.17816 -0.386414 20.5C-0.386414 31.8218 8.79175 41 20.1136 41Z" fill="#242424"/>
<path d="M16.3466 30.5886L19.7842 27.1331L23.2359 30.5886L21.0334 32.795C20.8695 32.9593 20.6748 33.0897 20.4605 33.1786C20.2461 33.2676 20.0163 33.3134 19.7842 33.3134C19.5521 33.3134 19.3223 33.2676 19.108 33.1786C18.8936 33.0897 18.6989 32.9593 18.535 32.795L16.3466 30.5886ZM25.2513 18.7473L21.8022 15.2918L25.2526 11.8363L28.7017 15.2918L25.2513 18.7473ZM24.3942 29.4624L20.9438 26.0069L30.2072 16.7281L32.4084 18.9331C33.099 19.625 33.099 20.7435 32.4084 21.4354L24.3942 29.4624ZM14.9091 29.1062L11.4599 25.6507L20.708 16.3873L24.1571 19.8428L14.9091 29.1062ZM10.0121 24.2375L7.80966 22.0312C7.48075 21.697 7.29779 21.2461 7.30091 20.7772C7.30403 20.3084 7.49298 19.8599 7.82632 19.5302L10.0275 17.3239L13.4779 20.7807L10.0121 24.2375ZM23.8073 10.4154L14.5439 19.689L11.0935 16.2335L19.1077 8.2052C19.2716 8.04087 19.4663 7.91048 19.6807 7.82152C19.895 7.73256 20.1248 7.68677 20.3569 7.68677C20.589 7.68677 20.8188 7.73256 21.0332 7.82152C21.2476 7.91048 21.4423 8.04087 21.6062 8.2052L23.8073 10.4154Z" fill="white"/>
</g>
<defs>
<clipPath id="clip0_21_1179">
<rect width="41" height="41" fill="white" transform="translate(0.778503)"/>
</clipPath>
</defs>
</svg>
