<svg width="29" height="41" viewBox="0 0 29 41" fill="none" xmlns="http://www.w3.org/2000/svg">
<g clip-path="url(#clip0_21_1183)">
<path d="M-0.373352 22.3284C4.08674 24.697 8.74075 27.1763 12.3353 29.0947L24.94 22.3284C20.376 29.1085 16.5733 34.753 12.3353 41C8.08979 34.7668 3.40117 27.8889 -0.373352 22.3284ZM0.111423 20.4582L12.3491 13.9281L24.4275 20.4104L12.356 26.9478L0.111423 20.4582ZM12.3353 11.8359L-0.373352 18.5261L12.2799 0L24.94 18.5676L12.3353 11.8359Z" fill="#3AB83A"/>
<path d="M12.3351 29.0947L24.9399 22.3284C20.3759 29.1085 12.3351 41 12.3351 41V29.0947ZM12.3489 13.9281L24.4274 20.4104L12.3558 26.9478L12.3489 13.9281ZM12.3351 11.8364L12.2797 0L24.9399 18.5676L12.3351 11.8364Z" fill="#0B8311"/>
<path d="M0.111816 20.4583L12.3501 21.4626L24.4285 20.4167L12.3564 26.9546L0.111816 20.4583Z" fill="#0B8311"/>
<path d="M12.3495 21.4626L24.428 20.4167L12.3564 26.9546L12.3495 21.4626Z" fill="#146714"/>
</g>
<defs>
<clipPath id="clip0_21_1183">
<rect width="28.1875" height="41" fill="white" transform="translate(0.278503)"/>
</clipPath>
</defs>
</svg>
