<svg width="42" height="41" viewBox="0 0 42 41" fill="none" xmlns="http://www.w3.org/2000/svg">
<g clip-path="url(#clip0_21_1203)">
<path d="M19.4341 0C30.757 0 39.9341 9.17897 39.9341 20.5C39.9341 31.8229 30.757 41 19.4341 41C8.11305 41 -1.06592 31.822 -1.06592 20.5C-1.06592 9.17897 8.11305 0 19.4341 0Z" fill="#F5AC37"/>
<path d="M20.1831 21.9476H27.9728C28.1389 21.9476 28.2173 21.9476 28.2293 21.7299C28.2929 20.9374 28.2929 20.1404 28.2293 19.347C28.2293 19.193 28.1527 19.1293 27.9857 19.1293H12.4829C12.2911 19.1293 12.2394 19.193 12.2394 19.3729V21.6533C12.2394 21.9476 12.2394 21.9476 12.5466 21.9476H20.1831ZM27.3593 16.4642C27.3815 16.4061 27.3815 16.3424 27.3593 16.2852C27.2293 16.002 27.0752 15.7317 26.8962 15.478C26.6269 15.0444 26.3095 14.645 25.9479 14.2861C25.7772 14.0694 25.5798 13.8747 25.3584 13.7096C24.2496 12.7659 22.9313 12.098 21.5143 11.7622C20.7994 11.6016 20.0687 11.5251 19.3363 11.5315H12.4562C12.2643 11.5315 12.2385 11.6081 12.2385 11.7751V16.323C12.2385 16.5149 12.2385 16.5666 12.482 16.5666H27.2671C27.2671 16.5666 27.3953 16.5408 27.4211 16.4642H27.3584H27.3593ZM27.3593 24.6127C27.1416 24.5887 26.9221 24.5887 26.7044 24.6127H12.4959C12.304 24.6127 12.2394 24.6127 12.2394 24.8692V29.3157C12.2394 29.5205 12.2394 29.5721 12.4959 29.5721H19.0558C19.3695 29.5961 19.6831 29.574 19.9903 29.5085C20.9424 29.4402 21.8787 29.2336 22.7717 28.8932C23.0964 28.7806 23.4101 28.6339 23.7062 28.4577H23.7957C25.3335 27.6579 26.5826 26.4015 27.3704 24.859C27.3704 24.859 27.4599 24.6653 27.3593 24.6146V24.6127ZM9.66468 31.8775V31.8009V28.8157V27.8037V24.7926C9.66468 24.6256 9.66468 24.6007 9.45989 24.6007H6.67944C6.52538 24.6007 6.46173 24.6007 6.46173 24.3959V21.9614H9.43406C9.60011 21.9614 9.66468 21.9614 9.66468 21.7437V19.335C9.66468 19.181 9.66468 19.1432 9.45989 19.1432H6.67944C6.52538 19.1432 6.46173 19.1432 6.46173 18.9384V16.6837C6.46173 16.5426 6.46173 16.5048 6.66653 16.5048H9.42114C9.61302 16.5048 9.66468 16.5048 9.66468 16.2612V9.35534C9.66468 9.15054 9.66468 9.09888 9.92114 9.09888H19.53C20.2274 9.12655 20.9202 9.20312 21.6056 9.3295C23.018 9.59057 24.375 10.0952 25.6158 10.8157C26.4387 11.3 27.196 11.8849 27.8704 12.5583C28.3778 13.085 28.8354 13.6552 29.2413 14.2622C29.6444 14.8775 29.9793 15.5352 30.2422 16.2225C30.2745 16.4015 30.446 16.5223 30.625 16.4919H32.9184C33.2127 16.4919 33.2127 16.4919 33.2256 16.7742V18.8756C33.2256 19.0804 33.149 19.1321 32.9433 19.1321H31.1748C30.9959 19.1321 30.9442 19.1321 30.9571 19.3627C31.0272 20.1432 31.0272 20.9264 30.9571 21.7068C30.9571 21.9245 30.9571 21.9504 31.2016 21.9504H33.2246C33.3141 22.0657 33.2246 22.181 33.2246 22.2972C33.2376 22.4457 33.2376 22.5961 33.2246 22.7446V24.2954C33.2246 24.5131 33.161 24.5777 32.9682 24.5777H30.5466C30.3778 24.5454 30.2136 24.6533 30.1748 24.8212C29.5983 26.3203 28.6758 27.6644 27.4839 28.7419C27.0484 29.1339 26.5909 29.5029 26.113 29.8433C25.6001 30.1385 25.101 30.4457 24.5752 30.6893C23.6075 31.1247 22.5927 31.4457 21.5512 31.6496C20.5623 31.8267 19.5595 31.907 18.5531 31.8932H9.66099V31.8802L9.66468 31.8775Z" fill="#FEFEFD"/>
</g>
<defs>
<clipPath id="clip0_21_1203">
<rect width="41" height="41" fill="white" transform="translate(0.098877)"/>
</clipPath>
</defs>
</svg>
