<svg width="41" height="41" viewBox="0 0 41 41" fill="none" xmlns="http://www.w3.org/2000/svg">
<path d="M19.7363 41C31.0582 41 40.2363 31.8218 40.2363 20.5C40.2363 9.17816 31.0582 0 19.7363 0C8.41451 0 -0.763657 9.17816 -0.763657 20.5C-0.763657 31.8218 8.41451 41 19.7363 41Z" fill="#FAA00D"/>
<path d="M32.5386 18.541L20.4064 32.6475L19.8619 33.3125L6.93281 18.6832L6.97381 18.6665L6.92384 18.6588L11.9489 10.2577L11.9515 10.2603L11.9489 10.25H27.6493L27.6468 10.259L32.5488 18.5397L32.5386 18.541ZM15.7081 19.1291L12.9278 23.8364L19.785 31.6674L26.6564 23.7723L23.9376 19.115L15.7081 19.1291ZM12.1488 22.9472L14.4038 19.1303L8.81497 19.1393L12.1488 22.9472ZM24.6064 18.0195L30.9537 18.0092L26.969 11.3365L20.7139 11.3493L24.6064 18.0195ZM30.7192 19.1034L25.2444 19.1124L27.4392 22.8729L30.7192 19.1034ZM23.2995 18.0221L19.8517 12.1129L16.3538 18.0323L23.2995 18.0221ZM12.5383 11.3672L8.56641 18.0464L15.0495 18.0349L18.9958 11.3544L12.5383 11.3672Z" fill="white"/>
</svg>
