<svg width="42" height="41" viewBox="0 0 42 41" fill="none" xmlns="http://www.w3.org/2000/svg">
<g clip-path="url(#clip0_21_1216)">
<path d="M19.934 41C31.2558 41 40.434 31.8218 40.434 20.5C40.434 9.17816 31.2558 0 19.934 0C8.61212 0 -0.56604 9.17816 -0.56604 20.5C-0.56604 31.8218 8.61212 41 19.934 41Z" fill="#3058A6"/>
<path d="M19.9275 34.8866C11.9863 34.8866 5.54805 28.4484 5.54805 20.5072C5.54805 12.566 11.9863 6.1277 19.9275 6.1277C27.8687 6.1277 34.307 12.566 34.307 20.5072C34.307 28.4484 27.8687 34.8866 19.9275 34.8866ZM19.9275 5.21161C11.4931 5.21161 4.63196 12.0727 4.63196 20.5072C4.63196 28.9416 11.4931 35.8027 19.9275 35.8027C28.362 35.8027 35.2231 28.9416 35.2231 20.5072C35.2231 12.0727 28.362 5.21161 19.9275 5.21161Z" fill="white"/>
<path fill-rule="evenodd" clip-rule="evenodd" d="M25.3139 25.9791L24.5157 29.4372L24.3235 30.2738H23.4651L19.0512 30.2713H19.0332C17.2638 30.2418 15.875 29.7716 14.964 28.9413C15.7507 30.3289 17.4214 31.1323 19.7533 31.1707H19.7712L24.1839 31.1733H25.0423L25.2358 30.3366L26.034 26.8785L25.4113 25.5575L25.3139 25.9791ZM23.9263 11.1537L23.296 9.84302L23.2063 10.253L22.6079 12.9782H23.5253L23.9263 11.1537ZM27.1128 14.3069L26.3184 17.6702L26.1211 18.5004H21.3382L20.1236 24.0457C20.098 24.2046 20.0826 24.366 20.0826 24.4557C20.0826 24.5338 20.0915 24.5838 20.0992 24.6081C20.1905 24.6423 20.2875 24.6589 20.385 24.6568H20.9077L22.0583 19.4011H26.8412L27.0372 18.5696L27.8316 15.2063L27.214 13.879L27.1115 14.3069H27.1128ZM15.2459 18.5004H11.9133L13.0613 19.4011H15.0498L15.2459 18.5004Z" fill="white"/>
<path fill-rule="evenodd" clip-rule="evenodd" d="M20.4899 25.7361H20.3682C19.4406 25.7117 19.0024 25.2287 19.0024 24.4548C19.0024 24.2703 19.0332 24.0256 19.0639 23.8424L20.4707 17.4208H25.2677L26.0621 14.0575H21.2651L22.1517 10.0215H18.2388L17.3509 14.0575H13.1048L12.3412 17.4208H16.5872L14.9344 24.9737C14.8447 25.3402 14.8127 25.7681 14.8127 25.9821C14.8127 28.1371 16.5129 29.1493 19.0511 29.1916L23.4637 29.1929L24.2619 25.7361H20.4899Z" fill="white"/>
</g>
<defs>
<clipPath id="clip0_21_1216">
<rect width="41" height="41" fill="white" transform="translate(0.598877)"/>
</clipPath>
</defs>
</svg>
